%TF.GenerationSoftware,KiCad,Pcbnew,7.0.9*%
%TF.CreationDate,2023-12-16T22:44:04+03:00*%
%TF.ProjectId,SMD2WII,534d4432-5749-4492-9e6b-696361645f70,rev?*%
%TF.SameCoordinates,Original*%
%TF.FileFunction,Copper,L1,Top*%
%TF.FilePolarity,Positive*%
%FSLAX46Y46*%
G04 Gerber Fmt 4.6, Leading zero omitted, Abs format (unit mm)*
G04 Created by KiCad (PCBNEW 7.0.9) date 2023-12-16 22:44:04*
%MOMM*%
%LPD*%
G01*
G04 APERTURE LIST*
G04 Aperture macros list*
%AMRoundRect*
0 Rectangle with rounded corners*
0 $1 Rounding radius*
0 $2 $3 $4 $5 $6 $7 $8 $9 X,Y pos of 4 corners*
0 Add a 4 corners polygon primitive as box body*
4,1,4,$2,$3,$4,$5,$6,$7,$8,$9,$2,$3,0*
0 Add four circle primitives for the rounded corners*
1,1,$1+$1,$2,$3*
1,1,$1+$1,$4,$5*
1,1,$1+$1,$6,$7*
1,1,$1+$1,$8,$9*
0 Add four rect primitives between the rounded corners*
20,1,$1+$1,$2,$3,$4,$5,0*
20,1,$1+$1,$4,$5,$6,$7,0*
20,1,$1+$1,$6,$7,$8,$9,0*
20,1,$1+$1,$8,$9,$2,$3,0*%
%AMFreePoly0*
4,1,5,1.500000,-1.250000,-1.500000,-1.250000,-1.500000,1.250000,1.500000,1.250000,1.500000,-1.250000,1.500000,-1.250000,$1*%
G04 Aperture macros list end*
%TA.AperFunction,ComponentPad*%
%ADD10R,1.600000X1.600000*%
%TD*%
%TA.AperFunction,ComponentPad*%
%ADD11C,1.600000*%
%TD*%
%TA.AperFunction,SMDPad,CuDef*%
%ADD12RoundRect,0.250000X-0.625000X0.400000X-0.625000X-0.400000X0.625000X-0.400000X0.625000X0.400000X0*%
%TD*%
%TA.AperFunction,SMDPad,CuDef*%
%ADD13RoundRect,0.250000X0.625000X-0.400000X0.625000X0.400000X-0.625000X0.400000X-0.625000X-0.400000X0*%
%TD*%
%TA.AperFunction,SMDPad,CuDef*%
%ADD14RoundRect,0.250000X-0.412500X-0.650000X0.412500X-0.650000X0.412500X0.650000X-0.412500X0.650000X0*%
%TD*%
%TA.AperFunction,ComponentPad*%
%ADD15R,5.000000X5.000000*%
%TD*%
%TA.AperFunction,ComponentPad*%
%ADD16C,2.000000*%
%TD*%
%TA.AperFunction,SMDPad,CuDef*%
%ADD17RoundRect,0.250001X0.624999X-0.462499X0.624999X0.462499X-0.624999X0.462499X-0.624999X-0.462499X0*%
%TD*%
%TA.AperFunction,ComponentPad*%
%ADD18FreePoly0,180.000000*%
%TD*%
%TA.AperFunction,ComponentPad*%
%ADD19C,1.500000*%
%TD*%
%TA.AperFunction,SMDPad,CuDef*%
%ADD20R,0.550000X1.600000*%
%TD*%
%TA.AperFunction,SMDPad,CuDef*%
%ADD21R,1.600000X0.550000*%
%TD*%
%TA.AperFunction,ComponentPad*%
%ADD22R,1.700000X1.700000*%
%TD*%
%TA.AperFunction,ComponentPad*%
%ADD23O,1.700000X1.700000*%
%TD*%
%TA.AperFunction,ViaPad*%
%ADD24C,1.000000*%
%TD*%
%TA.AperFunction,ViaPad*%
%ADD25C,0.800000*%
%TD*%
%TA.AperFunction,Conductor*%
%ADD26C,0.500000*%
%TD*%
%TA.AperFunction,Conductor*%
%ADD27C,1.000000*%
%TD*%
%TA.AperFunction,Conductor*%
%ADD28C,0.350000*%
%TD*%
%TA.AperFunction,Conductor*%
%ADD29C,0.250000*%
%TD*%
G04 APERTURE END LIST*
D10*
%TO.P,C1,1*%
%TO.N,VCC*%
X104344888Y-95500000D03*
D11*
%TO.P,C1,2*%
%TO.N,GND*%
X106844888Y-95500000D03*
%TD*%
D12*
%TO.P,R5,1*%
%TO.N,Net-(U1-PC1)*%
X118600000Y-88600000D03*
%TO.P,R5,2*%
%TO.N,Net-(D2-A)*%
X118600000Y-91700000D03*
%TD*%
D13*
%TO.P,R2,1*%
%TO.N,/SDA*%
X124850000Y-94600000D03*
%TO.P,R2,2*%
%TO.N,VCC*%
X124850000Y-91500000D03*
%TD*%
D12*
%TO.P,R3,2*%
%TO.N,RESET*%
X123400000Y-76050000D03*
%TO.P,R3,1*%
%TO.N,VCC*%
X123400000Y-72950000D03*
%TD*%
D14*
%TO.P,C2,1*%
%TO.N,VCC*%
X104175000Y-89100000D03*
%TO.P,C2,2*%
%TO.N,GND*%
X107300000Y-89100000D03*
%TD*%
D15*
%TO.P,J2,0*%
%TO.N,N/C*%
X126160000Y-63110331D03*
X101160000Y-63110331D03*
D16*
%TO.P,J2,1,1*%
%TO.N,/SMD_D0*%
X119200000Y-64530331D03*
%TO.P,J2,2,2*%
%TO.N,/SMD_D1*%
X116430000Y-64530331D03*
%TO.P,J2,3,3*%
%TO.N,/SMD_D2*%
X113660000Y-64530331D03*
%TO.P,J2,4,4*%
%TO.N,/SMD_D3*%
X110890000Y-64530331D03*
%TO.P,J2,5,5*%
%TO.N,VCC*%
X108120000Y-64530331D03*
%TO.P,J2,6,6*%
%TO.N,/SMD_D4*%
X117815000Y-61690331D03*
%TO.P,J2,7,7*%
%TO.N,/SMD_SELECT*%
X115045000Y-61690331D03*
%TO.P,J2,8,8*%
%TO.N,GND*%
X112275000Y-61690331D03*
%TO.P,J2,9,9*%
%TO.N,/SMD_D5*%
X109505000Y-61690331D03*
%TD*%
D17*
%TO.P,D2,1,K*%
%TO.N,GND*%
X118550000Y-97575000D03*
%TO.P,D2,2,A*%
%TO.N,Net-(D2-A)*%
X118550000Y-94600000D03*
%TD*%
D18*
%TO.P,J1,*%
%TO.N,*%
X119650000Y-107000000D03*
X107650000Y-107000000D03*
D19*
%TO.P,J1,1,VCC*%
%TO.N,VCC*%
X115450000Y-103250000D03*
%TO.P,J1,2,DTC*%
%TO.N,/DTC*%
X113650000Y-103250000D03*
%TO.P,J1,3,SDA*%
%TO.N,/SDA*%
X111850000Y-103250000D03*
%TO.P,J1,4,SCL*%
%TO.N,/SCL*%
X115450000Y-105250000D03*
%TO.P,J1,5*%
%TO.N,unconnected-(J1-Pad5)*%
X113650000Y-105250000D03*
%TO.P,J1,6,GND*%
%TO.N,GND*%
X111850000Y-105250000D03*
%TD*%
D20*
%TO.P,U1,1,PD3*%
%TO.N,/SMD_SELECT*%
X116300000Y-74500000D03*
%TO.P,U1,2,PD4*%
%TO.N,/SMD_D2*%
X115500000Y-74500000D03*
%TO.P,U1,3,GND*%
%TO.N,GND*%
X114700000Y-74500000D03*
%TO.P,U1,4,VCC*%
%TO.N,VCC*%
X113900000Y-74500000D03*
%TO.P,U1,5,GND*%
%TO.N,GND*%
X113100000Y-74500000D03*
%TO.P,U1,6,VCC*%
%TO.N,VCC*%
X112300000Y-74500000D03*
%TO.P,U1,7,PB6/XTAL1*%
%TO.N,unconnected-(U1-PB6{slash}XTAL1-Pad7)*%
X111500000Y-74500000D03*
%TO.P,U1,8,PB7/XTAL2*%
%TO.N,unconnected-(U1-PB7{slash}XTAL2-Pad8)*%
X110700000Y-74500000D03*
D21*
%TO.P,U1,9,PD5*%
%TO.N,/SMD_D3*%
X109250000Y-75950000D03*
%TO.P,U1,10,PD6*%
%TO.N,/SMD_D5*%
X109250000Y-76750000D03*
%TO.P,U1,11,PD7*%
%TO.N,unconnected-(U1-PD7-Pad11)*%
X109250000Y-77550000D03*
%TO.P,U1,12,PB0*%
%TO.N,unconnected-(U1-PB0-Pad12)*%
X109250000Y-78350000D03*
%TO.P,U1,13,PB1*%
%TO.N,unconnected-(U1-PB1-Pad13)*%
X109250000Y-79150000D03*
%TO.P,U1,14,PB2*%
%TO.N,unconnected-(U1-PB2-Pad14)*%
X109250000Y-79950000D03*
%TO.P,U1,15,PB3*%
%TO.N,/MOSI*%
X109250000Y-80750000D03*
%TO.P,U1,16,PB4*%
%TO.N,/MISO*%
X109250000Y-81550000D03*
D20*
%TO.P,U1,17,PB5*%
%TO.N,/SCK*%
X110700000Y-83000000D03*
%TO.P,U1,18,AVCC*%
%TO.N,VCC*%
X111500000Y-83000000D03*
%TO.P,U1,19,ADC6*%
%TO.N,unconnected-(U1-ADC6-Pad19)*%
X112300000Y-83000000D03*
%TO.P,U1,20,AREF*%
%TO.N,unconnected-(U1-AREF-Pad20)*%
X113100000Y-83000000D03*
%TO.P,U1,21,AGND*%
%TO.N,GND*%
X113900000Y-83000000D03*
%TO.P,U1,22,ADC7*%
%TO.N,unconnected-(U1-ADC7-Pad22)*%
X114700000Y-83000000D03*
%TO.P,U1,23,PC0*%
%TO.N,Net-(U1-PC0)*%
X115500000Y-83000000D03*
%TO.P,U1,24,PC1*%
%TO.N,Net-(U1-PC1)*%
X116300000Y-83000000D03*
D21*
%TO.P,U1,25,PC2*%
%TO.N,unconnected-(U1-PC2-Pad25)*%
X117750000Y-81550000D03*
%TO.P,U1,26,PC3*%
%TO.N,/DTC*%
X117750000Y-80750000D03*
%TO.P,U1,27,PC4*%
%TO.N,/SDA*%
X117750000Y-79950000D03*
%TO.P,U1,28,PC5*%
%TO.N,/SCL*%
X117750000Y-79150000D03*
%TO.P,U1,29,PC6/~{RESET}*%
%TO.N,RESET*%
X117750000Y-78350000D03*
%TO.P,U1,30,PD0*%
%TO.N,/SMD_D0*%
X117750000Y-77550000D03*
%TO.P,U1,31,PD1*%
%TO.N,/SMD_D4*%
X117750000Y-76750000D03*
%TO.P,U1,32,PD2*%
%TO.N,/SMD_D1*%
X117750000Y-75950000D03*
%TD*%
D13*
%TO.P,R1,1*%
%TO.N,VCC*%
X124850000Y-86600000D03*
%TO.P,R1,2*%
%TO.N,/SCL*%
X124850000Y-83500000D03*
%TD*%
D17*
%TO.P,D1,1,K*%
%TO.N,GND*%
X114150000Y-97575000D03*
%TO.P,D1,2,A*%
%TO.N,Net-(D1-A)*%
X114150000Y-94600000D03*
%TD*%
D22*
%TO.P,J3,1,Pin_1*%
%TO.N,GND*%
X101050000Y-72770000D03*
D23*
%TO.P,J3,2,Pin_2*%
%TO.N,RESET*%
X101050000Y-75310000D03*
%TO.P,J3,3,Pin_3*%
%TO.N,/MOSI*%
X101050000Y-77850000D03*
%TO.P,J3,4,Pin_4*%
%TO.N,/MISO*%
X101050000Y-80390000D03*
%TO.P,J3,5,Pin_5*%
%TO.N,/SCK*%
X101050000Y-82930000D03*
%TO.P,J3,6,Pin_6*%
%TO.N,VCC*%
X101050000Y-85470000D03*
%TD*%
D12*
%TO.P,R4,1*%
%TO.N,Net-(U1-PC0)*%
X114100000Y-88600000D03*
%TO.P,R4,2*%
%TO.N,Net-(D1-A)*%
X114100000Y-91700000D03*
%TD*%
D24*
%TO.N,VCC*%
X124850000Y-88900000D03*
X123400000Y-71000000D03*
X106900000Y-85470000D03*
%TO.N,GND*%
X113850000Y-70850000D03*
X109850000Y-92850000D03*
D25*
%TO.N,/DTC*%
X124900000Y-97700000D03*
X121650000Y-97700000D03*
%TO.N,/SMD_D4*%
X118000000Y-67650000D03*
X121150000Y-67600000D03*
%TO.N,/SMD_SELECT*%
X122500000Y-68700000D03*
X115100000Y-68700000D03*
%TO.N,RESET*%
X115650000Y-78350000D03*
%TD*%
D26*
%TO.N,VCC*%
X123400000Y-72950000D02*
X123400000Y-71000000D01*
%TO.N,RESET*%
X123400000Y-77700000D02*
X123400000Y-76050000D01*
X122750000Y-78350000D02*
X123400000Y-77700000D01*
X117750000Y-78350000D02*
X122750000Y-78350000D01*
%TO.N,/DTC*%
X123100000Y-100600000D02*
X114600000Y-100600000D01*
X124900000Y-98800000D02*
X123100000Y-100600000D01*
X124900000Y-97700000D02*
X124900000Y-98800000D01*
X113650000Y-101550000D02*
X113650000Y-103250000D01*
X114600000Y-100600000D02*
X113650000Y-101550000D01*
%TO.N,VCC*%
X112300000Y-78000000D02*
X111500000Y-78800000D01*
X113900000Y-74500000D02*
X113900000Y-76000000D01*
X111500000Y-84600000D02*
X111500000Y-83000000D01*
X112300000Y-76050000D02*
X112300000Y-78000000D01*
X104344888Y-95500000D02*
X101200000Y-95500000D01*
X111500000Y-78800000D02*
X111500000Y-83000000D01*
X112300000Y-74500000D02*
X112300000Y-76050000D01*
D27*
X101050000Y-89100000D02*
X101050000Y-95350000D01*
D26*
X113450000Y-76450000D02*
X112300000Y-76450000D01*
X104175000Y-89100000D02*
X101050000Y-89100000D01*
D27*
X101050000Y-85470000D02*
X101050000Y-89100000D01*
D26*
X124850000Y-88900000D02*
X124850000Y-86600000D01*
D28*
X101200000Y-95500000D02*
X101050000Y-95350000D01*
D27*
X110630000Y-85470000D02*
X101050000Y-85470000D01*
D26*
X113900000Y-76000000D02*
X113450000Y-76450000D01*
X110630000Y-85470000D02*
X111500000Y-84600000D01*
X124850000Y-88900000D02*
X124850000Y-91500000D01*
%TO.N,GND*%
X113900000Y-83000000D02*
X113900000Y-84800000D01*
X114700000Y-72700000D02*
X114700000Y-74500000D01*
D27*
X109850000Y-92750000D02*
X109850000Y-88850000D01*
X109850000Y-95500000D02*
X109850000Y-97500000D01*
D26*
X113450000Y-72350000D02*
X113100000Y-72700000D01*
X107300000Y-89100000D02*
X109600000Y-89100000D01*
D28*
X114250000Y-97675000D02*
X114150000Y-97575000D01*
D26*
X113850000Y-72350000D02*
X113850000Y-70850000D01*
D28*
X109600000Y-89100000D02*
X109850000Y-88850000D01*
D26*
X114700000Y-74500000D02*
X114700000Y-77900000D01*
X113850000Y-72350000D02*
X114350000Y-72350000D01*
X113900000Y-78700000D02*
X113900000Y-83000000D01*
X118550000Y-97675000D02*
X114250000Y-97675000D01*
X110125000Y-97575000D02*
X114150000Y-97575000D01*
X106844888Y-95500000D02*
X109850000Y-95500000D01*
X113850000Y-72350000D02*
X113450000Y-72350000D01*
X114350000Y-72350000D02*
X114700000Y-72700000D01*
D29*
X114050000Y-97675000D02*
X114150000Y-97575000D01*
D27*
X109850000Y-92850000D02*
X109850000Y-95500000D01*
D26*
X114700000Y-77900000D02*
X113900000Y-78700000D01*
X113100000Y-72700000D02*
X113100000Y-74500000D01*
X113900000Y-84800000D02*
X109850000Y-88850000D01*
%TO.N,/DTC*%
X121650000Y-87450000D02*
X119750000Y-85550000D01*
X119750000Y-85550000D02*
X119750000Y-81700000D01*
X113550000Y-103250000D02*
X113600000Y-103200000D01*
X118800000Y-80750000D02*
X117750000Y-80750000D01*
X119750000Y-81700000D02*
X118800000Y-80750000D01*
X121650000Y-97700000D02*
X121650000Y-87450000D01*
%TO.N,/SDA*%
X124750000Y-94700000D02*
X124850000Y-94600000D01*
X122850000Y-94700000D02*
X124750000Y-94700000D01*
X113200000Y-99500000D02*
X121900000Y-99500000D01*
X111750000Y-103250000D02*
X111900000Y-103100000D01*
X111900000Y-100800000D02*
X113200000Y-99500000D01*
X121250000Y-84850000D02*
X121250000Y-81750000D01*
X119450000Y-79950000D02*
X117750000Y-79950000D01*
X111900000Y-103100000D02*
X111900000Y-100800000D01*
X122850000Y-98550000D02*
X122850000Y-86450000D01*
X121900000Y-99500000D02*
X122850000Y-98550000D01*
X122850000Y-86450000D02*
X121250000Y-84850000D01*
X121250000Y-81750000D02*
X119450000Y-79950000D01*
%TO.N,/SCL*%
X127050000Y-98650000D02*
X123900000Y-101800000D01*
D28*
X126950000Y-83500000D02*
X127050000Y-83400000D01*
D26*
X124850000Y-83500000D02*
X126950000Y-83500000D01*
X118700000Y-101800000D02*
X117700000Y-102800000D01*
X125800000Y-80100000D02*
X124850000Y-79150000D01*
X116950000Y-105250000D02*
X115450000Y-105250000D01*
X124850000Y-79150000D02*
X117750000Y-79150000D01*
X127050000Y-83400000D02*
X127050000Y-98650000D01*
X127050000Y-81350000D02*
X125800000Y-80100000D01*
X123900000Y-101800000D02*
X118700000Y-101800000D01*
X117700000Y-104500000D02*
X116950000Y-105250000D01*
X117700000Y-102800000D02*
X117700000Y-104500000D01*
X127050000Y-83400000D02*
X127050000Y-81350000D01*
%TO.N,/SMD_D0*%
X119200000Y-67600000D02*
X119200000Y-64530331D01*
X120000000Y-77550000D02*
X121200000Y-76350000D01*
X117750000Y-77550000D02*
X120000000Y-77550000D01*
X121200000Y-76350000D02*
X121200000Y-69600000D01*
X121200000Y-69600000D02*
X119200000Y-67600000D01*
%TO.N,/SMD_D1*%
X117750000Y-70050000D02*
X116430000Y-68730000D01*
X117750000Y-75950000D02*
X117750000Y-70050000D01*
X116430000Y-68730000D02*
X116430000Y-64530331D01*
%TO.N,/SMD_D2*%
X115500000Y-70600000D02*
X113660000Y-68760000D01*
X113660000Y-68760000D02*
X113660000Y-64530331D01*
X115500000Y-74500000D02*
X115500000Y-70600000D01*
%TO.N,/SMD_D3*%
X107300000Y-67900000D02*
X106350000Y-68850000D01*
X110890000Y-64530331D02*
X110890000Y-67110000D01*
X107150000Y-75950000D02*
X109250000Y-75950000D01*
X106350000Y-75150000D02*
X107150000Y-75950000D01*
X106350000Y-68850000D02*
X106350000Y-75150000D01*
X110100000Y-67900000D02*
X107300000Y-67900000D01*
X110890000Y-67110000D02*
X110100000Y-67900000D01*
%TO.N,/SMD_D4*%
X121150000Y-67600000D02*
X121100000Y-67550000D01*
X121100000Y-67550000D02*
X121100000Y-62800000D01*
X118000000Y-68400000D02*
X118000000Y-67650000D01*
X119300000Y-76750000D02*
X120100000Y-75950000D01*
X117750000Y-76750000D02*
X119300000Y-76750000D01*
X121100000Y-62800000D02*
X119990331Y-61690331D01*
X120100000Y-75950000D02*
X120100000Y-70500000D01*
X120100000Y-70500000D02*
X118000000Y-68400000D01*
X119990331Y-61690331D02*
X117815000Y-61690331D01*
%TO.N,/SMD_SELECT*%
X115900000Y-59400000D02*
X115045000Y-60255000D01*
X122500000Y-68700000D02*
X122500000Y-60700000D01*
X121200000Y-59400000D02*
X115900000Y-59400000D01*
X116300000Y-69900000D02*
X116300000Y-74500000D01*
X115100000Y-68700000D02*
X116300000Y-69900000D01*
X122500000Y-60700000D02*
X121200000Y-59400000D01*
X115045000Y-60255000D02*
X115045000Y-61690331D01*
%TO.N,/SMD_D5*%
X106150000Y-76750000D02*
X104950000Y-75550000D01*
X109250000Y-76750000D02*
X106150000Y-76750000D01*
X107109669Y-61690331D02*
X109505000Y-61690331D01*
X105800000Y-65700000D02*
X105800000Y-63000000D01*
X104950000Y-75550000D02*
X104950000Y-66550000D01*
X105800000Y-63000000D02*
X107109669Y-61690331D01*
X104950000Y-66550000D02*
X105800000Y-65700000D01*
%TO.N,/MISO*%
X103890000Y-80390000D02*
X101050000Y-80390000D01*
X109250000Y-81550000D02*
X105050000Y-81550000D01*
X105050000Y-81550000D02*
X103890000Y-80390000D01*
%TO.N,/SCK*%
X110700000Y-83000000D02*
X101120000Y-83000000D01*
D28*
X101120000Y-83000000D02*
X101050000Y-82930000D01*
D26*
%TO.N,/MOSI*%
X109250000Y-80750000D02*
X106350000Y-80750000D01*
X106350000Y-80750000D02*
X103450000Y-77850000D01*
X103450000Y-77850000D02*
X101050000Y-77850000D01*
%TO.N,RESET*%
X115650000Y-78350000D02*
X117750000Y-78350000D01*
%TO.N,Net-(D1-A)*%
X114150000Y-94600000D02*
X114150000Y-91550000D01*
%TO.N,Net-(D2-A)*%
X118550000Y-94600000D02*
X118550000Y-91550000D01*
%TO.N,Net-(U1-PC0)*%
X115500000Y-83000000D02*
X115500000Y-85100000D01*
X114150000Y-86450000D02*
X114150000Y-88450000D01*
X115500000Y-85100000D02*
X114150000Y-86450000D01*
%TO.N,Net-(U1-PC1)*%
X118550000Y-86950000D02*
X118550000Y-88450000D01*
X116300000Y-83000000D02*
X116300000Y-84700000D01*
X116300000Y-84700000D02*
X118550000Y-86950000D01*
%TD*%
M02*
