%TF.GenerationSoftware,KiCad,Pcbnew,7.0.9*%
%TF.CreationDate,2023-12-20T21:59:00+03:00*%
%TF.ProjectId,SMD2WII,534d4432-5749-4492-9e6b-696361645f70,rev?*%
%TF.SameCoordinates,Original*%
%TF.FileFunction,Copper,L2,Bot*%
%TF.FilePolarity,Positive*%
%FSLAX46Y46*%
G04 Gerber Fmt 4.6, Leading zero omitted, Abs format (unit mm)*
G04 Created by KiCad (PCBNEW 7.0.9) date 2023-12-20 21:59:00*
%MOMM*%
%LPD*%
G01*
G04 APERTURE LIST*
G04 Aperture macros list*
%AMFreePoly0*
4,1,5,1.500000,-1.250000,-1.500000,-1.250000,-1.500000,1.250000,1.500000,1.250000,1.500000,-1.250000,1.500000,-1.250000,$1*%
G04 Aperture macros list end*
%TA.AperFunction,ComponentPad*%
%ADD10R,1.600000X1.600000*%
%TD*%
%TA.AperFunction,ComponentPad*%
%ADD11C,1.600000*%
%TD*%
%TA.AperFunction,ComponentPad*%
%ADD12R,5.000000X5.000000*%
%TD*%
%TA.AperFunction,ComponentPad*%
%ADD13C,2.000000*%
%TD*%
%TA.AperFunction,ComponentPad*%
%ADD14FreePoly0,180.000000*%
%TD*%
%TA.AperFunction,ComponentPad*%
%ADD15C,1.500000*%
%TD*%
%TA.AperFunction,ComponentPad*%
%ADD16R,1.700000X1.700000*%
%TD*%
%TA.AperFunction,ComponentPad*%
%ADD17O,1.700000X1.700000*%
%TD*%
%TA.AperFunction,ViaPad*%
%ADD18C,1.000000*%
%TD*%
%TA.AperFunction,ViaPad*%
%ADD19C,0.800000*%
%TD*%
%TA.AperFunction,Conductor*%
%ADD20C,1.000000*%
%TD*%
%TA.AperFunction,Conductor*%
%ADD21C,0.500000*%
%TD*%
G04 APERTURE END LIST*
D10*
%TO.P,C1,1*%
%TO.N,VCC*%
X104094888Y-91100000D03*
D11*
%TO.P,C1,2*%
%TO.N,GND*%
X106594888Y-91100000D03*
%TD*%
D12*
%TO.P,J2,0*%
%TO.N,N/C*%
X126160000Y-63110331D03*
X101160000Y-63110331D03*
D13*
%TO.P,J2,1,1*%
%TO.N,/SMD_D0*%
X119200000Y-64530331D03*
%TO.P,J2,2,2*%
%TO.N,/SMD_D1*%
X116430000Y-64530331D03*
%TO.P,J2,3,3*%
%TO.N,/SMD_D2*%
X113660000Y-64530331D03*
%TO.P,J2,4,4*%
%TO.N,/SMD_D3*%
X110890000Y-64530331D03*
%TO.P,J2,5,5*%
%TO.N,VCC*%
X108120000Y-64530331D03*
%TO.P,J2,6,6*%
%TO.N,/SMD_D4*%
X117815000Y-61690331D03*
%TO.P,J2,7,7*%
%TO.N,/SMD_SELECT*%
X115045000Y-61690331D03*
%TO.P,J2,8,8*%
%TO.N,GND*%
X112275000Y-61690331D03*
%TO.P,J2,9,9*%
%TO.N,/SMD_D5*%
X109505000Y-61690331D03*
%TD*%
D14*
%TO.P,J1,*%
%TO.N,*%
X119650000Y-97150000D03*
X107650000Y-97150000D03*
D15*
%TO.P,J1,1,VCC*%
%TO.N,VCC*%
X115450000Y-93400000D03*
%TO.P,J1,2,DTC*%
%TO.N,/DTC*%
X113650000Y-93400000D03*
%TO.P,J1,3,SDA*%
%TO.N,/SDA*%
X111850000Y-93400000D03*
%TO.P,J1,4,SCL*%
%TO.N,/SCL*%
X115450000Y-95400000D03*
%TO.P,J1,5*%
%TO.N,unconnected-(J1-Pad5)*%
X113650000Y-95400000D03*
%TO.P,J1,6,GND*%
%TO.N,GND*%
X111850000Y-95400000D03*
%TD*%
D16*
%TO.P,J3,1,Pin_1*%
%TO.N,GND*%
X101050000Y-69470000D03*
D17*
%TO.P,J3,2,Pin_2*%
%TO.N,RESET*%
X101050000Y-72010000D03*
%TO.P,J3,3,Pin_3*%
%TO.N,/MOSI*%
X101050000Y-74550000D03*
%TO.P,J3,4,Pin_4*%
%TO.N,/MISO*%
X101050000Y-77090000D03*
%TO.P,J3,5,Pin_5*%
%TO.N,/SCK*%
X101050000Y-79630000D03*
%TO.P,J3,6,Pin_6*%
%TO.N,VCC*%
X101050000Y-82170000D03*
%TD*%
D18*
%TO.N,VCC*%
X124800000Y-83000000D03*
X122700000Y-71200000D03*
%TO.N,GND*%
X113850000Y-69050000D03*
D19*
X116900000Y-83200000D03*
%TO.N,/DTC*%
X121650000Y-91249500D03*
X121650000Y-89200000D03*
%TO.N,/SMD_D4*%
X118000000Y-66900000D03*
X121100000Y-66900000D03*
%TO.N,/SMD_SELECT*%
X122500000Y-68100000D03*
X116300000Y-68100000D03*
%TO.N,RESET*%
X115650000Y-75050000D03*
%TD*%
D20*
%TO.N,VCC*%
X110800000Y-71600000D02*
X108120000Y-68920000D01*
X109870000Y-82170000D02*
X101050000Y-82170000D01*
X119100000Y-84100000D02*
X115450000Y-87750000D01*
X119100000Y-74800000D02*
X115900000Y-71600000D01*
X124800000Y-83000000D02*
X119100000Y-83000000D01*
X115900000Y-71600000D02*
X110800000Y-71600000D01*
X108120000Y-68920000D02*
X108120000Y-64530331D01*
X115450000Y-93200000D02*
X115450000Y-87750000D01*
X115450000Y-87750000D02*
X109870000Y-82170000D01*
X122700000Y-71200000D02*
X119100000Y-74800000D01*
X119100000Y-74800000D02*
X119100000Y-84100000D01*
D21*
%TO.N,/DTC*%
X121650000Y-91249500D02*
X121650000Y-89200000D01*
%TO.N,/SMD_D4*%
X118000000Y-66900000D02*
X121100000Y-66900000D01*
%TO.N,/SMD_SELECT*%
X122500000Y-68100000D02*
X116300000Y-68100000D01*
%TO.N,RESET*%
X102930000Y-72010000D02*
X101050000Y-72010000D01*
X105970000Y-75050000D02*
X102930000Y-72010000D01*
X115650000Y-75050000D02*
X105970000Y-75050000D01*
%TD*%
%TA.AperFunction,Conductor*%
%TO.N,GND*%
G36*
X129142539Y-53920185D02*
G01*
X129188294Y-53972989D01*
X129199500Y-54024500D01*
X129199500Y-60131280D01*
X129179815Y-60198319D01*
X129127011Y-60244074D01*
X129057853Y-60254018D01*
X129001189Y-60230547D01*
X128906204Y-60159442D01*
X128769203Y-60108342D01*
X128708654Y-60101831D01*
X128708638Y-60101831D01*
X123611362Y-60101831D01*
X123611345Y-60101831D01*
X123550797Y-60108342D01*
X123550795Y-60108342D01*
X123413795Y-60159442D01*
X123296739Y-60247070D01*
X123209111Y-60364126D01*
X123158011Y-60501126D01*
X123158011Y-60501128D01*
X123151500Y-60561676D01*
X123151500Y-65658985D01*
X123158011Y-65719533D01*
X123158011Y-65719535D01*
X123196955Y-65823945D01*
X123209111Y-65856535D01*
X123296739Y-65973592D01*
X123413796Y-66061220D01*
X123550799Y-66112320D01*
X123578050Y-66115249D01*
X123611345Y-66118830D01*
X123611362Y-66118831D01*
X128708638Y-66118831D01*
X128708654Y-66118830D01*
X128735692Y-66115922D01*
X128769201Y-66112320D01*
X128906204Y-66061220D01*
X129001191Y-65990113D01*
X129066653Y-65965697D01*
X129134926Y-65980548D01*
X129184332Y-66029953D01*
X129199500Y-66089381D01*
X129199500Y-98275500D01*
X129179815Y-98342539D01*
X129127011Y-98388294D01*
X129075500Y-98399500D01*
X121787729Y-98399500D01*
X121720690Y-98379815D01*
X121674935Y-98327011D01*
X121663729Y-98275500D01*
X121663729Y-95900000D01*
X121658500Y-95826888D01*
X121637469Y-95755265D01*
X121617304Y-95686589D01*
X121574106Y-95619372D01*
X121538251Y-95563580D01*
X121478436Y-95511750D01*
X121427743Y-95467824D01*
X121427741Y-95467823D01*
X121294734Y-95407080D01*
X121182323Y-95390918D01*
X121150000Y-95386271D01*
X118150000Y-95386271D01*
X118076888Y-95391499D01*
X117936586Y-95432697D01*
X117813580Y-95511748D01*
X117717824Y-95622257D01*
X117717823Y-95622258D01*
X117657080Y-95755265D01*
X117636271Y-95900000D01*
X117636271Y-98275500D01*
X117616586Y-98342539D01*
X117563782Y-98388294D01*
X117512271Y-98399500D01*
X109787729Y-98399500D01*
X109720690Y-98379815D01*
X109674935Y-98327011D01*
X109663729Y-98275500D01*
X109663729Y-95900000D01*
X109658500Y-95826888D01*
X109637469Y-95755265D01*
X109617304Y-95686589D01*
X109574106Y-95619372D01*
X109538251Y-95563580D01*
X109478436Y-95511750D01*
X109427743Y-95467824D01*
X109427741Y-95467823D01*
X109294734Y-95407080D01*
X109182323Y-95390918D01*
X109150000Y-95386271D01*
X106150000Y-95386271D01*
X106076888Y-95391499D01*
X105936586Y-95432697D01*
X105813580Y-95511748D01*
X105717824Y-95622257D01*
X105717823Y-95622258D01*
X105657080Y-95755265D01*
X105636271Y-95900000D01*
X105636271Y-98275500D01*
X105616586Y-98342539D01*
X105563782Y-98388294D01*
X105512271Y-98399500D01*
X98224500Y-98399500D01*
X98157461Y-98379815D01*
X98111706Y-98327011D01*
X98100500Y-98275500D01*
X98100500Y-91948654D01*
X102786388Y-91948654D01*
X102792899Y-92009202D01*
X102792899Y-92009204D01*
X102843999Y-92146204D01*
X102931627Y-92263261D01*
X103048684Y-92350889D01*
X103185687Y-92401989D01*
X103212938Y-92404918D01*
X103246233Y-92408499D01*
X103246250Y-92408500D01*
X104943526Y-92408500D01*
X104943542Y-92408499D01*
X104970580Y-92405591D01*
X105004089Y-92401989D01*
X105141092Y-92350889D01*
X105258149Y-92263261D01*
X105345777Y-92146204D01*
X105396877Y-92009201D01*
X105400479Y-91975692D01*
X105403387Y-91948654D01*
X105403565Y-91945331D01*
X105403743Y-91945340D01*
X105403744Y-91945335D01*
X105403847Y-91945346D01*
X105405016Y-91945408D01*
X105423073Y-91883915D01*
X105475877Y-91838160D01*
X105508854Y-91832480D01*
X106196934Y-91144399D01*
X106209723Y-91225148D01*
X106267247Y-91338045D01*
X106356843Y-91427641D01*
X106469740Y-91485165D01*
X106550487Y-91497953D01*
X105869414Y-92179025D01*
X105869414Y-92179026D01*
X105942400Y-92230131D01*
X105942404Y-92230133D01*
X106148561Y-92326265D01*
X106148570Y-92326269D01*
X106368277Y-92385139D01*
X106368288Y-92385141D01*
X106594886Y-92404966D01*
X106594890Y-92404966D01*
X106821487Y-92385141D01*
X106821498Y-92385139D01*
X107041205Y-92326269D01*
X107041219Y-92326264D01*
X107247366Y-92230136D01*
X107320360Y-92179025D01*
X106639289Y-91497953D01*
X106720036Y-91485165D01*
X106832933Y-91427641D01*
X106922529Y-91338045D01*
X106980053Y-91225148D01*
X106992841Y-91144400D01*
X107673913Y-91825472D01*
X107725024Y-91752478D01*
X107821152Y-91546331D01*
X107821157Y-91546317D01*
X107880027Y-91326610D01*
X107880029Y-91326599D01*
X107899854Y-91100002D01*
X107899854Y-91099997D01*
X107880029Y-90873400D01*
X107880027Y-90873389D01*
X107821157Y-90653682D01*
X107821153Y-90653673D01*
X107725021Y-90447516D01*
X107725019Y-90447512D01*
X107673914Y-90374526D01*
X107673913Y-90374526D01*
X106992841Y-91055598D01*
X106980053Y-90974852D01*
X106922529Y-90861955D01*
X106832933Y-90772359D01*
X106720036Y-90714835D01*
X106639288Y-90702046D01*
X107320360Y-90020974D01*
X107320359Y-90020973D01*
X107247371Y-89969866D01*
X107247369Y-89969865D01*
X107041214Y-89873734D01*
X107041205Y-89873730D01*
X106821498Y-89814860D01*
X106821487Y-89814858D01*
X106594890Y-89795034D01*
X106594886Y-89795034D01*
X106368288Y-89814858D01*
X106368277Y-89814860D01*
X106148570Y-89873730D01*
X106148561Y-89873734D01*
X105942401Y-89969868D01*
X105869415Y-90020972D01*
X105869414Y-90020973D01*
X106550488Y-90702046D01*
X106469740Y-90714835D01*
X106356843Y-90772359D01*
X106267247Y-90861955D01*
X106209723Y-90974852D01*
X106196934Y-91055599D01*
X105507797Y-90366462D01*
X105469694Y-90358804D01*
X105419511Y-90310188D01*
X105404853Y-90254600D01*
X105403847Y-90254653D01*
X105403744Y-90254665D01*
X105403743Y-90254659D01*
X105403565Y-90254669D01*
X105403387Y-90251345D01*
X105400045Y-90220270D01*
X105396877Y-90190799D01*
X105345777Y-90053796D01*
X105258149Y-89936739D01*
X105141092Y-89849111D01*
X105004091Y-89798011D01*
X104943542Y-89791500D01*
X104943526Y-89791500D01*
X103246250Y-89791500D01*
X103246233Y-89791500D01*
X103185685Y-89798011D01*
X103185683Y-89798011D01*
X103048683Y-89849111D01*
X102931627Y-89936739D01*
X102843999Y-90053795D01*
X102792899Y-90190795D01*
X102792899Y-90190797D01*
X102786388Y-90251345D01*
X102786388Y-91948654D01*
X98100500Y-91948654D01*
X98100500Y-82170005D01*
X99686844Y-82170005D01*
X99705434Y-82394359D01*
X99705436Y-82394371D01*
X99760703Y-82612614D01*
X99851140Y-82818792D01*
X99974276Y-83007265D01*
X99974284Y-83007276D01*
X100126756Y-83172902D01*
X100126761Y-83172907D01*
X100158614Y-83197699D01*
X100304424Y-83311189D01*
X100304425Y-83311189D01*
X100304427Y-83311191D01*
X100431135Y-83379761D01*
X100502426Y-83418342D01*
X100715365Y-83491444D01*
X100937431Y-83528500D01*
X101162569Y-83528500D01*
X101384635Y-83491444D01*
X101597574Y-83418342D01*
X101795576Y-83311189D01*
X101849723Y-83269043D01*
X101932461Y-83204647D01*
X101997455Y-83179004D01*
X102008623Y-83178500D01*
X109400904Y-83178500D01*
X109467943Y-83198185D01*
X109488585Y-83214819D01*
X114405181Y-88131415D01*
X114438666Y-88192738D01*
X114441500Y-88219096D01*
X114441500Y-92185840D01*
X114421815Y-92252879D01*
X114369011Y-92298634D01*
X114299853Y-92308578D01*
X114265096Y-92298222D01*
X114082082Y-92212882D01*
X114082077Y-92212880D01*
X114082076Y-92212880D01*
X113955699Y-92179017D01*
X113869372Y-92155885D01*
X113869365Y-92155884D01*
X113650002Y-92136693D01*
X113649998Y-92136693D01*
X113430634Y-92155884D01*
X113430627Y-92155885D01*
X113217920Y-92212881D01*
X113018346Y-92305944D01*
X113018342Y-92305946D01*
X112837967Y-92432247D01*
X112837960Y-92432252D01*
X112837681Y-92432532D01*
X112837527Y-92432615D01*
X112833819Y-92435728D01*
X112833193Y-92434982D01*
X112776358Y-92466017D01*
X112706666Y-92461033D01*
X112666571Y-92435264D01*
X112666182Y-92435729D01*
X112662546Y-92432678D01*
X112662319Y-92432532D01*
X112662038Y-92432251D01*
X112594755Y-92385139D01*
X112481654Y-92305944D01*
X112465094Y-92298222D01*
X112282081Y-92212882D01*
X112282079Y-92212881D01*
X112282076Y-92212880D01*
X112130777Y-92172339D01*
X112069372Y-92155885D01*
X112069365Y-92155884D01*
X111850002Y-92136693D01*
X111849998Y-92136693D01*
X111630634Y-92155884D01*
X111630627Y-92155885D01*
X111417920Y-92212881D01*
X111218346Y-92305944D01*
X111218342Y-92305946D01*
X111037967Y-92432247D01*
X111037960Y-92432252D01*
X110882252Y-92587960D01*
X110882247Y-92587967D01*
X110755946Y-92768342D01*
X110755944Y-92768346D01*
X110662881Y-92967920D01*
X110605885Y-93180627D01*
X110605884Y-93180634D01*
X110586693Y-93399997D01*
X110586693Y-93400000D01*
X110605885Y-93619371D01*
X110662880Y-93832076D01*
X110755944Y-94031654D01*
X110882251Y-94212038D01*
X111037962Y-94367749D01*
X111218346Y-94494056D01*
X111347047Y-94554069D01*
X111382323Y-94578770D01*
X111953553Y-95150000D01*
X111625376Y-95150000D01*
X111552455Y-95164505D01*
X111469760Y-95219760D01*
X111414505Y-95302455D01*
X111411916Y-95315468D01*
X110806875Y-94710427D01*
X110806875Y-94710428D01*
X110763333Y-94772612D01*
X110763332Y-94772614D01*
X110670898Y-94970840D01*
X110670894Y-94970849D01*
X110614289Y-95182105D01*
X110614287Y-95182115D01*
X110595225Y-95399999D01*
X110595225Y-95400000D01*
X110614287Y-95617884D01*
X110614289Y-95617894D01*
X110670894Y-95829150D01*
X110670898Y-95829159D01*
X110763335Y-96027391D01*
X110806873Y-96089571D01*
X110806875Y-96089572D01*
X111411916Y-95484530D01*
X111414505Y-95497545D01*
X111469760Y-95580240D01*
X111552455Y-95635495D01*
X111625376Y-95650000D01*
X111953551Y-95650000D01*
X111160426Y-96443124D01*
X111222611Y-96486666D01*
X111222613Y-96486667D01*
X111420840Y-96579101D01*
X111420849Y-96579105D01*
X111632105Y-96635710D01*
X111632115Y-96635712D01*
X111849999Y-96654775D01*
X111850001Y-96654775D01*
X112067884Y-96635712D01*
X112067894Y-96635710D01*
X112279150Y-96579105D01*
X112279159Y-96579101D01*
X112477387Y-96486666D01*
X112656554Y-96361212D01*
X112660698Y-96357735D01*
X112661461Y-96358644D01*
X112717632Y-96327973D01*
X112787324Y-96332957D01*
X112831671Y-96361458D01*
X112837962Y-96367749D01*
X113018346Y-96494056D01*
X113217924Y-96587120D01*
X113430629Y-96644115D01*
X113587322Y-96657823D01*
X113649998Y-96663307D01*
X113650000Y-96663307D01*
X113650002Y-96663307D01*
X113704842Y-96658509D01*
X113869371Y-96644115D01*
X114082076Y-96587120D01*
X114281654Y-96494056D01*
X114462038Y-96367749D01*
X114462319Y-96367468D01*
X114462471Y-96367384D01*
X114466182Y-96364271D01*
X114466807Y-96365016D01*
X114523642Y-96333983D01*
X114593334Y-96338967D01*
X114633428Y-96364735D01*
X114633818Y-96364271D01*
X114637453Y-96367321D01*
X114637681Y-96367468D01*
X114637962Y-96367749D01*
X114818346Y-96494056D01*
X115017924Y-96587120D01*
X115230629Y-96644115D01*
X115387322Y-96657823D01*
X115449998Y-96663307D01*
X115450000Y-96663307D01*
X115450002Y-96663307D01*
X115504842Y-96658509D01*
X115669371Y-96644115D01*
X115882076Y-96587120D01*
X116081654Y-96494056D01*
X116262038Y-96367749D01*
X116417749Y-96212038D01*
X116544056Y-96031654D01*
X116637120Y-95832076D01*
X116694115Y-95619371D01*
X116709516Y-95443333D01*
X116713307Y-95400002D01*
X116713307Y-95399997D01*
X116694115Y-95180634D01*
X116694115Y-95180629D01*
X116637120Y-94967924D01*
X116544056Y-94768347D01*
X116544054Y-94768344D01*
X116544053Y-94768342D01*
X116457068Y-94644115D01*
X116417749Y-94587962D01*
X116317468Y-94487681D01*
X116283983Y-94426358D01*
X116288967Y-94356666D01*
X116317468Y-94312319D01*
X116350000Y-94279787D01*
X116417749Y-94212038D01*
X116544056Y-94031654D01*
X116637120Y-93832076D01*
X116694115Y-93619371D01*
X116713307Y-93400000D01*
X116694115Y-93180629D01*
X116637120Y-92967924D01*
X116544056Y-92768347D01*
X116480925Y-92678186D01*
X116458598Y-92611980D01*
X116458500Y-92607063D01*
X116458500Y-91249500D01*
X120736496Y-91249500D01*
X120756458Y-91439428D01*
X120756459Y-91439431D01*
X120815470Y-91621049D01*
X120815473Y-91621056D01*
X120910960Y-91786444D01*
X121038747Y-91928366D01*
X121193248Y-92040618D01*
X121367712Y-92118294D01*
X121554513Y-92158000D01*
X121745487Y-92158000D01*
X121932288Y-92118294D01*
X122106752Y-92040618D01*
X122261253Y-91928366D01*
X122389040Y-91786444D01*
X122484527Y-91621056D01*
X122543542Y-91439428D01*
X122563504Y-91249500D01*
X122543542Y-91059572D01*
X122484527Y-90877944D01*
X122425111Y-90775033D01*
X122408500Y-90713035D01*
X122408500Y-89736463D01*
X122425113Y-89674463D01*
X122484527Y-89571556D01*
X122543542Y-89389928D01*
X122563504Y-89200000D01*
X122543542Y-89010072D01*
X122484527Y-88828444D01*
X122389040Y-88663056D01*
X122261253Y-88521134D01*
X122106752Y-88408882D01*
X121932288Y-88331206D01*
X121932286Y-88331205D01*
X121745487Y-88291500D01*
X121554513Y-88291500D01*
X121367714Y-88331205D01*
X121193246Y-88408883D01*
X121038745Y-88521135D01*
X120910959Y-88663057D01*
X120815473Y-88828443D01*
X120815470Y-88828450D01*
X120756459Y-89010068D01*
X120756458Y-89010072D01*
X120736496Y-89200000D01*
X120756458Y-89389928D01*
X120756459Y-89389931D01*
X120815470Y-89571549D01*
X120815473Y-89571556D01*
X120874887Y-89674463D01*
X120891500Y-89736463D01*
X120891500Y-90713035D01*
X120874888Y-90775033D01*
X120818097Y-90873400D01*
X120815472Y-90877946D01*
X120815470Y-90877950D01*
X120783985Y-90974852D01*
X120756458Y-91059572D01*
X120736496Y-91249500D01*
X116458500Y-91249500D01*
X116458500Y-88219096D01*
X116478185Y-88152057D01*
X116494819Y-88131415D01*
X119775934Y-84850299D01*
X119780424Y-84846229D01*
X119816568Y-84816568D01*
X119942595Y-84663004D01*
X120035543Y-84489108D01*
X120036193Y-84487962D01*
X120036241Y-84487804D01*
X120036242Y-84487803D01*
X120093909Y-84297700D01*
X120111377Y-84120345D01*
X120137538Y-84055559D01*
X120194572Y-84015200D01*
X120234780Y-84008500D01*
X124747404Y-84008500D01*
X124753485Y-84008799D01*
X124767051Y-84010134D01*
X124800000Y-84013380D01*
X124997701Y-83993908D01*
X125187804Y-83936241D01*
X125363004Y-83842595D01*
X125516568Y-83716568D01*
X125642595Y-83563004D01*
X125736241Y-83387804D01*
X125793908Y-83197701D01*
X125813380Y-83000000D01*
X125793908Y-82802299D01*
X125736241Y-82612196D01*
X125736239Y-82612193D01*
X125736239Y-82612191D01*
X125642598Y-82437001D01*
X125642594Y-82436994D01*
X125516568Y-82283431D01*
X125363005Y-82157405D01*
X125362998Y-82157401D01*
X125187808Y-82063760D01*
X125092752Y-82034925D01*
X124997701Y-82006092D01*
X124997699Y-82006091D01*
X124997701Y-82006091D01*
X124817725Y-81988365D01*
X124800000Y-81986620D01*
X124799999Y-81986620D01*
X124753485Y-81991201D01*
X124747404Y-81991500D01*
X120232500Y-81991500D01*
X120165461Y-81971815D01*
X120119706Y-81919011D01*
X120108500Y-81867500D01*
X120108500Y-75269095D01*
X120128185Y-75202056D01*
X120144814Y-75181419D01*
X123375944Y-71950288D01*
X123380413Y-71946238D01*
X123416568Y-71916568D01*
X123542595Y-71763004D01*
X123636241Y-71587804D01*
X123662173Y-71502319D01*
X123693909Y-71397701D01*
X123713380Y-71200000D01*
X123693909Y-71002299D01*
X123636241Y-70812196D01*
X123556900Y-70663759D01*
X123542595Y-70636996D01*
X123517232Y-70606091D01*
X123416568Y-70483431D01*
X123263005Y-70357405D01*
X123262998Y-70357401D01*
X123087805Y-70263759D01*
X122897703Y-70206091D01*
X122700000Y-70186620D01*
X122502296Y-70206091D01*
X122356442Y-70250337D01*
X122312191Y-70263760D01*
X122137001Y-70357401D01*
X122136994Y-70357405D01*
X121983431Y-70483432D01*
X121953775Y-70519567D01*
X121949687Y-70524077D01*
X119187680Y-73286084D01*
X119126357Y-73319569D01*
X119056665Y-73314585D01*
X119012318Y-73286084D01*
X117960593Y-72234359D01*
X116650301Y-70924067D01*
X116646222Y-70919566D01*
X116616567Y-70883430D01*
X116463005Y-70757405D01*
X116462998Y-70757401D01*
X116287805Y-70663759D01*
X116097703Y-70606091D01*
X115965900Y-70593110D01*
X115900000Y-70586620D01*
X115899999Y-70586620D01*
X115853482Y-70591201D01*
X115847402Y-70591500D01*
X111269096Y-70591500D01*
X111202057Y-70571815D01*
X111181415Y-70555181D01*
X109164819Y-68538585D01*
X109131334Y-68477262D01*
X109128500Y-68450904D01*
X109128500Y-65709964D01*
X109148185Y-65642925D01*
X109171971Y-65615672D01*
X109189959Y-65600309D01*
X109189960Y-65600307D01*
X109189969Y-65600300D01*
X109344176Y-65419747D01*
X109399273Y-65329838D01*
X109451085Y-65282963D01*
X109520014Y-65271540D01*
X109584177Y-65299197D01*
X109610727Y-65329838D01*
X109665820Y-65419741D01*
X109665821Y-65419744D01*
X109665824Y-65419747D01*
X109820031Y-65600300D01*
X109906531Y-65674178D01*
X110000586Y-65754509D01*
X110000589Y-65754510D01*
X110203037Y-65878571D01*
X110203040Y-65878573D01*
X110422403Y-65969435D01*
X110422404Y-65969435D01*
X110422406Y-65969436D01*
X110653289Y-66024866D01*
X110890000Y-66043496D01*
X111126711Y-66024866D01*
X111357594Y-65969436D01*
X111357596Y-65969435D01*
X111357597Y-65969435D01*
X111576959Y-65878573D01*
X111576960Y-65878572D01*
X111576963Y-65878571D01*
X111779416Y-65754507D01*
X111959969Y-65600300D01*
X112114176Y-65419747D01*
X112169273Y-65329838D01*
X112221085Y-65282963D01*
X112290014Y-65271540D01*
X112354177Y-65299197D01*
X112380727Y-65329838D01*
X112435820Y-65419741D01*
X112435821Y-65419744D01*
X112435824Y-65419747D01*
X112590031Y-65600300D01*
X112676531Y-65674178D01*
X112770586Y-65754509D01*
X112770589Y-65754510D01*
X112973037Y-65878571D01*
X112973040Y-65878573D01*
X113192403Y-65969435D01*
X113192404Y-65969435D01*
X113192406Y-65969436D01*
X113423289Y-66024866D01*
X113660000Y-66043496D01*
X113896711Y-66024866D01*
X114127594Y-65969436D01*
X114127596Y-65969435D01*
X114127597Y-65969435D01*
X114346959Y-65878573D01*
X114346960Y-65878572D01*
X114346963Y-65878571D01*
X114549416Y-65754507D01*
X114729969Y-65600300D01*
X114884176Y-65419747D01*
X114939273Y-65329838D01*
X114991085Y-65282963D01*
X115060014Y-65271540D01*
X115124177Y-65299197D01*
X115150727Y-65329838D01*
X115205820Y-65419741D01*
X115205821Y-65419744D01*
X115205824Y-65419747D01*
X115360031Y-65600300D01*
X115446531Y-65674178D01*
X115540586Y-65754509D01*
X115540589Y-65754510D01*
X115743037Y-65878571D01*
X115743040Y-65878573D01*
X115962403Y-65969435D01*
X115962404Y-65969435D01*
X115962406Y-65969436D01*
X116193289Y-66024866D01*
X116430000Y-66043496D01*
X116666711Y-66024866D01*
X116897594Y-65969436D01*
X116897596Y-65969435D01*
X116897597Y-65969435D01*
X117116959Y-65878573D01*
X117116960Y-65878572D01*
X117116963Y-65878571D01*
X117319416Y-65754507D01*
X117499969Y-65600300D01*
X117654176Y-65419747D01*
X117709273Y-65329838D01*
X117761085Y-65282963D01*
X117830014Y-65271540D01*
X117894177Y-65299197D01*
X117920727Y-65329838D01*
X117975820Y-65419741D01*
X117975821Y-65419744D01*
X117975824Y-65419747D01*
X118130031Y-65600300D01*
X118216531Y-65674178D01*
X118310586Y-65754509D01*
X118310588Y-65754510D01*
X118423896Y-65823945D01*
X118470771Y-65875756D01*
X118482194Y-65944686D01*
X118454537Y-66008849D01*
X118396581Y-66047874D01*
X118326728Y-66049370D01*
X118308673Y-66042953D01*
X118296180Y-66037391D01*
X118282288Y-66031206D01*
X118282286Y-66031205D01*
X118095487Y-65991500D01*
X117904513Y-65991500D01*
X117717714Y-66031205D01*
X117717712Y-66031206D01*
X117543253Y-66108880D01*
X117543246Y-66108883D01*
X117388745Y-66221135D01*
X117260959Y-66363057D01*
X117165473Y-66528443D01*
X117165470Y-66528450D01*
X117106459Y-66710068D01*
X117106458Y-66710072D01*
X117086496Y-66900000D01*
X117106458Y-67089928D01*
X117106459Y-67089931D01*
X117135458Y-67179182D01*
X117137453Y-67249024D01*
X117101372Y-67308856D01*
X117038671Y-67339684D01*
X117017527Y-67341500D01*
X116841937Y-67341500D01*
X116774898Y-67321815D01*
X116769051Y-67317818D01*
X116756750Y-67308880D01*
X116622308Y-67249024D01*
X116582288Y-67231206D01*
X116582286Y-67231205D01*
X116395487Y-67191500D01*
X116204513Y-67191500D01*
X116017714Y-67231205D01*
X116017712Y-67231206D01*
X115843253Y-67308880D01*
X115843246Y-67308883D01*
X115688745Y-67421135D01*
X115560959Y-67563057D01*
X115465473Y-67728443D01*
X115465470Y-67728450D01*
X115406459Y-67910068D01*
X115406458Y-67910072D01*
X115386496Y-68100000D01*
X115406458Y-68289928D01*
X115406459Y-68289931D01*
X115465470Y-68471549D01*
X115465473Y-68471556D01*
X115560960Y-68636944D01*
X115688747Y-68778866D01*
X115843248Y-68891118D01*
X116017712Y-68968794D01*
X116204513Y-69008500D01*
X116395487Y-69008500D01*
X116582288Y-68968794D01*
X116756752Y-68891118D01*
X116769051Y-68882181D01*
X116834858Y-68858702D01*
X116841937Y-68858500D01*
X121958063Y-68858500D01*
X122025102Y-68878185D01*
X122030949Y-68882182D01*
X122043249Y-68891119D01*
X122108116Y-68919999D01*
X122217712Y-68968794D01*
X122404513Y-69008500D01*
X122595487Y-69008500D01*
X122782288Y-68968794D01*
X122956752Y-68891118D01*
X123111253Y-68778866D01*
X123239040Y-68636944D01*
X123334527Y-68471556D01*
X123393542Y-68289928D01*
X123413504Y-68100000D01*
X123393542Y-67910072D01*
X123334527Y-67728444D01*
X123239040Y-67563056D01*
X123111253Y-67421134D01*
X122956752Y-67308882D01*
X122782288Y-67231206D01*
X122782286Y-67231205D01*
X122595487Y-67191500D01*
X122404513Y-67191500D01*
X122217713Y-67231205D01*
X122217710Y-67231206D01*
X122156389Y-67258508D01*
X122087139Y-67267792D01*
X122023863Y-67238163D01*
X121986650Y-67179028D01*
X121987316Y-67109161D01*
X121988024Y-67106909D01*
X121993542Y-67089928D01*
X122013504Y-66900000D01*
X121993542Y-66710072D01*
X121934527Y-66528444D01*
X121839040Y-66363056D01*
X121711253Y-66221134D01*
X121556752Y-66108882D01*
X121382288Y-66031206D01*
X121382286Y-66031205D01*
X121195487Y-65991500D01*
X121004513Y-65991500D01*
X120817714Y-66031205D01*
X120643249Y-66108880D01*
X120630949Y-66117818D01*
X120565142Y-66141298D01*
X120558063Y-66141500D01*
X119875587Y-66141500D01*
X119808548Y-66121815D01*
X119762793Y-66069011D01*
X119752849Y-65999853D01*
X119781874Y-65936297D01*
X119828134Y-65902939D01*
X119886963Y-65878571D01*
X119976104Y-65823945D01*
X120089416Y-65754507D01*
X120269969Y-65600300D01*
X120424176Y-65419747D01*
X120548240Y-65217294D01*
X120585001Y-65128546D01*
X120639104Y-64997928D01*
X120639104Y-64997927D01*
X120639105Y-64997925D01*
X120694535Y-64767042D01*
X120713165Y-64530331D01*
X120694535Y-64293620D01*
X120639105Y-64062737D01*
X120639104Y-64062734D01*
X120639104Y-64062733D01*
X120548242Y-63843371D01*
X120548240Y-63843368D01*
X120424179Y-63640920D01*
X120424178Y-63640917D01*
X120280326Y-63472489D01*
X120269969Y-63460362D01*
X120114900Y-63327920D01*
X120089413Y-63306152D01*
X120089410Y-63306151D01*
X119886962Y-63182090D01*
X119886959Y-63182088D01*
X119667596Y-63091226D01*
X119436714Y-63035796D01*
X119200000Y-63017166D01*
X118963289Y-63035796D01*
X118963285Y-63035796D01*
X118963284Y-63035797D01*
X118907880Y-63049098D01*
X118838098Y-63045607D01*
X118781281Y-63004943D01*
X118755468Y-62940016D01*
X118768854Y-62871441D01*
X118798399Y-62834237D01*
X118884969Y-62760300D01*
X119039176Y-62579747D01*
X119163240Y-62377294D01*
X119200001Y-62288546D01*
X119254104Y-62157928D01*
X119254104Y-62157927D01*
X119254105Y-62157925D01*
X119309535Y-61927042D01*
X119328165Y-61690331D01*
X119309535Y-61453620D01*
X119254105Y-61222737D01*
X119254104Y-61222734D01*
X119254104Y-61222733D01*
X119163242Y-61003371D01*
X119163240Y-61003368D01*
X119039179Y-60800920D01*
X119039178Y-60800917D01*
X119004340Y-60760128D01*
X118884969Y-60620362D01*
X118765596Y-60518407D01*
X118704413Y-60466152D01*
X118704410Y-60466151D01*
X118501962Y-60342090D01*
X118501959Y-60342088D01*
X118282596Y-60251226D01*
X118051714Y-60195796D01*
X117815000Y-60177166D01*
X117578285Y-60195796D01*
X117347404Y-60251226D01*
X117347402Y-60251226D01*
X117128040Y-60342088D01*
X117128037Y-60342090D01*
X116925589Y-60466151D01*
X116925586Y-60466152D01*
X116745031Y-60620362D01*
X116590821Y-60800917D01*
X116590820Y-60800920D01*
X116535727Y-60890823D01*
X116483915Y-60937699D01*
X116414985Y-60949121D01*
X116350823Y-60921463D01*
X116324273Y-60890823D01*
X116269179Y-60800920D01*
X116269178Y-60800917D01*
X116234340Y-60760128D01*
X116114969Y-60620362D01*
X115995596Y-60518407D01*
X115934413Y-60466152D01*
X115934410Y-60466151D01*
X115731962Y-60342090D01*
X115731959Y-60342088D01*
X115512596Y-60251226D01*
X115281714Y-60195796D01*
X115045000Y-60177166D01*
X114808285Y-60195796D01*
X114577404Y-60251226D01*
X114577402Y-60251226D01*
X114358040Y-60342088D01*
X114358037Y-60342090D01*
X114155589Y-60466151D01*
X114155586Y-60466152D01*
X113975031Y-60620362D01*
X113820821Y-60800917D01*
X113820820Y-60800920D01*
X113760985Y-60898561D01*
X113709173Y-60945437D01*
X113640243Y-60956859D01*
X113576080Y-60929201D01*
X113551450Y-60901593D01*
X113498434Y-60820447D01*
X112758076Y-61560806D01*
X112734493Y-61480487D01*
X112656761Y-61359533D01*
X112548100Y-61265379D01*
X112417315Y-61205651D01*
X112407534Y-61204244D01*
X113145057Y-60466721D01*
X113145056Y-60466720D01*
X113098229Y-60430274D01*
X112879614Y-60311966D01*
X112879603Y-60311961D01*
X112644493Y-60231247D01*
X112399293Y-60190331D01*
X112150707Y-60190331D01*
X111905506Y-60231247D01*
X111670396Y-60311961D01*
X111670390Y-60311963D01*
X111451761Y-60430280D01*
X111404942Y-60466719D01*
X111404942Y-60466721D01*
X112142466Y-61204244D01*
X112132685Y-61205651D01*
X112001900Y-61265379D01*
X111893239Y-61359533D01*
X111815507Y-61480487D01*
X111791923Y-61560806D01*
X111051564Y-60820447D01*
X110998550Y-60901592D01*
X110945403Y-60946948D01*
X110876172Y-60956372D01*
X110812836Y-60926870D01*
X110789014Y-60898560D01*
X110729179Y-60800920D01*
X110729178Y-60800917D01*
X110694340Y-60760128D01*
X110574969Y-60620362D01*
X110455596Y-60518407D01*
X110394413Y-60466152D01*
X110394410Y-60466151D01*
X110191962Y-60342090D01*
X110191959Y-60342088D01*
X109972596Y-60251226D01*
X109741714Y-60195796D01*
X109505000Y-60177166D01*
X109268285Y-60195796D01*
X109037404Y-60251226D01*
X109037402Y-60251226D01*
X108818040Y-60342088D01*
X108818037Y-60342090D01*
X108615589Y-60466151D01*
X108615586Y-60466152D01*
X108435031Y-60620362D01*
X108280821Y-60800917D01*
X108280820Y-60800920D01*
X108156759Y-61003368D01*
X108156757Y-61003371D01*
X108065895Y-61222733D01*
X108065895Y-61222735D01*
X108010465Y-61453616D01*
X107991835Y-61690331D01*
X108010465Y-61927045D01*
X108065895Y-62157926D01*
X108065895Y-62157928D01*
X108156757Y-62377290D01*
X108156759Y-62377293D01*
X108280820Y-62579741D01*
X108280821Y-62579744D01*
X108280824Y-62579747D01*
X108435031Y-62760300D01*
X108521597Y-62834234D01*
X108559790Y-62892741D01*
X108560288Y-62962609D01*
X108522935Y-63021655D01*
X108459588Y-63051133D01*
X108412118Y-63049098D01*
X108356714Y-63035796D01*
X108120000Y-63017166D01*
X107883285Y-63035796D01*
X107652404Y-63091226D01*
X107652402Y-63091226D01*
X107433040Y-63182088D01*
X107433037Y-63182090D01*
X107230589Y-63306151D01*
X107230586Y-63306152D01*
X107050031Y-63460362D01*
X106895821Y-63640917D01*
X106895820Y-63640920D01*
X106771759Y-63843368D01*
X106771757Y-63843371D01*
X106680895Y-64062733D01*
X106680895Y-64062735D01*
X106625465Y-64293616D01*
X106606835Y-64530331D01*
X106625465Y-64767045D01*
X106680895Y-64997926D01*
X106680895Y-64997928D01*
X106771757Y-65217290D01*
X106771759Y-65217293D01*
X106895820Y-65419741D01*
X106895821Y-65419744D01*
X106895824Y-65419747D01*
X107050031Y-65600300D01*
X107050034Y-65600303D01*
X107050040Y-65600309D01*
X107068029Y-65615672D01*
X107106224Y-65674178D01*
X107111500Y-65709964D01*
X107111500Y-68867401D01*
X107111201Y-68873481D01*
X107106620Y-68919999D01*
X107126091Y-69117703D01*
X107183759Y-69307805D01*
X107277401Y-69482998D01*
X107277405Y-69483005D01*
X107403430Y-69636567D01*
X107439566Y-69666222D01*
X107444067Y-69670301D01*
X110049696Y-72275930D01*
X110053776Y-72280432D01*
X110083432Y-72316568D01*
X110236994Y-72442594D01*
X110237001Y-72442598D01*
X110412191Y-72536239D01*
X110412193Y-72536239D01*
X110412196Y-72536241D01*
X110602299Y-72593908D01*
X110602298Y-72593908D01*
X110620024Y-72595653D01*
X110800000Y-72613380D01*
X110833922Y-72610038D01*
X110846515Y-72608799D01*
X110852596Y-72608500D01*
X115430904Y-72608500D01*
X115497943Y-72628185D01*
X115518585Y-72644819D01*
X118055181Y-75181415D01*
X118088666Y-75242738D01*
X118091500Y-75269096D01*
X118091500Y-82947403D01*
X118091201Y-82953483D01*
X118086620Y-82999999D01*
X118091201Y-83046514D01*
X118091500Y-83052595D01*
X118091500Y-83630902D01*
X118071815Y-83697941D01*
X118055181Y-83718583D01*
X115537680Y-86236084D01*
X115476357Y-86269569D01*
X115406665Y-86264585D01*
X115362318Y-86236084D01*
X113062473Y-83936239D01*
X110620301Y-81494067D01*
X110616222Y-81489566D01*
X110586567Y-81453430D01*
X110433005Y-81327405D01*
X110432998Y-81327401D01*
X110257805Y-81233759D01*
X110067703Y-81176091D01*
X109935900Y-81163110D01*
X109870000Y-81156620D01*
X109869999Y-81156620D01*
X109823482Y-81161201D01*
X109817402Y-81161500D01*
X102008623Y-81161500D01*
X101941584Y-81141815D01*
X101932461Y-81135353D01*
X101795579Y-81028813D01*
X101795570Y-81028807D01*
X101759070Y-81009055D01*
X101709479Y-80959836D01*
X101694371Y-80891619D01*
X101718541Y-80826064D01*
X101759070Y-80790945D01*
X101759084Y-80790936D01*
X101795576Y-80771189D01*
X101973240Y-80632906D01*
X102125722Y-80467268D01*
X102248860Y-80278791D01*
X102339296Y-80072616D01*
X102394564Y-79854368D01*
X102413156Y-79630000D01*
X102394564Y-79405632D01*
X102339296Y-79187384D01*
X102248860Y-78981209D01*
X102125722Y-78792732D01*
X102125719Y-78792729D01*
X102125715Y-78792723D01*
X101973243Y-78627097D01*
X101973238Y-78627092D01*
X101795577Y-78488812D01*
X101795578Y-78488812D01*
X101795576Y-78488811D01*
X101759070Y-78469055D01*
X101709479Y-78419836D01*
X101694371Y-78351619D01*
X101718541Y-78286064D01*
X101759070Y-78250945D01*
X101759084Y-78250936D01*
X101795576Y-78231189D01*
X101973240Y-78092906D01*
X102125722Y-77927268D01*
X102248860Y-77738791D01*
X102339296Y-77532616D01*
X102394564Y-77314368D01*
X102413156Y-77090000D01*
X102394564Y-76865632D01*
X102339296Y-76647384D01*
X102248860Y-76441209D01*
X102125722Y-76252732D01*
X102125719Y-76252729D01*
X102125715Y-76252723D01*
X101973243Y-76087097D01*
X101973238Y-76087092D01*
X101795577Y-75948812D01*
X101795578Y-75948812D01*
X101795576Y-75948811D01*
X101759070Y-75929055D01*
X101709479Y-75879836D01*
X101694371Y-75811619D01*
X101718541Y-75746064D01*
X101759070Y-75710945D01*
X101759084Y-75710936D01*
X101795576Y-75691189D01*
X101973240Y-75552906D01*
X102072614Y-75444957D01*
X102125715Y-75387276D01*
X102125716Y-75387274D01*
X102125722Y-75387268D01*
X102248860Y-75198791D01*
X102339296Y-74992616D01*
X102394564Y-74774368D01*
X102413156Y-74550000D01*
X102398334Y-74371134D01*
X102394565Y-74325640D01*
X102394563Y-74325628D01*
X102339296Y-74107385D01*
X102248859Y-73901207D01*
X102125723Y-73712734D01*
X102125715Y-73712723D01*
X101973243Y-73547097D01*
X101973238Y-73547092D01*
X101795577Y-73408812D01*
X101795578Y-73408812D01*
X101795576Y-73408811D01*
X101759070Y-73389055D01*
X101709479Y-73339836D01*
X101694371Y-73271619D01*
X101718541Y-73206064D01*
X101759070Y-73170945D01*
X101759084Y-73170936D01*
X101795576Y-73151189D01*
X101973240Y-73012906D01*
X102125722Y-72847268D01*
X102140482Y-72824675D01*
X102193628Y-72779321D01*
X102244289Y-72768500D01*
X102564457Y-72768500D01*
X102631496Y-72788185D01*
X102652138Y-72804819D01*
X105388196Y-75540877D01*
X105399977Y-75554509D01*
X105414531Y-75574058D01*
X105444807Y-75599463D01*
X105455005Y-75608020D01*
X105458995Y-75611676D01*
X105464899Y-75617580D01*
X105490896Y-75638136D01*
X105550360Y-75688032D01*
X105550362Y-75688033D01*
X105556396Y-75692002D01*
X105556369Y-75692042D01*
X105562921Y-75696216D01*
X105562947Y-75696175D01*
X105569099Y-75699970D01*
X105631064Y-75728864D01*
X105639447Y-75732773D01*
X105708812Y-75767609D01*
X105708813Y-75767609D01*
X105708815Y-75767610D01*
X105715594Y-75770077D01*
X105715577Y-75770122D01*
X105722925Y-75772676D01*
X105722941Y-75772631D01*
X105729790Y-75774901D01*
X105729793Y-75774901D01*
X105729794Y-75774902D01*
X105805818Y-75790599D01*
X105881344Y-75808500D01*
X105881345Y-75808500D01*
X105881349Y-75808501D01*
X105888517Y-75809339D01*
X105888511Y-75809386D01*
X105896242Y-75810176D01*
X105896247Y-75810129D01*
X105903437Y-75810758D01*
X105903441Y-75810757D01*
X105903442Y-75810758D01*
X105981045Y-75808500D01*
X115108063Y-75808500D01*
X115175102Y-75828185D01*
X115180949Y-75832182D01*
X115193249Y-75841119D01*
X115260220Y-75870935D01*
X115367712Y-75918794D01*
X115554513Y-75958500D01*
X115745487Y-75958500D01*
X115932288Y-75918794D01*
X116106752Y-75841118D01*
X116261253Y-75728866D01*
X116389040Y-75586944D01*
X116484527Y-75421556D01*
X116543542Y-75239928D01*
X116563504Y-75050000D01*
X116543542Y-74860072D01*
X116484527Y-74678444D01*
X116389040Y-74513056D01*
X116261253Y-74371134D01*
X116106752Y-74258882D01*
X115932288Y-74181206D01*
X115932286Y-74181205D01*
X115745487Y-74141500D01*
X115554513Y-74141500D01*
X115367714Y-74181205D01*
X115193249Y-74258880D01*
X115180949Y-74267818D01*
X115115142Y-74291298D01*
X115108063Y-74291500D01*
X106335543Y-74291500D01*
X106268504Y-74271815D01*
X106247862Y-74255181D01*
X103511804Y-71519123D01*
X103500022Y-71505490D01*
X103485472Y-71485946D01*
X103485471Y-71485945D01*
X103485469Y-71485942D01*
X103484595Y-71485208D01*
X103444987Y-71451972D01*
X103440998Y-71448317D01*
X103435102Y-71442421D01*
X103435101Y-71442420D01*
X103409103Y-71421863D01*
X103349640Y-71371968D01*
X103349635Y-71371965D01*
X103343605Y-71367999D01*
X103343630Y-71367959D01*
X103337069Y-71363779D01*
X103337045Y-71363820D01*
X103330904Y-71360031D01*
X103260540Y-71327220D01*
X103191185Y-71292389D01*
X103184401Y-71289920D01*
X103184416Y-71289876D01*
X103177071Y-71287322D01*
X103177057Y-71287367D01*
X103170205Y-71285096D01*
X103132177Y-71277244D01*
X103094149Y-71269392D01*
X103018656Y-71251500D01*
X103018654Y-71251500D01*
X103018646Y-71251498D01*
X103011482Y-71250661D01*
X103011487Y-71250612D01*
X103003757Y-71249822D01*
X103003753Y-71249870D01*
X102996562Y-71249240D01*
X102918920Y-71251500D01*
X102244289Y-71251500D01*
X102177250Y-71231815D01*
X102140482Y-71195324D01*
X102125722Y-71172732D01*
X101974291Y-71008236D01*
X101943370Y-70945584D01*
X101951230Y-70876158D01*
X101995376Y-70822002D01*
X102022189Y-70808073D01*
X102142086Y-70763354D01*
X102142093Y-70763350D01*
X102257187Y-70677190D01*
X102257190Y-70677187D01*
X102343350Y-70562093D01*
X102343354Y-70562086D01*
X102393596Y-70427379D01*
X102393598Y-70427372D01*
X102399999Y-70367844D01*
X102400000Y-70367827D01*
X102400000Y-69720000D01*
X101483686Y-69720000D01*
X101509493Y-69679844D01*
X101550000Y-69541889D01*
X101550000Y-69398111D01*
X101509493Y-69260156D01*
X101483686Y-69220000D01*
X102400000Y-69220000D01*
X102400000Y-68572172D01*
X102399999Y-68572155D01*
X102393598Y-68512627D01*
X102393596Y-68512620D01*
X102343354Y-68377913D01*
X102343350Y-68377906D01*
X102257190Y-68262812D01*
X102257187Y-68262809D01*
X102142093Y-68176649D01*
X102142086Y-68176645D01*
X102007379Y-68126403D01*
X102007372Y-68126401D01*
X101947844Y-68120000D01*
X101300000Y-68120000D01*
X101300000Y-69034498D01*
X101192315Y-68985320D01*
X101085763Y-68970000D01*
X101014237Y-68970000D01*
X100907685Y-68985320D01*
X100800000Y-69034498D01*
X100800000Y-68120000D01*
X100152155Y-68120000D01*
X100092627Y-68126401D01*
X100092620Y-68126403D01*
X99957913Y-68176645D01*
X99957906Y-68176649D01*
X99842812Y-68262809D01*
X99842809Y-68262812D01*
X99756649Y-68377906D01*
X99756645Y-68377913D01*
X99706403Y-68512620D01*
X99706401Y-68512627D01*
X99700000Y-68572155D01*
X99700000Y-69220000D01*
X100616314Y-69220000D01*
X100590507Y-69260156D01*
X100550000Y-69398111D01*
X100550000Y-69541889D01*
X100590507Y-69679844D01*
X100616314Y-69720000D01*
X99700000Y-69720000D01*
X99700000Y-70367844D01*
X99706401Y-70427372D01*
X99706403Y-70427379D01*
X99756645Y-70562086D01*
X99756649Y-70562093D01*
X99842809Y-70677187D01*
X99842812Y-70677190D01*
X99957906Y-70763350D01*
X99957913Y-70763354D01*
X100077810Y-70808073D01*
X100133744Y-70849944D01*
X100158161Y-70915409D01*
X100143309Y-70983682D01*
X100125706Y-71008238D01*
X99974284Y-71172723D01*
X99974276Y-71172734D01*
X99851140Y-71361207D01*
X99760703Y-71567385D01*
X99705436Y-71785628D01*
X99705434Y-71785640D01*
X99686844Y-72009994D01*
X99686844Y-72010005D01*
X99705434Y-72234359D01*
X99705436Y-72234371D01*
X99760703Y-72452614D01*
X99851140Y-72658792D01*
X99974276Y-72847265D01*
X99974284Y-72847276D01*
X100126756Y-73012902D01*
X100126760Y-73012906D01*
X100304424Y-73151189D01*
X100304429Y-73151191D01*
X100304431Y-73151193D01*
X100340930Y-73170946D01*
X100390520Y-73220165D01*
X100405628Y-73288382D01*
X100381457Y-73353937D01*
X100340930Y-73389054D01*
X100304431Y-73408806D01*
X100304422Y-73408812D01*
X100126761Y-73547092D01*
X100126756Y-73547097D01*
X99974284Y-73712723D01*
X99974276Y-73712734D01*
X99851140Y-73901207D01*
X99760703Y-74107385D01*
X99705436Y-74325628D01*
X99705434Y-74325640D01*
X99686844Y-74549994D01*
X99686844Y-74550005D01*
X99705434Y-74774359D01*
X99705436Y-74774371D01*
X99760703Y-74992614D01*
X99851140Y-75198792D01*
X99974276Y-75387265D01*
X99974284Y-75387276D01*
X100126756Y-75552902D01*
X100126761Y-75552907D01*
X100185981Y-75599000D01*
X100304424Y-75691189D01*
X100304429Y-75691191D01*
X100304431Y-75691193D01*
X100340930Y-75710946D01*
X100390520Y-75760165D01*
X100405628Y-75828382D01*
X100381457Y-75893937D01*
X100340930Y-75929054D01*
X100304431Y-75948806D01*
X100304422Y-75948812D01*
X100126761Y-76087092D01*
X100126756Y-76087097D01*
X99974284Y-76252723D01*
X99974276Y-76252734D01*
X99851140Y-76441207D01*
X99760703Y-76647385D01*
X99705436Y-76865628D01*
X99705434Y-76865640D01*
X99686844Y-77089994D01*
X99686844Y-77090005D01*
X99705434Y-77314359D01*
X99705436Y-77314371D01*
X99760703Y-77532614D01*
X99851140Y-77738792D01*
X99974276Y-77927265D01*
X99974284Y-77927276D01*
X100126756Y-78092902D01*
X100126760Y-78092906D01*
X100304424Y-78231189D01*
X100304429Y-78231191D01*
X100304431Y-78231193D01*
X100340930Y-78250946D01*
X100390520Y-78300165D01*
X100405628Y-78368382D01*
X100381457Y-78433937D01*
X100340930Y-78469054D01*
X100304431Y-78488806D01*
X100304422Y-78488812D01*
X100126761Y-78627092D01*
X100126756Y-78627097D01*
X99974284Y-78792723D01*
X99974276Y-78792734D01*
X99851140Y-78981207D01*
X99760703Y-79187385D01*
X99705436Y-79405628D01*
X99705434Y-79405640D01*
X99686844Y-79629994D01*
X99686844Y-79630005D01*
X99705434Y-79854359D01*
X99705436Y-79854371D01*
X99760703Y-80072614D01*
X99851140Y-80278792D01*
X99974276Y-80467265D01*
X99974284Y-80467276D01*
X100126756Y-80632902D01*
X100126760Y-80632906D01*
X100304424Y-80771189D01*
X100304429Y-80771191D01*
X100304431Y-80771193D01*
X100340930Y-80790946D01*
X100390520Y-80840165D01*
X100405628Y-80908382D01*
X100381457Y-80973937D01*
X100340930Y-81009054D01*
X100304431Y-81028806D01*
X100304422Y-81028812D01*
X100126761Y-81167092D01*
X100126756Y-81167097D01*
X99974284Y-81332723D01*
X99974276Y-81332734D01*
X99851140Y-81521207D01*
X99760703Y-81727385D01*
X99705436Y-81945628D01*
X99705434Y-81945640D01*
X99686844Y-82169994D01*
X99686844Y-82170005D01*
X98100500Y-82170005D01*
X98100500Y-66074409D01*
X98120185Y-66007370D01*
X98172989Y-65961615D01*
X98242147Y-65951671D01*
X98298807Y-65975140D01*
X98413796Y-66061220D01*
X98550799Y-66112320D01*
X98578050Y-66115249D01*
X98611345Y-66118830D01*
X98611362Y-66118831D01*
X103708638Y-66118831D01*
X103708654Y-66118830D01*
X103735692Y-66115922D01*
X103769201Y-66112320D01*
X103906204Y-66061220D01*
X104023261Y-65973592D01*
X104110889Y-65856535D01*
X104161989Y-65719532D01*
X104166865Y-65674178D01*
X104168499Y-65658985D01*
X104168500Y-65658968D01*
X104168500Y-60561693D01*
X104168499Y-60561676D01*
X104165157Y-60530601D01*
X104161989Y-60501130D01*
X104148942Y-60466151D01*
X104135561Y-60430274D01*
X104110889Y-60364127D01*
X104023261Y-60247070D01*
X103906204Y-60159442D01*
X103870841Y-60146252D01*
X103769203Y-60108342D01*
X103708654Y-60101831D01*
X103708638Y-60101831D01*
X98611362Y-60101831D01*
X98611345Y-60101831D01*
X98550797Y-60108342D01*
X98550795Y-60108342D01*
X98413795Y-60159442D01*
X98298811Y-60245519D01*
X98233346Y-60269936D01*
X98165073Y-60255084D01*
X98115668Y-60205679D01*
X98100500Y-60146252D01*
X98100500Y-54024500D01*
X98120185Y-53957461D01*
X98172989Y-53911706D01*
X98224500Y-53900500D01*
X129075500Y-53900500D01*
X129142539Y-53920185D01*
G37*
%TD.AperFunction*%
%TD*%
M02*
