M48
; DRILL file {KiCad 7.0.9} date Sat Dec 16 22:44:10 2023
; FORMAT={-:-/ absolute / inch / decimal}
; #@! TF.CreationDate,2023-12-16T22:44:10+03:00
; #@! TF.GenerationSoftware,Kicad,Pcbnew,7.0.9
; #@! TF.FileFunction,Plated,1,2,PTH
FMAT,2
INCH
; #@! TA.AperFunction,Plated,PTH,ViaDrill
T1C0.0157
; #@! TA.AperFunction,Plated,PTH,ViaDrill
T2C0.0197
; #@! TA.AperFunction,Plated,PTH,ComponentDrill
T3C0.0197
; #@! TA.AperFunction,Plated,PTH,ComponentDrill
T4C0.0315
; #@! TA.AperFunction,Plated,PTH,ComponentDrill
T5C0.0394
; #@! TA.AperFunction,Plated,PTH,ComponentDrill
T6C0.1260
%
G90
G05
T1
X4.5315Y-2.7047
X4.5531Y-3.0846
X4.6457Y-2.6634
X4.7697Y-2.6614
X4.7894Y-3.8465
X4.8228Y-2.7047
X4.9173Y-3.8465
T2
X4.2087Y-3.365
X4.3248Y-3.6555
X4.4823Y-2.7894
X4.8583Y-2.7953
X4.9154Y-3.5
T4
X4.1081Y-3.7598
X4.2065Y-3.7598
T5
X3.9783Y-2.865
X3.9783Y-2.965
X3.9783Y-3.065
X3.9783Y-3.165
X3.9783Y-3.265
X3.9783Y-3.365
X4.2567Y-2.5406
X4.3112Y-2.4288
X4.3657Y-2.5406
X4.4203Y-2.4288
X4.4748Y-2.5406
X4.5293Y-2.4288
X4.5839Y-2.5406
X4.6384Y-2.4288
X4.6929Y-2.5406
T6
X3.9827Y-2.4847
X4.9669Y-2.4847
T3
G00X4.2382Y-4.2323
M15
G01X4.2382Y-4.1929
M16
G05
G00X4.4114Y-4.065
M15
G01X4.3957Y-4.065
M16
G05
G00X4.4114Y-4.1437
M15
G01X4.3957Y-4.1437
M16
G05
G00X4.4823Y-4.065
M15
G01X4.4665Y-4.065
M16
G05
G00X4.4823Y-4.1437
M15
G01X4.4665Y-4.1437
M16
G05
G00X4.5531Y-4.065
M15
G01X4.5374Y-4.065
M16
G05
G00X4.5531Y-4.1437
M15
G01X4.5374Y-4.1437
M16
G05
G00X4.7106Y-4.2323
M15
G01X4.7106Y-4.1929
M16
G05
T0
M30
