%TF.GenerationSoftware,KiCad,Pcbnew,7.0.9*%
%TF.CreationDate,2023-12-18T18:57:19+03:00*%
%TF.ProjectId,SMD2WII,534d4432-5749-4492-9e6b-696361645f70,rev?*%
%TF.SameCoordinates,Original*%
%TF.FileFunction,Soldermask,Top*%
%TF.FilePolarity,Negative*%
%FSLAX46Y46*%
G04 Gerber Fmt 4.6, Leading zero omitted, Abs format (unit mm)*
G04 Created by KiCad (PCBNEW 7.0.9) date 2023-12-18 18:57:19*
%MOMM*%
%LPD*%
G01*
G04 APERTURE LIST*
G04 Aperture macros list*
%AMRoundRect*
0 Rectangle with rounded corners*
0 $1 Rounding radius*
0 $2 $3 $4 $5 $6 $7 $8 $9 X,Y pos of 4 corners*
0 Add a 4 corners polygon primitive as box body*
4,1,4,$2,$3,$4,$5,$6,$7,$8,$9,$2,$3,0*
0 Add four circle primitives for the rounded corners*
1,1,$1+$1,$2,$3*
1,1,$1+$1,$4,$5*
1,1,$1+$1,$6,$7*
1,1,$1+$1,$8,$9*
0 Add four rect primitives between the rounded corners*
20,1,$1+$1,$2,$3,$4,$5,0*
20,1,$1+$1,$4,$5,$6,$7,0*
20,1,$1+$1,$6,$7,$8,$9,0*
20,1,$1+$1,$8,$9,$2,$3,0*%
%AMFreePoly0*
4,1,5,1.500000,-1.250000,-1.500000,-1.250000,-1.500000,1.250000,1.500000,1.250000,1.500000,-1.250000,1.500000,-1.250000,$1*%
G04 Aperture macros list end*
%ADD10R,1.600000X1.600000*%
%ADD11C,1.600000*%
%ADD12RoundRect,0.250000X-0.625000X0.400000X-0.625000X-0.400000X0.625000X-0.400000X0.625000X0.400000X0*%
%ADD13RoundRect,0.250000X0.625000X-0.400000X0.625000X0.400000X-0.625000X0.400000X-0.625000X-0.400000X0*%
%ADD14RoundRect,0.250000X-0.412500X-0.650000X0.412500X-0.650000X0.412500X0.650000X-0.412500X0.650000X0*%
%ADD15R,5.000000X5.000000*%
%ADD16C,2.000000*%
%ADD17RoundRect,0.250001X-0.624999X0.462499X-0.624999X-0.462499X0.624999X-0.462499X0.624999X0.462499X0*%
%ADD18FreePoly0,180.000000*%
%ADD19C,1.500000*%
%ADD20R,0.550000X1.600000*%
%ADD21R,1.600000X0.550000*%
%ADD22R,1.700000X1.700000*%
%ADD23O,1.700000X1.700000*%
G04 APERTURE END LIST*
D10*
%TO.C,C1*%
X104094888Y-91100000D03*
D11*
X106594888Y-91100000D03*
%TD*%
D12*
%TO.C,R5*%
X119700000Y-85350000D03*
X119700000Y-88450000D03*
%TD*%
D13*
%TO.C,R2*%
X124800000Y-88450000D03*
X124800000Y-85350000D03*
%TD*%
D12*
%TO.C,R3*%
X124900000Y-71200000D03*
X124900000Y-74300000D03*
%TD*%
D14*
%TO.C,C2*%
X103737500Y-85300000D03*
X106862500Y-85300000D03*
%TD*%
D15*
%TO.C,J2*%
X126160000Y-63110331D03*
X101160000Y-63110331D03*
D16*
X119200000Y-64530331D03*
X116430000Y-64530331D03*
X113660000Y-64530331D03*
X110890000Y-64530331D03*
X108120000Y-64530331D03*
X117815000Y-61690331D03*
X115045000Y-61690331D03*
X112275000Y-61690331D03*
X109505000Y-61690331D03*
%TD*%
D17*
%TO.C,D2*%
X116900000Y-85412500D03*
X116900000Y-88387500D03*
%TD*%
D18*
%TO.C,J1*%
X119650000Y-97150000D03*
X107650000Y-97150000D03*
D19*
X115450000Y-93400000D03*
X113650000Y-93400000D03*
X111850000Y-93400000D03*
X115450000Y-95400000D03*
X113650000Y-95400000D03*
X111850000Y-95400000D03*
%TD*%
D20*
%TO.C,U1*%
X116300000Y-71200000D03*
X115500000Y-71200000D03*
X114700000Y-71200000D03*
X113900000Y-71200000D03*
X113100000Y-71200000D03*
X112300000Y-71200000D03*
X111500000Y-71200000D03*
X110700000Y-71200000D03*
D21*
X109250000Y-72650000D03*
X109250000Y-73450000D03*
X109250000Y-74250000D03*
X109250000Y-75050000D03*
X109250000Y-75850000D03*
X109250000Y-76650000D03*
X109250000Y-77450000D03*
X109250000Y-78250000D03*
D20*
X110700000Y-79700000D03*
X111500000Y-79700000D03*
X112300000Y-79700000D03*
X113100000Y-79700000D03*
X113900000Y-79700000D03*
X114700000Y-79700000D03*
X115500000Y-79700000D03*
X116300000Y-79700000D03*
D21*
X117750000Y-78250000D03*
X117750000Y-77450000D03*
X117750000Y-76650000D03*
X117750000Y-75850000D03*
X117750000Y-75050000D03*
X117750000Y-74250000D03*
X117750000Y-73450000D03*
X117750000Y-72650000D03*
%TD*%
D13*
%TO.C,R1*%
X124800000Y-80750000D03*
X124800000Y-77650000D03*
%TD*%
D17*
%TO.C,D1*%
X111300000Y-85412500D03*
X111300000Y-88387500D03*
%TD*%
D22*
%TO.C,J3*%
X101050000Y-69470000D03*
D23*
X101050000Y-72010000D03*
X101050000Y-74550000D03*
X101050000Y-77090000D03*
X101050000Y-79630000D03*
X101050000Y-82170000D03*
%TD*%
D12*
%TO.C,R4*%
X114100000Y-85350000D03*
X114100000Y-88450000D03*
%TD*%
M02*
