%TF.GenerationSoftware,KiCad,Pcbnew,7.0.9*%
%TF.CreationDate,2023-12-16T22:44:04+03:00*%
%TF.ProjectId,SMD2WII,534d4432-5749-4492-9e6b-696361645f70,rev?*%
%TF.SameCoordinates,Original*%
%TF.FileFunction,Legend,Bot*%
%TF.FilePolarity,Positive*%
%FSLAX46Y46*%
G04 Gerber Fmt 4.6, Leading zero omitted, Abs format (unit mm)*
G04 Created by KiCad (PCBNEW 7.0.9) date 2023-12-16 22:44:04*
%MOMM*%
%LPD*%
G01*
G04 APERTURE LIST*
%ADD10C,0.300000*%
%ADD11C,0.100000*%
G04 APERTURE END LIST*
D10*
X123531203Y-75874400D02*
X123102632Y-76017257D01*
X123102632Y-76017257D02*
X122388346Y-76017257D01*
X122388346Y-76017257D02*
X122102632Y-75874400D01*
X122102632Y-75874400D02*
X121959774Y-75731542D01*
X121959774Y-75731542D02*
X121816917Y-75445828D01*
X121816917Y-75445828D02*
X121816917Y-75160114D01*
X121816917Y-75160114D02*
X121959774Y-74874400D01*
X121959774Y-74874400D02*
X122102632Y-74731542D01*
X122102632Y-74731542D02*
X122388346Y-74588685D01*
X122388346Y-74588685D02*
X122959774Y-74445828D01*
X122959774Y-74445828D02*
X123245489Y-74302971D01*
X123245489Y-74302971D02*
X123388346Y-74160114D01*
X123388346Y-74160114D02*
X123531203Y-73874400D01*
X123531203Y-73874400D02*
X123531203Y-73588685D01*
X123531203Y-73588685D02*
X123388346Y-73302971D01*
X123388346Y-73302971D02*
X123245489Y-73160114D01*
X123245489Y-73160114D02*
X122959774Y-73017257D01*
X122959774Y-73017257D02*
X122245489Y-73017257D01*
X122245489Y-73017257D02*
X121816917Y-73160114D01*
X120531203Y-76017257D02*
X120531203Y-73017257D01*
X120531203Y-73017257D02*
X119531203Y-75160114D01*
X119531203Y-75160114D02*
X118531203Y-73017257D01*
X118531203Y-73017257D02*
X118531203Y-76017257D01*
X117102632Y-76017257D02*
X117102632Y-73017257D01*
X117102632Y-73017257D02*
X116388346Y-73017257D01*
X116388346Y-73017257D02*
X115959775Y-73160114D01*
X115959775Y-73160114D02*
X115674060Y-73445828D01*
X115674060Y-73445828D02*
X115531203Y-73731542D01*
X115531203Y-73731542D02*
X115388346Y-74302971D01*
X115388346Y-74302971D02*
X115388346Y-74731542D01*
X115388346Y-74731542D02*
X115531203Y-75302971D01*
X115531203Y-75302971D02*
X115674060Y-75588685D01*
X115674060Y-75588685D02*
X115959775Y-75874400D01*
X115959775Y-75874400D02*
X116388346Y-76017257D01*
X116388346Y-76017257D02*
X117102632Y-76017257D01*
X114245489Y-73302971D02*
X114102632Y-73160114D01*
X114102632Y-73160114D02*
X113816918Y-73017257D01*
X113816918Y-73017257D02*
X113102632Y-73017257D01*
X113102632Y-73017257D02*
X112816918Y-73160114D01*
X112816918Y-73160114D02*
X112674060Y-73302971D01*
X112674060Y-73302971D02*
X112531203Y-73588685D01*
X112531203Y-73588685D02*
X112531203Y-73874400D01*
X112531203Y-73874400D02*
X112674060Y-74302971D01*
X112674060Y-74302971D02*
X114388346Y-76017257D01*
X114388346Y-76017257D02*
X112531203Y-76017257D01*
X111531203Y-73017257D02*
X110816917Y-76017257D01*
X110816917Y-76017257D02*
X110245489Y-73874400D01*
X110245489Y-73874400D02*
X109674060Y-76017257D01*
X109674060Y-76017257D02*
X108959775Y-73017257D01*
X107816918Y-76017257D02*
X107816918Y-74017257D01*
X107816918Y-73017257D02*
X107959775Y-73160114D01*
X107959775Y-73160114D02*
X107816918Y-73302971D01*
X107816918Y-73302971D02*
X107674061Y-73160114D01*
X107674061Y-73160114D02*
X107816918Y-73017257D01*
X107816918Y-73017257D02*
X107816918Y-73302971D01*
X106388347Y-76017257D02*
X106388347Y-74017257D01*
X106388347Y-73017257D02*
X106531204Y-73160114D01*
X106531204Y-73160114D02*
X106388347Y-73302971D01*
X106388347Y-73302971D02*
X106245490Y-73160114D01*
X106245490Y-73160114D02*
X106388347Y-73017257D01*
X106388347Y-73017257D02*
X106388347Y-73302971D01*
D11*
X123634211Y-80803014D02*
X123634211Y-81410157D01*
X123634211Y-81410157D02*
X123669925Y-81481585D01*
X123669925Y-81481585D02*
X123705639Y-81517300D01*
X123705639Y-81517300D02*
X123777068Y-81553014D01*
X123777068Y-81553014D02*
X123884211Y-81553014D01*
X123884211Y-81553014D02*
X123955639Y-81517300D01*
X123634211Y-81267300D02*
X123705639Y-81303014D01*
X123705639Y-81303014D02*
X123848496Y-81303014D01*
X123848496Y-81303014D02*
X123919925Y-81267300D01*
X123919925Y-81267300D02*
X123955639Y-81231585D01*
X123955639Y-81231585D02*
X123991353Y-81160157D01*
X123991353Y-81160157D02*
X123991353Y-80945871D01*
X123991353Y-80945871D02*
X123955639Y-80874442D01*
X123955639Y-80874442D02*
X123919925Y-80838728D01*
X123919925Y-80838728D02*
X123848496Y-80803014D01*
X123848496Y-80803014D02*
X123705639Y-80803014D01*
X123705639Y-80803014D02*
X123634211Y-80838728D01*
X123277068Y-81303014D02*
X123277068Y-80803014D01*
X123277068Y-80553014D02*
X123312782Y-80588728D01*
X123312782Y-80588728D02*
X123277068Y-80624442D01*
X123277068Y-80624442D02*
X123241354Y-80588728D01*
X123241354Y-80588728D02*
X123277068Y-80553014D01*
X123277068Y-80553014D02*
X123277068Y-80624442D01*
X123027068Y-80803014D02*
X122741354Y-80803014D01*
X122919925Y-80553014D02*
X122919925Y-81195871D01*
X122919925Y-81195871D02*
X122884211Y-81267300D01*
X122884211Y-81267300D02*
X122812782Y-81303014D01*
X122812782Y-81303014D02*
X122741354Y-81303014D01*
X122491354Y-81303014D02*
X122491354Y-80553014D01*
X122169926Y-81303014D02*
X122169926Y-80910157D01*
X122169926Y-80910157D02*
X122205640Y-80838728D01*
X122205640Y-80838728D02*
X122277068Y-80803014D01*
X122277068Y-80803014D02*
X122384211Y-80803014D01*
X122384211Y-80803014D02*
X122455640Y-80838728D01*
X122455640Y-80838728D02*
X122491354Y-80874442D01*
X121491355Y-80803014D02*
X121491355Y-81303014D01*
X121812783Y-80803014D02*
X121812783Y-81195871D01*
X121812783Y-81195871D02*
X121777069Y-81267300D01*
X121777069Y-81267300D02*
X121705640Y-81303014D01*
X121705640Y-81303014D02*
X121598497Y-81303014D01*
X121598497Y-81303014D02*
X121527069Y-81267300D01*
X121527069Y-81267300D02*
X121491355Y-81231585D01*
X121134212Y-81303014D02*
X121134212Y-80553014D01*
X121134212Y-80838728D02*
X121062784Y-80803014D01*
X121062784Y-80803014D02*
X120919926Y-80803014D01*
X120919926Y-80803014D02*
X120848498Y-80838728D01*
X120848498Y-80838728D02*
X120812784Y-80874442D01*
X120812784Y-80874442D02*
X120777069Y-80945871D01*
X120777069Y-80945871D02*
X120777069Y-81160157D01*
X120777069Y-81160157D02*
X120812784Y-81231585D01*
X120812784Y-81231585D02*
X120848498Y-81267300D01*
X120848498Y-81267300D02*
X120919926Y-81303014D01*
X120919926Y-81303014D02*
X121062784Y-81303014D01*
X121062784Y-81303014D02*
X121134212Y-81267300D01*
X120455641Y-81231585D02*
X120419927Y-81267300D01*
X120419927Y-81267300D02*
X120455641Y-81303014D01*
X120455641Y-81303014D02*
X120491355Y-81267300D01*
X120491355Y-81267300D02*
X120455641Y-81231585D01*
X120455641Y-81231585D02*
X120455641Y-81303014D01*
X119777070Y-81267300D02*
X119848498Y-81303014D01*
X119848498Y-81303014D02*
X119991355Y-81303014D01*
X119991355Y-81303014D02*
X120062784Y-81267300D01*
X120062784Y-81267300D02*
X120098498Y-81231585D01*
X120098498Y-81231585D02*
X120134212Y-81160157D01*
X120134212Y-81160157D02*
X120134212Y-80945871D01*
X120134212Y-80945871D02*
X120098498Y-80874442D01*
X120098498Y-80874442D02*
X120062784Y-80838728D01*
X120062784Y-80838728D02*
X119991355Y-80803014D01*
X119991355Y-80803014D02*
X119848498Y-80803014D01*
X119848498Y-80803014D02*
X119777070Y-80838728D01*
X119348498Y-81303014D02*
X119419927Y-81267300D01*
X119419927Y-81267300D02*
X119455641Y-81231585D01*
X119455641Y-81231585D02*
X119491355Y-81160157D01*
X119491355Y-81160157D02*
X119491355Y-80945871D01*
X119491355Y-80945871D02*
X119455641Y-80874442D01*
X119455641Y-80874442D02*
X119419927Y-80838728D01*
X119419927Y-80838728D02*
X119348498Y-80803014D01*
X119348498Y-80803014D02*
X119241355Y-80803014D01*
X119241355Y-80803014D02*
X119169927Y-80838728D01*
X119169927Y-80838728D02*
X119134213Y-80874442D01*
X119134213Y-80874442D02*
X119098498Y-80945871D01*
X119098498Y-80945871D02*
X119098498Y-81160157D01*
X119098498Y-81160157D02*
X119134213Y-81231585D01*
X119134213Y-81231585D02*
X119169927Y-81267300D01*
X119169927Y-81267300D02*
X119241355Y-81303014D01*
X119241355Y-81303014D02*
X119348498Y-81303014D01*
X118777070Y-81303014D02*
X118777070Y-80803014D01*
X118777070Y-80874442D02*
X118741356Y-80838728D01*
X118741356Y-80838728D02*
X118669927Y-80803014D01*
X118669927Y-80803014D02*
X118562784Y-80803014D01*
X118562784Y-80803014D02*
X118491356Y-80838728D01*
X118491356Y-80838728D02*
X118455642Y-80910157D01*
X118455642Y-80910157D02*
X118455642Y-81303014D01*
X118455642Y-80910157D02*
X118419927Y-80838728D01*
X118419927Y-80838728D02*
X118348499Y-80803014D01*
X118348499Y-80803014D02*
X118241356Y-80803014D01*
X118241356Y-80803014D02*
X118169927Y-80838728D01*
X118169927Y-80838728D02*
X118134213Y-80910157D01*
X118134213Y-80910157D02*
X118134213Y-81303014D01*
X117241356Y-80517300D02*
X117884213Y-81481585D01*
X116991356Y-80803014D02*
X116991356Y-81553014D01*
X116991356Y-80838728D02*
X116919928Y-80803014D01*
X116919928Y-80803014D02*
X116777070Y-80803014D01*
X116777070Y-80803014D02*
X116705642Y-80838728D01*
X116705642Y-80838728D02*
X116669928Y-80874442D01*
X116669928Y-80874442D02*
X116634213Y-80945871D01*
X116634213Y-80945871D02*
X116634213Y-81160157D01*
X116634213Y-81160157D02*
X116669928Y-81231585D01*
X116669928Y-81231585D02*
X116705642Y-81267300D01*
X116705642Y-81267300D02*
X116777070Y-81303014D01*
X116777070Y-81303014D02*
X116919928Y-81303014D01*
X116919928Y-81303014D02*
X116991356Y-81267300D01*
X116312785Y-81303014D02*
X116312785Y-80803014D01*
X116312785Y-80945871D02*
X116277071Y-80874442D01*
X116277071Y-80874442D02*
X116241357Y-80838728D01*
X116241357Y-80838728D02*
X116169928Y-80803014D01*
X116169928Y-80803014D02*
X116098499Y-80803014D01*
X115741356Y-81303014D02*
X115812785Y-81267300D01*
X115812785Y-81267300D02*
X115848499Y-81231585D01*
X115848499Y-81231585D02*
X115884213Y-81160157D01*
X115884213Y-81160157D02*
X115884213Y-80945871D01*
X115884213Y-80945871D02*
X115848499Y-80874442D01*
X115848499Y-80874442D02*
X115812785Y-80838728D01*
X115812785Y-80838728D02*
X115741356Y-80803014D01*
X115741356Y-80803014D02*
X115634213Y-80803014D01*
X115634213Y-80803014D02*
X115562785Y-80838728D01*
X115562785Y-80838728D02*
X115527071Y-80874442D01*
X115527071Y-80874442D02*
X115491356Y-80945871D01*
X115491356Y-80945871D02*
X115491356Y-81160157D01*
X115491356Y-81160157D02*
X115527071Y-81231585D01*
X115527071Y-81231585D02*
X115562785Y-81267300D01*
X115562785Y-81267300D02*
X115634213Y-81303014D01*
X115634213Y-81303014D02*
X115741356Y-81303014D01*
X115169928Y-81303014D02*
X115169928Y-80553014D01*
X115169928Y-80838728D02*
X115098500Y-80803014D01*
X115098500Y-80803014D02*
X114955642Y-80803014D01*
X114955642Y-80803014D02*
X114884214Y-80838728D01*
X114884214Y-80838728D02*
X114848500Y-80874442D01*
X114848500Y-80874442D02*
X114812785Y-80945871D01*
X114812785Y-80945871D02*
X114812785Y-81160157D01*
X114812785Y-81160157D02*
X114848500Y-81231585D01*
X114848500Y-81231585D02*
X114884214Y-81267300D01*
X114884214Y-81267300D02*
X114955642Y-81303014D01*
X114955642Y-81303014D02*
X115098500Y-81303014D01*
X115098500Y-81303014D02*
X115169928Y-81267300D01*
X114384214Y-81303014D02*
X114455643Y-81267300D01*
X114455643Y-81267300D02*
X114491357Y-81231585D01*
X114491357Y-81231585D02*
X114527071Y-81160157D01*
X114527071Y-81160157D02*
X114527071Y-80945871D01*
X114527071Y-80945871D02*
X114491357Y-80874442D01*
X114491357Y-80874442D02*
X114455643Y-80838728D01*
X114455643Y-80838728D02*
X114384214Y-80803014D01*
X114384214Y-80803014D02*
X114277071Y-80803014D01*
X114277071Y-80803014D02*
X114205643Y-80838728D01*
X114205643Y-80838728D02*
X114169929Y-80874442D01*
X114169929Y-80874442D02*
X114134214Y-80945871D01*
X114134214Y-80945871D02*
X114134214Y-81160157D01*
X114134214Y-81160157D02*
X114169929Y-81231585D01*
X114169929Y-81231585D02*
X114205643Y-81267300D01*
X114205643Y-81267300D02*
X114277071Y-81303014D01*
X114277071Y-81303014D02*
X114384214Y-81303014D01*
X113919929Y-80803014D02*
X113634215Y-80803014D01*
X113812786Y-80553014D02*
X113812786Y-81195871D01*
X113812786Y-81195871D02*
X113777072Y-81267300D01*
X113777072Y-81267300D02*
X113705643Y-81303014D01*
X113705643Y-81303014D02*
X113634215Y-81303014D01*
X113098501Y-81267300D02*
X113169929Y-81303014D01*
X113169929Y-81303014D02*
X113312787Y-81303014D01*
X113312787Y-81303014D02*
X113384215Y-81267300D01*
X113384215Y-81267300D02*
X113419929Y-81195871D01*
X113419929Y-81195871D02*
X113419929Y-80910157D01*
X113419929Y-80910157D02*
X113384215Y-80838728D01*
X113384215Y-80838728D02*
X113312787Y-80803014D01*
X113312787Y-80803014D02*
X113169929Y-80803014D01*
X113169929Y-80803014D02*
X113098501Y-80838728D01*
X113098501Y-80838728D02*
X113062787Y-80910157D01*
X113062787Y-80910157D02*
X113062787Y-80981585D01*
X113062787Y-80981585D02*
X113419929Y-81053014D01*
X112741358Y-81303014D02*
X112741358Y-80803014D01*
X112741358Y-80945871D02*
X112705644Y-80874442D01*
X112705644Y-80874442D02*
X112669930Y-80838728D01*
X112669930Y-80838728D02*
X112598501Y-80803014D01*
X112598501Y-80803014D02*
X112527072Y-80803014D01*
X112277072Y-81303014D02*
X112277072Y-80803014D01*
X112277072Y-80945871D02*
X112241358Y-80874442D01*
X112241358Y-80874442D02*
X112205644Y-80838728D01*
X112205644Y-80838728D02*
X112134215Y-80803014D01*
X112134215Y-80803014D02*
X112062786Y-80803014D01*
X111705643Y-81303014D02*
X111777072Y-81267300D01*
X111777072Y-81267300D02*
X111812786Y-81231585D01*
X111812786Y-81231585D02*
X111848500Y-81160157D01*
X111848500Y-81160157D02*
X111848500Y-80945871D01*
X111848500Y-80945871D02*
X111812786Y-80874442D01*
X111812786Y-80874442D02*
X111777072Y-80838728D01*
X111777072Y-80838728D02*
X111705643Y-80803014D01*
X111705643Y-80803014D02*
X111598500Y-80803014D01*
X111598500Y-80803014D02*
X111527072Y-80838728D01*
X111527072Y-80838728D02*
X111491358Y-80874442D01*
X111491358Y-80874442D02*
X111455643Y-80945871D01*
X111455643Y-80945871D02*
X111455643Y-81160157D01*
X111455643Y-81160157D02*
X111491358Y-81231585D01*
X111491358Y-81231585D02*
X111527072Y-81267300D01*
X111527072Y-81267300D02*
X111598500Y-81303014D01*
X111598500Y-81303014D02*
X111705643Y-81303014D01*
X111134215Y-81303014D02*
X111134215Y-80803014D01*
X111134215Y-80945871D02*
X111098501Y-80874442D01*
X111098501Y-80874442D02*
X111062787Y-80838728D01*
X111062787Y-80838728D02*
X110991358Y-80803014D01*
X110991358Y-80803014D02*
X110919929Y-80803014D01*
X110134215Y-80517300D02*
X110777072Y-81481585D01*
X109919929Y-81267300D02*
X109848501Y-81303014D01*
X109848501Y-81303014D02*
X109705644Y-81303014D01*
X109705644Y-81303014D02*
X109634215Y-81267300D01*
X109634215Y-81267300D02*
X109598501Y-81195871D01*
X109598501Y-81195871D02*
X109598501Y-81160157D01*
X109598501Y-81160157D02*
X109634215Y-81088728D01*
X109634215Y-81088728D02*
X109705644Y-81053014D01*
X109705644Y-81053014D02*
X109812787Y-81053014D01*
X109812787Y-81053014D02*
X109884215Y-81017300D01*
X109884215Y-81017300D02*
X109919929Y-80945871D01*
X109919929Y-80945871D02*
X109919929Y-80910157D01*
X109919929Y-80910157D02*
X109884215Y-80838728D01*
X109884215Y-80838728D02*
X109812787Y-80803014D01*
X109812787Y-80803014D02*
X109705644Y-80803014D01*
X109705644Y-80803014D02*
X109634215Y-80838728D01*
X109277072Y-81303014D02*
X109277072Y-80803014D01*
X109277072Y-80874442D02*
X109241358Y-80838728D01*
X109241358Y-80838728D02*
X109169929Y-80803014D01*
X109169929Y-80803014D02*
X109062786Y-80803014D01*
X109062786Y-80803014D02*
X108991358Y-80838728D01*
X108991358Y-80838728D02*
X108955644Y-80910157D01*
X108955644Y-80910157D02*
X108955644Y-81303014D01*
X108955644Y-80910157D02*
X108919929Y-80838728D01*
X108919929Y-80838728D02*
X108848501Y-80803014D01*
X108848501Y-80803014D02*
X108741358Y-80803014D01*
X108741358Y-80803014D02*
X108669929Y-80838728D01*
X108669929Y-80838728D02*
X108634215Y-80910157D01*
X108634215Y-80910157D02*
X108634215Y-81303014D01*
X107955644Y-81303014D02*
X107955644Y-80553014D01*
X107955644Y-81267300D02*
X108027072Y-81303014D01*
X108027072Y-81303014D02*
X108169929Y-81303014D01*
X108169929Y-81303014D02*
X108241358Y-81267300D01*
X108241358Y-81267300D02*
X108277072Y-81231585D01*
X108277072Y-81231585D02*
X108312786Y-81160157D01*
X108312786Y-81160157D02*
X108312786Y-80945871D01*
X108312786Y-80945871D02*
X108277072Y-80874442D01*
X108277072Y-80874442D02*
X108241358Y-80838728D01*
X108241358Y-80838728D02*
X108169929Y-80803014D01*
X108169929Y-80803014D02*
X108027072Y-80803014D01*
X108027072Y-80803014D02*
X107955644Y-80838728D01*
X107634215Y-80624442D02*
X107598501Y-80588728D01*
X107598501Y-80588728D02*
X107527073Y-80553014D01*
X107527073Y-80553014D02*
X107348501Y-80553014D01*
X107348501Y-80553014D02*
X107277073Y-80588728D01*
X107277073Y-80588728D02*
X107241358Y-80624442D01*
X107241358Y-80624442D02*
X107205644Y-80695871D01*
X107205644Y-80695871D02*
X107205644Y-80767300D01*
X107205644Y-80767300D02*
X107241358Y-80874442D01*
X107241358Y-80874442D02*
X107669930Y-81303014D01*
X107669930Y-81303014D02*
X107205644Y-81303014D01*
X106955644Y-80803014D02*
X106812787Y-81303014D01*
X106812787Y-81303014D02*
X106669929Y-80945871D01*
X106669929Y-80945871D02*
X106527072Y-81303014D01*
X106527072Y-81303014D02*
X106384215Y-80803014D01*
X106098501Y-81303014D02*
X106098501Y-80803014D01*
X106098501Y-80553014D02*
X106134215Y-80588728D01*
X106134215Y-80588728D02*
X106098501Y-80624442D01*
X106098501Y-80624442D02*
X106062787Y-80588728D01*
X106062787Y-80588728D02*
X106098501Y-80553014D01*
X106098501Y-80553014D02*
X106098501Y-80624442D01*
X105741358Y-81303014D02*
X105741358Y-80803014D01*
X105741358Y-80553014D02*
X105777072Y-80588728D01*
X105777072Y-80588728D02*
X105741358Y-80624442D01*
X105741358Y-80624442D02*
X105705644Y-80588728D01*
X105705644Y-80588728D02*
X105741358Y-80553014D01*
X105741358Y-80553014D02*
X105741358Y-80624442D01*
M02*
