%TF.GenerationSoftware,KiCad,Pcbnew,7.0.9*%
%TF.CreationDate,2023-12-16T22:44:04+03:00*%
%TF.ProjectId,SMD2WII,534d4432-5749-4492-9e6b-696361645f70,rev?*%
%TF.SameCoordinates,Original*%
%TF.FileFunction,Legend,Top*%
%TF.FilePolarity,Positive*%
%FSLAX46Y46*%
G04 Gerber Fmt 4.6, Leading zero omitted, Abs format (unit mm)*
G04 Created by KiCad (PCBNEW 7.0.9) date 2023-12-16 22:44:04*
%MOMM*%
%LPD*%
G01*
G04 APERTURE LIST*
%ADD10C,0.150000*%
%ADD11C,0.120000*%
G04 APERTURE END LIST*
D10*
X103236779Y-80869819D02*
X103236779Y-79869819D01*
X103236779Y-79869819D02*
X103570112Y-80584104D01*
X103570112Y-80584104D02*
X103903445Y-79869819D01*
X103903445Y-79869819D02*
X103903445Y-80869819D01*
X104379636Y-80869819D02*
X104379636Y-79869819D01*
X104808207Y-80822200D02*
X104951064Y-80869819D01*
X104951064Y-80869819D02*
X105189159Y-80869819D01*
X105189159Y-80869819D02*
X105284397Y-80822200D01*
X105284397Y-80822200D02*
X105332016Y-80774580D01*
X105332016Y-80774580D02*
X105379635Y-80679342D01*
X105379635Y-80679342D02*
X105379635Y-80584104D01*
X105379635Y-80584104D02*
X105332016Y-80488866D01*
X105332016Y-80488866D02*
X105284397Y-80441247D01*
X105284397Y-80441247D02*
X105189159Y-80393628D01*
X105189159Y-80393628D02*
X104998683Y-80346009D01*
X104998683Y-80346009D02*
X104903445Y-80298390D01*
X104903445Y-80298390D02*
X104855826Y-80250771D01*
X104855826Y-80250771D02*
X104808207Y-80155533D01*
X104808207Y-80155533D02*
X104808207Y-80060295D01*
X104808207Y-80060295D02*
X104855826Y-79965057D01*
X104855826Y-79965057D02*
X104903445Y-79917438D01*
X104903445Y-79917438D02*
X104998683Y-79869819D01*
X104998683Y-79869819D02*
X105236778Y-79869819D01*
X105236778Y-79869819D02*
X105379635Y-79917438D01*
X105998683Y-79869819D02*
X106189159Y-79869819D01*
X106189159Y-79869819D02*
X106284397Y-79917438D01*
X106284397Y-79917438D02*
X106379635Y-80012676D01*
X106379635Y-80012676D02*
X106427254Y-80203152D01*
X106427254Y-80203152D02*
X106427254Y-80536485D01*
X106427254Y-80536485D02*
X106379635Y-80726961D01*
X106379635Y-80726961D02*
X106284397Y-80822200D01*
X106284397Y-80822200D02*
X106189159Y-80869819D01*
X106189159Y-80869819D02*
X105998683Y-80869819D01*
X105998683Y-80869819D02*
X105903445Y-80822200D01*
X105903445Y-80822200D02*
X105808207Y-80726961D01*
X105808207Y-80726961D02*
X105760588Y-80536485D01*
X105760588Y-80536485D02*
X105760588Y-80203152D01*
X105760588Y-80203152D02*
X105808207Y-80012676D01*
X105808207Y-80012676D02*
X105903445Y-79917438D01*
X105903445Y-79917438D02*
X105998683Y-79869819D01*
X103189160Y-83322200D02*
X103332017Y-83369819D01*
X103332017Y-83369819D02*
X103570112Y-83369819D01*
X103570112Y-83369819D02*
X103665350Y-83322200D01*
X103665350Y-83322200D02*
X103712969Y-83274580D01*
X103712969Y-83274580D02*
X103760588Y-83179342D01*
X103760588Y-83179342D02*
X103760588Y-83084104D01*
X103760588Y-83084104D02*
X103712969Y-82988866D01*
X103712969Y-82988866D02*
X103665350Y-82941247D01*
X103665350Y-82941247D02*
X103570112Y-82893628D01*
X103570112Y-82893628D02*
X103379636Y-82846009D01*
X103379636Y-82846009D02*
X103284398Y-82798390D01*
X103284398Y-82798390D02*
X103236779Y-82750771D01*
X103236779Y-82750771D02*
X103189160Y-82655533D01*
X103189160Y-82655533D02*
X103189160Y-82560295D01*
X103189160Y-82560295D02*
X103236779Y-82465057D01*
X103236779Y-82465057D02*
X103284398Y-82417438D01*
X103284398Y-82417438D02*
X103379636Y-82369819D01*
X103379636Y-82369819D02*
X103617731Y-82369819D01*
X103617731Y-82369819D02*
X103760588Y-82417438D01*
X104760588Y-83274580D02*
X104712969Y-83322200D01*
X104712969Y-83322200D02*
X104570112Y-83369819D01*
X104570112Y-83369819D02*
X104474874Y-83369819D01*
X104474874Y-83369819D02*
X104332017Y-83322200D01*
X104332017Y-83322200D02*
X104236779Y-83226961D01*
X104236779Y-83226961D02*
X104189160Y-83131723D01*
X104189160Y-83131723D02*
X104141541Y-82941247D01*
X104141541Y-82941247D02*
X104141541Y-82798390D01*
X104141541Y-82798390D02*
X104189160Y-82607914D01*
X104189160Y-82607914D02*
X104236779Y-82512676D01*
X104236779Y-82512676D02*
X104332017Y-82417438D01*
X104332017Y-82417438D02*
X104474874Y-82369819D01*
X104474874Y-82369819D02*
X104570112Y-82369819D01*
X104570112Y-82369819D02*
X104712969Y-82417438D01*
X104712969Y-82417438D02*
X104760588Y-82465057D01*
X105189160Y-83369819D02*
X105189160Y-82369819D01*
X105760588Y-83369819D02*
X105332017Y-82798390D01*
X105760588Y-82369819D02*
X105189160Y-82941247D01*
X103760588Y-72317438D02*
X103665350Y-72269819D01*
X103665350Y-72269819D02*
X103522493Y-72269819D01*
X103522493Y-72269819D02*
X103379636Y-72317438D01*
X103379636Y-72317438D02*
X103284398Y-72412676D01*
X103284398Y-72412676D02*
X103236779Y-72507914D01*
X103236779Y-72507914D02*
X103189160Y-72698390D01*
X103189160Y-72698390D02*
X103189160Y-72841247D01*
X103189160Y-72841247D02*
X103236779Y-73031723D01*
X103236779Y-73031723D02*
X103284398Y-73126961D01*
X103284398Y-73126961D02*
X103379636Y-73222200D01*
X103379636Y-73222200D02*
X103522493Y-73269819D01*
X103522493Y-73269819D02*
X103617731Y-73269819D01*
X103617731Y-73269819D02*
X103760588Y-73222200D01*
X103760588Y-73222200D02*
X103808207Y-73174580D01*
X103808207Y-73174580D02*
X103808207Y-72841247D01*
X103808207Y-72841247D02*
X103617731Y-72841247D01*
X104236779Y-73269819D02*
X104236779Y-72269819D01*
X104236779Y-72269819D02*
X104808207Y-73269819D01*
X104808207Y-73269819D02*
X104808207Y-72269819D01*
X105284398Y-73269819D02*
X105284398Y-72269819D01*
X105284398Y-72269819D02*
X105522493Y-72269819D01*
X105522493Y-72269819D02*
X105665350Y-72317438D01*
X105665350Y-72317438D02*
X105760588Y-72412676D01*
X105760588Y-72412676D02*
X105808207Y-72507914D01*
X105808207Y-72507914D02*
X105855826Y-72698390D01*
X105855826Y-72698390D02*
X105855826Y-72841247D01*
X105855826Y-72841247D02*
X105808207Y-73031723D01*
X105808207Y-73031723D02*
X105760588Y-73126961D01*
X105760588Y-73126961D02*
X105665350Y-73222200D01*
X105665350Y-73222200D02*
X105522493Y-73269819D01*
X105522493Y-73269819D02*
X105284398Y-73269819D01*
X102993922Y-84869819D02*
X103327255Y-85869819D01*
X103327255Y-85869819D02*
X103660588Y-84869819D01*
X104565350Y-85774580D02*
X104517731Y-85822200D01*
X104517731Y-85822200D02*
X104374874Y-85869819D01*
X104374874Y-85869819D02*
X104279636Y-85869819D01*
X104279636Y-85869819D02*
X104136779Y-85822200D01*
X104136779Y-85822200D02*
X104041541Y-85726961D01*
X104041541Y-85726961D02*
X103993922Y-85631723D01*
X103993922Y-85631723D02*
X103946303Y-85441247D01*
X103946303Y-85441247D02*
X103946303Y-85298390D01*
X103946303Y-85298390D02*
X103993922Y-85107914D01*
X103993922Y-85107914D02*
X104041541Y-85012676D01*
X104041541Y-85012676D02*
X104136779Y-84917438D01*
X104136779Y-84917438D02*
X104279636Y-84869819D01*
X104279636Y-84869819D02*
X104374874Y-84869819D01*
X104374874Y-84869819D02*
X104517731Y-84917438D01*
X104517731Y-84917438D02*
X104565350Y-84965057D01*
X105565350Y-85774580D02*
X105517731Y-85822200D01*
X105517731Y-85822200D02*
X105374874Y-85869819D01*
X105374874Y-85869819D02*
X105279636Y-85869819D01*
X105279636Y-85869819D02*
X105136779Y-85822200D01*
X105136779Y-85822200D02*
X105041541Y-85726961D01*
X105041541Y-85726961D02*
X104993922Y-85631723D01*
X104993922Y-85631723D02*
X104946303Y-85441247D01*
X104946303Y-85441247D02*
X104946303Y-85298390D01*
X104946303Y-85298390D02*
X104993922Y-85107914D01*
X104993922Y-85107914D02*
X105041541Y-85012676D01*
X105041541Y-85012676D02*
X105136779Y-84917438D01*
X105136779Y-84917438D02*
X105279636Y-84869819D01*
X105279636Y-84869819D02*
X105374874Y-84869819D01*
X105374874Y-84869819D02*
X105517731Y-84917438D01*
X105517731Y-84917438D02*
X105565350Y-84965057D01*
X103708207Y-75769819D02*
X103374874Y-75293628D01*
X103136779Y-75769819D02*
X103136779Y-74769819D01*
X103136779Y-74769819D02*
X103517731Y-74769819D01*
X103517731Y-74769819D02*
X103612969Y-74817438D01*
X103612969Y-74817438D02*
X103660588Y-74865057D01*
X103660588Y-74865057D02*
X103708207Y-74960295D01*
X103708207Y-74960295D02*
X103708207Y-75103152D01*
X103708207Y-75103152D02*
X103660588Y-75198390D01*
X103660588Y-75198390D02*
X103612969Y-75246009D01*
X103612969Y-75246009D02*
X103517731Y-75293628D01*
X103517731Y-75293628D02*
X103136779Y-75293628D01*
X104136779Y-75246009D02*
X104470112Y-75246009D01*
X104612969Y-75769819D02*
X104136779Y-75769819D01*
X104136779Y-75769819D02*
X104136779Y-74769819D01*
X104136779Y-74769819D02*
X104612969Y-74769819D01*
X104993922Y-75722200D02*
X105136779Y-75769819D01*
X105136779Y-75769819D02*
X105374874Y-75769819D01*
X105374874Y-75769819D02*
X105470112Y-75722200D01*
X105470112Y-75722200D02*
X105517731Y-75674580D01*
X105517731Y-75674580D02*
X105565350Y-75579342D01*
X105565350Y-75579342D02*
X105565350Y-75484104D01*
X105565350Y-75484104D02*
X105517731Y-75388866D01*
X105517731Y-75388866D02*
X105470112Y-75341247D01*
X105470112Y-75341247D02*
X105374874Y-75293628D01*
X105374874Y-75293628D02*
X105184398Y-75246009D01*
X105184398Y-75246009D02*
X105089160Y-75198390D01*
X105089160Y-75198390D02*
X105041541Y-75150771D01*
X105041541Y-75150771D02*
X104993922Y-75055533D01*
X104993922Y-75055533D02*
X104993922Y-74960295D01*
X104993922Y-74960295D02*
X105041541Y-74865057D01*
X105041541Y-74865057D02*
X105089160Y-74817438D01*
X105089160Y-74817438D02*
X105184398Y-74769819D01*
X105184398Y-74769819D02*
X105422493Y-74769819D01*
X105422493Y-74769819D02*
X105565350Y-74817438D01*
X105993922Y-75246009D02*
X106327255Y-75246009D01*
X106470112Y-75769819D02*
X105993922Y-75769819D01*
X105993922Y-75769819D02*
X105993922Y-74769819D01*
X105993922Y-74769819D02*
X106470112Y-74769819D01*
X106755827Y-74769819D02*
X107327255Y-74769819D01*
X107041541Y-75769819D02*
X107041541Y-74769819D01*
X103136779Y-78269819D02*
X103136779Y-77269819D01*
X103136779Y-77269819D02*
X103470112Y-77984104D01*
X103470112Y-77984104D02*
X103803445Y-77269819D01*
X103803445Y-77269819D02*
X103803445Y-78269819D01*
X104470112Y-77269819D02*
X104660588Y-77269819D01*
X104660588Y-77269819D02*
X104755826Y-77317438D01*
X104755826Y-77317438D02*
X104851064Y-77412676D01*
X104851064Y-77412676D02*
X104898683Y-77603152D01*
X104898683Y-77603152D02*
X104898683Y-77936485D01*
X104898683Y-77936485D02*
X104851064Y-78126961D01*
X104851064Y-78126961D02*
X104755826Y-78222200D01*
X104755826Y-78222200D02*
X104660588Y-78269819D01*
X104660588Y-78269819D02*
X104470112Y-78269819D01*
X104470112Y-78269819D02*
X104374874Y-78222200D01*
X104374874Y-78222200D02*
X104279636Y-78126961D01*
X104279636Y-78126961D02*
X104232017Y-77936485D01*
X104232017Y-77936485D02*
X104232017Y-77603152D01*
X104232017Y-77603152D02*
X104279636Y-77412676D01*
X104279636Y-77412676D02*
X104374874Y-77317438D01*
X104374874Y-77317438D02*
X104470112Y-77269819D01*
X105279636Y-78222200D02*
X105422493Y-78269819D01*
X105422493Y-78269819D02*
X105660588Y-78269819D01*
X105660588Y-78269819D02*
X105755826Y-78222200D01*
X105755826Y-78222200D02*
X105803445Y-78174580D01*
X105803445Y-78174580D02*
X105851064Y-78079342D01*
X105851064Y-78079342D02*
X105851064Y-77984104D01*
X105851064Y-77984104D02*
X105803445Y-77888866D01*
X105803445Y-77888866D02*
X105755826Y-77841247D01*
X105755826Y-77841247D02*
X105660588Y-77793628D01*
X105660588Y-77793628D02*
X105470112Y-77746009D01*
X105470112Y-77746009D02*
X105374874Y-77698390D01*
X105374874Y-77698390D02*
X105327255Y-77650771D01*
X105327255Y-77650771D02*
X105279636Y-77555533D01*
X105279636Y-77555533D02*
X105279636Y-77460295D01*
X105279636Y-77460295D02*
X105327255Y-77365057D01*
X105327255Y-77365057D02*
X105374874Y-77317438D01*
X105374874Y-77317438D02*
X105470112Y-77269819D01*
X105470112Y-77269819D02*
X105708207Y-77269819D01*
X105708207Y-77269819D02*
X105851064Y-77317438D01*
X106279636Y-78269819D02*
X106279636Y-77269819D01*
X105428221Y-92109580D02*
X105380602Y-92157200D01*
X105380602Y-92157200D02*
X105237745Y-92204819D01*
X105237745Y-92204819D02*
X105142507Y-92204819D01*
X105142507Y-92204819D02*
X104999650Y-92157200D01*
X104999650Y-92157200D02*
X104904412Y-92061961D01*
X104904412Y-92061961D02*
X104856793Y-91966723D01*
X104856793Y-91966723D02*
X104809174Y-91776247D01*
X104809174Y-91776247D02*
X104809174Y-91633390D01*
X104809174Y-91633390D02*
X104856793Y-91442914D01*
X104856793Y-91442914D02*
X104904412Y-91347676D01*
X104904412Y-91347676D02*
X104999650Y-91252438D01*
X104999650Y-91252438D02*
X105142507Y-91204819D01*
X105142507Y-91204819D02*
X105237745Y-91204819D01*
X105237745Y-91204819D02*
X105380602Y-91252438D01*
X105380602Y-91252438D02*
X105428221Y-91300057D01*
X106380602Y-92204819D02*
X105809174Y-92204819D01*
X106094888Y-92204819D02*
X106094888Y-91204819D01*
X106094888Y-91204819D02*
X105999650Y-91347676D01*
X105999650Y-91347676D02*
X105904412Y-91442914D01*
X105904412Y-91442914D02*
X105809174Y-91490533D01*
X120874819Y-90316666D02*
X120398628Y-90649999D01*
X120874819Y-90888094D02*
X119874819Y-90888094D01*
X119874819Y-90888094D02*
X119874819Y-90507142D01*
X119874819Y-90507142D02*
X119922438Y-90411904D01*
X119922438Y-90411904D02*
X119970057Y-90364285D01*
X119970057Y-90364285D02*
X120065295Y-90316666D01*
X120065295Y-90316666D02*
X120208152Y-90316666D01*
X120208152Y-90316666D02*
X120303390Y-90364285D01*
X120303390Y-90364285D02*
X120351009Y-90411904D01*
X120351009Y-90411904D02*
X120398628Y-90507142D01*
X120398628Y-90507142D02*
X120398628Y-90888094D01*
X119874819Y-89411904D02*
X119874819Y-89888094D01*
X119874819Y-89888094D02*
X120351009Y-89935713D01*
X120351009Y-89935713D02*
X120303390Y-89888094D01*
X120303390Y-89888094D02*
X120255771Y-89792856D01*
X120255771Y-89792856D02*
X120255771Y-89554761D01*
X120255771Y-89554761D02*
X120303390Y-89459523D01*
X120303390Y-89459523D02*
X120351009Y-89411904D01*
X120351009Y-89411904D02*
X120446247Y-89364285D01*
X120446247Y-89364285D02*
X120684342Y-89364285D01*
X120684342Y-89364285D02*
X120779580Y-89411904D01*
X120779580Y-89411904D02*
X120827200Y-89459523D01*
X120827200Y-89459523D02*
X120874819Y-89554761D01*
X120874819Y-89554761D02*
X120874819Y-89792856D01*
X120874819Y-89792856D02*
X120827200Y-89888094D01*
X120827200Y-89888094D02*
X120779580Y-89935713D01*
X123484819Y-93216666D02*
X123008628Y-93549999D01*
X123484819Y-93788094D02*
X122484819Y-93788094D01*
X122484819Y-93788094D02*
X122484819Y-93407142D01*
X122484819Y-93407142D02*
X122532438Y-93311904D01*
X122532438Y-93311904D02*
X122580057Y-93264285D01*
X122580057Y-93264285D02*
X122675295Y-93216666D01*
X122675295Y-93216666D02*
X122818152Y-93216666D01*
X122818152Y-93216666D02*
X122913390Y-93264285D01*
X122913390Y-93264285D02*
X122961009Y-93311904D01*
X122961009Y-93311904D02*
X123008628Y-93407142D01*
X123008628Y-93407142D02*
X123008628Y-93788094D01*
X122580057Y-92835713D02*
X122532438Y-92788094D01*
X122532438Y-92788094D02*
X122484819Y-92692856D01*
X122484819Y-92692856D02*
X122484819Y-92454761D01*
X122484819Y-92454761D02*
X122532438Y-92359523D01*
X122532438Y-92359523D02*
X122580057Y-92311904D01*
X122580057Y-92311904D02*
X122675295Y-92264285D01*
X122675295Y-92264285D02*
X122770533Y-92264285D01*
X122770533Y-92264285D02*
X122913390Y-92311904D01*
X122913390Y-92311904D02*
X123484819Y-92883332D01*
X123484819Y-92883332D02*
X123484819Y-92264285D01*
X125674819Y-74666666D02*
X125198628Y-74999999D01*
X125674819Y-75238094D02*
X124674819Y-75238094D01*
X124674819Y-75238094D02*
X124674819Y-74857142D01*
X124674819Y-74857142D02*
X124722438Y-74761904D01*
X124722438Y-74761904D02*
X124770057Y-74714285D01*
X124770057Y-74714285D02*
X124865295Y-74666666D01*
X124865295Y-74666666D02*
X125008152Y-74666666D01*
X125008152Y-74666666D02*
X125103390Y-74714285D01*
X125103390Y-74714285D02*
X125151009Y-74761904D01*
X125151009Y-74761904D02*
X125198628Y-74857142D01*
X125198628Y-74857142D02*
X125198628Y-75238094D01*
X124674819Y-74333332D02*
X124674819Y-73714285D01*
X124674819Y-73714285D02*
X125055771Y-74047618D01*
X125055771Y-74047618D02*
X125055771Y-73904761D01*
X125055771Y-73904761D02*
X125103390Y-73809523D01*
X125103390Y-73809523D02*
X125151009Y-73761904D01*
X125151009Y-73761904D02*
X125246247Y-73714285D01*
X125246247Y-73714285D02*
X125484342Y-73714285D01*
X125484342Y-73714285D02*
X125579580Y-73761904D01*
X125579580Y-73761904D02*
X125627200Y-73809523D01*
X125627200Y-73809523D02*
X125674819Y-73904761D01*
X125674819Y-73904761D02*
X125674819Y-74190475D01*
X125674819Y-74190475D02*
X125627200Y-74285713D01*
X125627200Y-74285713D02*
X125579580Y-74333332D01*
X105570833Y-87609580D02*
X105523214Y-87657200D01*
X105523214Y-87657200D02*
X105380357Y-87704819D01*
X105380357Y-87704819D02*
X105285119Y-87704819D01*
X105285119Y-87704819D02*
X105142262Y-87657200D01*
X105142262Y-87657200D02*
X105047024Y-87561961D01*
X105047024Y-87561961D02*
X104999405Y-87466723D01*
X104999405Y-87466723D02*
X104951786Y-87276247D01*
X104951786Y-87276247D02*
X104951786Y-87133390D01*
X104951786Y-87133390D02*
X104999405Y-86942914D01*
X104999405Y-86942914D02*
X105047024Y-86847676D01*
X105047024Y-86847676D02*
X105142262Y-86752438D01*
X105142262Y-86752438D02*
X105285119Y-86704819D01*
X105285119Y-86704819D02*
X105380357Y-86704819D01*
X105380357Y-86704819D02*
X105523214Y-86752438D01*
X105523214Y-86752438D02*
X105570833Y-86800057D01*
X105951786Y-86800057D02*
X105999405Y-86752438D01*
X105999405Y-86752438D02*
X106094643Y-86704819D01*
X106094643Y-86704819D02*
X106332738Y-86704819D01*
X106332738Y-86704819D02*
X106427976Y-86752438D01*
X106427976Y-86752438D02*
X106475595Y-86800057D01*
X106475595Y-86800057D02*
X106523214Y-86895295D01*
X106523214Y-86895295D02*
X106523214Y-86990533D01*
X106523214Y-86990533D02*
X106475595Y-87133390D01*
X106475595Y-87133390D02*
X105904167Y-87704819D01*
X105904167Y-87704819D02*
X106523214Y-87704819D01*
X117184819Y-96825594D02*
X116184819Y-96825594D01*
X116184819Y-96825594D02*
X116184819Y-96587499D01*
X116184819Y-96587499D02*
X116232438Y-96444642D01*
X116232438Y-96444642D02*
X116327676Y-96349404D01*
X116327676Y-96349404D02*
X116422914Y-96301785D01*
X116422914Y-96301785D02*
X116613390Y-96254166D01*
X116613390Y-96254166D02*
X116756247Y-96254166D01*
X116756247Y-96254166D02*
X116946723Y-96301785D01*
X116946723Y-96301785D02*
X117041961Y-96349404D01*
X117041961Y-96349404D02*
X117137200Y-96444642D01*
X117137200Y-96444642D02*
X117184819Y-96587499D01*
X117184819Y-96587499D02*
X117184819Y-96825594D01*
X116280057Y-95873213D02*
X116232438Y-95825594D01*
X116232438Y-95825594D02*
X116184819Y-95730356D01*
X116184819Y-95730356D02*
X116184819Y-95492261D01*
X116184819Y-95492261D02*
X116232438Y-95397023D01*
X116232438Y-95397023D02*
X116280057Y-95349404D01*
X116280057Y-95349404D02*
X116375295Y-95301785D01*
X116375295Y-95301785D02*
X116470533Y-95301785D01*
X116470533Y-95301785D02*
X116613390Y-95349404D01*
X116613390Y-95349404D02*
X117184819Y-95920832D01*
X117184819Y-95920832D02*
X117184819Y-95301785D01*
X123484819Y-85216666D02*
X123008628Y-85549999D01*
X123484819Y-85788094D02*
X122484819Y-85788094D01*
X122484819Y-85788094D02*
X122484819Y-85407142D01*
X122484819Y-85407142D02*
X122532438Y-85311904D01*
X122532438Y-85311904D02*
X122580057Y-85264285D01*
X122580057Y-85264285D02*
X122675295Y-85216666D01*
X122675295Y-85216666D02*
X122818152Y-85216666D01*
X122818152Y-85216666D02*
X122913390Y-85264285D01*
X122913390Y-85264285D02*
X122961009Y-85311904D01*
X122961009Y-85311904D02*
X123008628Y-85407142D01*
X123008628Y-85407142D02*
X123008628Y-85788094D01*
X123484819Y-84264285D02*
X123484819Y-84835713D01*
X123484819Y-84549999D02*
X122484819Y-84549999D01*
X122484819Y-84549999D02*
X122627676Y-84645237D01*
X122627676Y-84645237D02*
X122722914Y-84740475D01*
X122722914Y-84740475D02*
X122770533Y-84835713D01*
X112784819Y-96825594D02*
X111784819Y-96825594D01*
X111784819Y-96825594D02*
X111784819Y-96587499D01*
X111784819Y-96587499D02*
X111832438Y-96444642D01*
X111832438Y-96444642D02*
X111927676Y-96349404D01*
X111927676Y-96349404D02*
X112022914Y-96301785D01*
X112022914Y-96301785D02*
X112213390Y-96254166D01*
X112213390Y-96254166D02*
X112356247Y-96254166D01*
X112356247Y-96254166D02*
X112546723Y-96301785D01*
X112546723Y-96301785D02*
X112641961Y-96349404D01*
X112641961Y-96349404D02*
X112737200Y-96444642D01*
X112737200Y-96444642D02*
X112784819Y-96587499D01*
X112784819Y-96587499D02*
X112784819Y-96825594D01*
X112784819Y-95301785D02*
X112784819Y-95873213D01*
X112784819Y-95587499D02*
X111784819Y-95587499D01*
X111784819Y-95587499D02*
X111927676Y-95682737D01*
X111927676Y-95682737D02*
X112022914Y-95777975D01*
X112022914Y-95777975D02*
X112070533Y-95873213D01*
X116374819Y-90316666D02*
X115898628Y-90649999D01*
X116374819Y-90888094D02*
X115374819Y-90888094D01*
X115374819Y-90888094D02*
X115374819Y-90507142D01*
X115374819Y-90507142D02*
X115422438Y-90411904D01*
X115422438Y-90411904D02*
X115470057Y-90364285D01*
X115470057Y-90364285D02*
X115565295Y-90316666D01*
X115565295Y-90316666D02*
X115708152Y-90316666D01*
X115708152Y-90316666D02*
X115803390Y-90364285D01*
X115803390Y-90364285D02*
X115851009Y-90411904D01*
X115851009Y-90411904D02*
X115898628Y-90507142D01*
X115898628Y-90507142D02*
X115898628Y-90888094D01*
X115708152Y-89459523D02*
X116374819Y-89459523D01*
X115327200Y-89697618D02*
X116041485Y-89935713D01*
X116041485Y-89935713D02*
X116041485Y-89316666D01*
D11*
%TO.C,C1*%
X102790113Y-94025000D02*
X103290113Y-94025000D01*
X103040113Y-93775000D02*
X103040113Y-94275000D01*
X105594888Y-92920000D02*
X105594888Y-98080000D01*
X105634888Y-92920000D02*
X105634888Y-98080000D01*
X105674888Y-92921000D02*
X105674888Y-98079000D01*
X105714888Y-92922000D02*
X105714888Y-98078000D01*
X105754888Y-92924000D02*
X105754888Y-98076000D01*
X105794888Y-92927000D02*
X105794888Y-98073000D01*
X105834888Y-92931000D02*
X105834888Y-94460000D01*
X105834888Y-96540000D02*
X105834888Y-98069000D01*
X105874888Y-92935000D02*
X105874888Y-94460000D01*
X105874888Y-96540000D02*
X105874888Y-98065000D01*
X105914888Y-92939000D02*
X105914888Y-94460000D01*
X105914888Y-96540000D02*
X105914888Y-98061000D01*
X105954888Y-92944000D02*
X105954888Y-94460000D01*
X105954888Y-96540000D02*
X105954888Y-98056000D01*
X105994888Y-92950000D02*
X105994888Y-94460000D01*
X105994888Y-96540000D02*
X105994888Y-98050000D01*
X106034888Y-92957000D02*
X106034888Y-94460000D01*
X106034888Y-96540000D02*
X106034888Y-98043000D01*
X106074888Y-92964000D02*
X106074888Y-94460000D01*
X106074888Y-96540000D02*
X106074888Y-98036000D01*
X106114888Y-92972000D02*
X106114888Y-94460000D01*
X106114888Y-96540000D02*
X106114888Y-98028000D01*
X106154888Y-92980000D02*
X106154888Y-94460000D01*
X106154888Y-96540000D02*
X106154888Y-98020000D01*
X106194888Y-92989000D02*
X106194888Y-94460000D01*
X106194888Y-96540000D02*
X106194888Y-98011000D01*
X106234888Y-92999000D02*
X106234888Y-94460000D01*
X106234888Y-96540000D02*
X106234888Y-98001000D01*
X106274888Y-93009000D02*
X106274888Y-94460000D01*
X106274888Y-96540000D02*
X106274888Y-97991000D01*
X106315888Y-93020000D02*
X106315888Y-94460000D01*
X106315888Y-96540000D02*
X106315888Y-97980000D01*
X106355888Y-93032000D02*
X106355888Y-94460000D01*
X106355888Y-96540000D02*
X106355888Y-97968000D01*
X106395888Y-93045000D02*
X106395888Y-94460000D01*
X106395888Y-96540000D02*
X106395888Y-97955000D01*
X106435888Y-93058000D02*
X106435888Y-94460000D01*
X106435888Y-96540000D02*
X106435888Y-97942000D01*
X106475888Y-93072000D02*
X106475888Y-94460000D01*
X106475888Y-96540000D02*
X106475888Y-97928000D01*
X106515888Y-93086000D02*
X106515888Y-94460000D01*
X106515888Y-96540000D02*
X106515888Y-97914000D01*
X106555888Y-93102000D02*
X106555888Y-94460000D01*
X106555888Y-96540000D02*
X106555888Y-97898000D01*
X106595888Y-93118000D02*
X106595888Y-94460000D01*
X106595888Y-96540000D02*
X106595888Y-97882000D01*
X106635888Y-93135000D02*
X106635888Y-94460000D01*
X106635888Y-96540000D02*
X106635888Y-97865000D01*
X106675888Y-93152000D02*
X106675888Y-94460000D01*
X106675888Y-96540000D02*
X106675888Y-97848000D01*
X106715888Y-93171000D02*
X106715888Y-94460000D01*
X106715888Y-96540000D02*
X106715888Y-97829000D01*
X106755888Y-93190000D02*
X106755888Y-94460000D01*
X106755888Y-96540000D02*
X106755888Y-97810000D01*
X106795888Y-93210000D02*
X106795888Y-94460000D01*
X106795888Y-96540000D02*
X106795888Y-97790000D01*
X106835888Y-93232000D02*
X106835888Y-94460000D01*
X106835888Y-96540000D02*
X106835888Y-97768000D01*
X106875888Y-93253000D02*
X106875888Y-94460000D01*
X106875888Y-96540000D02*
X106875888Y-97747000D01*
X106915888Y-93276000D02*
X106915888Y-94460000D01*
X106915888Y-96540000D02*
X106915888Y-97724000D01*
X106955888Y-93300000D02*
X106955888Y-94460000D01*
X106955888Y-96540000D02*
X106955888Y-97700000D01*
X106995888Y-93325000D02*
X106995888Y-94460000D01*
X106995888Y-96540000D02*
X106995888Y-97675000D01*
X107035888Y-93351000D02*
X107035888Y-94460000D01*
X107035888Y-96540000D02*
X107035888Y-97649000D01*
X107075888Y-93378000D02*
X107075888Y-94460000D01*
X107075888Y-96540000D02*
X107075888Y-97622000D01*
X107115888Y-93405000D02*
X107115888Y-94460000D01*
X107115888Y-96540000D02*
X107115888Y-97595000D01*
X107155888Y-93435000D02*
X107155888Y-94460000D01*
X107155888Y-96540000D02*
X107155888Y-97565000D01*
X107195888Y-93465000D02*
X107195888Y-94460000D01*
X107195888Y-96540000D02*
X107195888Y-97535000D01*
X107235888Y-93496000D02*
X107235888Y-94460000D01*
X107235888Y-96540000D02*
X107235888Y-97504000D01*
X107275888Y-93529000D02*
X107275888Y-94460000D01*
X107275888Y-96540000D02*
X107275888Y-97471000D01*
X107315888Y-93563000D02*
X107315888Y-94460000D01*
X107315888Y-96540000D02*
X107315888Y-97437000D01*
X107355888Y-93599000D02*
X107355888Y-94460000D01*
X107355888Y-96540000D02*
X107355888Y-97401000D01*
X107395888Y-93636000D02*
X107395888Y-94460000D01*
X107395888Y-96540000D02*
X107395888Y-97364000D01*
X107435888Y-93674000D02*
X107435888Y-94460000D01*
X107435888Y-96540000D02*
X107435888Y-97326000D01*
X107475888Y-93715000D02*
X107475888Y-94460000D01*
X107475888Y-96540000D02*
X107475888Y-97285000D01*
X107515888Y-93757000D02*
X107515888Y-94460000D01*
X107515888Y-96540000D02*
X107515888Y-97243000D01*
X107555888Y-93801000D02*
X107555888Y-94460000D01*
X107555888Y-96540000D02*
X107555888Y-97199000D01*
X107595888Y-93847000D02*
X107595888Y-94460000D01*
X107595888Y-96540000D02*
X107595888Y-97153000D01*
X107635888Y-93895000D02*
X107635888Y-94460000D01*
X107635888Y-96540000D02*
X107635888Y-97105000D01*
X107675888Y-93946000D02*
X107675888Y-94460000D01*
X107675888Y-96540000D02*
X107675888Y-97054000D01*
X107715888Y-94000000D02*
X107715888Y-94460000D01*
X107715888Y-96540000D02*
X107715888Y-97000000D01*
X107755888Y-94057000D02*
X107755888Y-94460000D01*
X107755888Y-96540000D02*
X107755888Y-96943000D01*
X107795888Y-94117000D02*
X107795888Y-94460000D01*
X107795888Y-96540000D02*
X107795888Y-96883000D01*
X107835888Y-94181000D02*
X107835888Y-94460000D01*
X107835888Y-96540000D02*
X107835888Y-96819000D01*
X107875888Y-94249000D02*
X107875888Y-94460000D01*
X107875888Y-96540000D02*
X107875888Y-96751000D01*
X107915888Y-94322000D02*
X107915888Y-96678000D01*
X107955888Y-94402000D02*
X107955888Y-96598000D01*
X107995888Y-94489000D02*
X107995888Y-96511000D01*
X108035888Y-94585000D02*
X108035888Y-96415000D01*
X108075888Y-94695000D02*
X108075888Y-96305000D01*
X108115888Y-94823000D02*
X108115888Y-96177000D01*
X108155888Y-94982000D02*
X108155888Y-96018000D01*
X108195888Y-95216000D02*
X108195888Y-95784000D01*
X108214888Y-95500000D02*
G75*
G03*
X108214888Y-95500000I-2620000J0D01*
G01*
%TO.C,R5*%
X119510000Y-89422936D02*
X119510000Y-90877064D01*
X117690000Y-89422936D02*
X117690000Y-90877064D01*
%TO.C,R2*%
X123940000Y-93777064D02*
X123940000Y-92322936D01*
X125760000Y-93777064D02*
X125760000Y-92322936D01*
%TO.C,R3*%
X122490000Y-73772936D02*
X122490000Y-75227064D01*
X124310000Y-73772936D02*
X124310000Y-75227064D01*
%TO.C,C2*%
X105026248Y-88190000D02*
X106448752Y-88190000D01*
X105026248Y-90010000D02*
X106448752Y-90010000D01*
%TO.C,J2*%
X129145000Y-66390331D02*
X98175000Y-66390331D01*
X129145000Y-54050331D02*
X129145000Y-66390331D01*
X119450000Y-67284669D02*
X118950000Y-67284669D01*
X119200000Y-66851656D02*
X119450000Y-67284669D01*
X118950000Y-67284669D02*
X119200000Y-66851656D01*
X98175000Y-66390331D02*
X98175000Y-54050331D01*
%TO.C,D2*%
X117415000Y-98547500D02*
X119685000Y-98547500D01*
X119685000Y-98547500D02*
X119685000Y-94487500D01*
X117415000Y-94487500D02*
X117415000Y-98547500D01*
D10*
%TO.C,U1*%
X117125000Y-75125000D02*
X116900000Y-75125000D01*
X117125000Y-75125000D02*
X117125000Y-75450000D01*
X116900000Y-75125000D02*
X116900000Y-73700000D01*
X109875000Y-75125000D02*
X110200000Y-75125000D01*
X109875000Y-75125000D02*
X109875000Y-75450000D01*
X117125000Y-82375000D02*
X117125000Y-82050000D01*
X117125000Y-82375000D02*
X116800000Y-82375000D01*
X109875000Y-82375000D02*
X109875000Y-82050000D01*
X109875000Y-82375000D02*
X110200000Y-82375000D01*
D11*
%TO.C,R1*%
X123940000Y-85777064D02*
X123940000Y-84322936D01*
X125760000Y-85777064D02*
X125760000Y-84322936D01*
%TO.C,D1*%
X113015000Y-98547500D02*
X115285000Y-98547500D01*
X115285000Y-98547500D02*
X115285000Y-94487500D01*
X113015000Y-94487500D02*
X113015000Y-98547500D01*
%TO.C,J3*%
X99720000Y-71440000D02*
X101050000Y-71440000D01*
X99720000Y-72770000D02*
X99720000Y-71440000D01*
X99720000Y-74040000D02*
X99720000Y-86800000D01*
X99720000Y-74040000D02*
X102380000Y-74040000D01*
X99720000Y-86800000D02*
X102380000Y-86800000D01*
X102380000Y-74040000D02*
X102380000Y-86800000D01*
%TO.C,R4*%
X115010000Y-89422936D02*
X115010000Y-90877064D01*
X113190000Y-89422936D02*
X113190000Y-90877064D01*
%TD*%
M02*
