M48
; DRILL file {KiCad 7.0.9} date Mon Dec 18 18:57:23 2023
; FORMAT={-:-/ absolute / inch / decimal}
; #@! TF.CreationDate,2023-12-18T18:57:23+03:00
; #@! TF.GenerationSoftware,Kicad,Pcbnew,7.0.9
; #@! TF.FileFunction,Plated,1,2,PTH
FMAT,2
INCH
; #@! TA.AperFunction,Plated,PTH,ViaDrill
T1C0.0157
; #@! TA.AperFunction,Plated,PTH,ViaDrill
T2C0.0197
; #@! TA.AperFunction,Plated,PTH,ComponentDrill
T3C0.0197
; #@! TA.AperFunction,Plated,PTH,ComponentDrill
T4C0.0315
; #@! TA.AperFunction,Plated,PTH,ComponentDrill
T5C0.0394
; #@! TA.AperFunction,Plated,PTH,ComponentDrill
T6C0.1260
%
G90
G05
T1
X4.2992Y-3.4331
X4.5531Y-2.9547
X4.5787Y-2.6811
X4.6024Y-3.2756
X4.6457Y-2.6339
X4.7677Y-2.6339
X4.7894Y-3.5118
X4.7894Y-3.5925
X4.8228Y-2.6811
T2
X4.4823Y-2.7185
X4.8307Y-2.8031
X4.9134Y-3.2677
T4
X4.0982Y-3.5866
X4.1966Y-3.5866
T5
X3.9783Y-2.735
X3.9783Y-2.835
X3.9783Y-2.935
X3.9783Y-3.035
X3.9783Y-3.135
X3.9783Y-3.235
X4.2567Y-2.5406
X4.3112Y-2.4288
X4.3657Y-2.5406
X4.4203Y-2.4288
X4.4748Y-2.5406
X4.5293Y-2.4288
X4.5839Y-2.5406
X4.6384Y-2.4288
X4.6929Y-2.5406
T6
X3.9827Y-2.4847
X4.9669Y-2.4847
T3
G00X4.2382Y-3.8445
M15
G01X4.2382Y-3.8051
M16
G05
G00X4.4114Y-3.6772
M15
G01X4.3957Y-3.6772
M16
G05
G00X4.4114Y-3.7559
M15
G01X4.3957Y-3.7559
M16
G05
G00X4.4823Y-3.6772
M15
G01X4.4665Y-3.6772
M16
G05
G00X4.4823Y-3.7559
M15
G01X4.4665Y-3.7559
M16
G05
G00X4.5531Y-3.6772
M15
G01X4.5374Y-3.6772
M16
G05
G00X4.5531Y-3.7559
M15
G01X4.5374Y-3.7559
M16
G05
G00X4.7106Y-3.8445
M15
G01X4.7106Y-3.8051
M16
G05
T0
M30
