%TF.GenerationSoftware,KiCad,Pcbnew,7.0.10-148-g62bb553460*%
%TF.CreationDate,2024-07-10T18:26:23+03:00*%
%TF.ProjectId,SMD2WII,534d4432-5749-4492-9e6b-696361645f70,rev?*%
%TF.SameCoordinates,Original*%
%TF.FileFunction,Legend,Bot*%
%TF.FilePolarity,Positive*%
%FSLAX46Y46*%
G04 Gerber Fmt 4.6, Leading zero omitted, Abs format (unit mm)*
G04 Created by KiCad (PCBNEW 7.0.10-148-g62bb553460) date 2024-07-10 18:26:23*
%MOMM*%
%LPD*%
G01*
G04 APERTURE LIST*
%ADD10C,0.300000*%
%ADD11C,0.100000*%
G04 APERTURE END LIST*
D10*
X123531203Y-75874400D02*
X123102632Y-76017257D01*
X123102632Y-76017257D02*
X122388346Y-76017257D01*
X122388346Y-76017257D02*
X122102632Y-75874400D01*
X122102632Y-75874400D02*
X121959774Y-75731542D01*
X121959774Y-75731542D02*
X121816917Y-75445828D01*
X121816917Y-75445828D02*
X121816917Y-75160114D01*
X121816917Y-75160114D02*
X121959774Y-74874400D01*
X121959774Y-74874400D02*
X122102632Y-74731542D01*
X122102632Y-74731542D02*
X122388346Y-74588685D01*
X122388346Y-74588685D02*
X122959774Y-74445828D01*
X122959774Y-74445828D02*
X123245489Y-74302971D01*
X123245489Y-74302971D02*
X123388346Y-74160114D01*
X123388346Y-74160114D02*
X123531203Y-73874400D01*
X123531203Y-73874400D02*
X123531203Y-73588685D01*
X123531203Y-73588685D02*
X123388346Y-73302971D01*
X123388346Y-73302971D02*
X123245489Y-73160114D01*
X123245489Y-73160114D02*
X122959774Y-73017257D01*
X122959774Y-73017257D02*
X122245489Y-73017257D01*
X122245489Y-73017257D02*
X121816917Y-73160114D01*
X120531203Y-76017257D02*
X120531203Y-73017257D01*
X120531203Y-73017257D02*
X119531203Y-75160114D01*
X119531203Y-75160114D02*
X118531203Y-73017257D01*
X118531203Y-73017257D02*
X118531203Y-76017257D01*
X117102632Y-76017257D02*
X117102632Y-73017257D01*
X117102632Y-73017257D02*
X116388346Y-73017257D01*
X116388346Y-73017257D02*
X115959775Y-73160114D01*
X115959775Y-73160114D02*
X115674060Y-73445828D01*
X115674060Y-73445828D02*
X115531203Y-73731542D01*
X115531203Y-73731542D02*
X115388346Y-74302971D01*
X115388346Y-74302971D02*
X115388346Y-74731542D01*
X115388346Y-74731542D02*
X115531203Y-75302971D01*
X115531203Y-75302971D02*
X115674060Y-75588685D01*
X115674060Y-75588685D02*
X115959775Y-75874400D01*
X115959775Y-75874400D02*
X116388346Y-76017257D01*
X116388346Y-76017257D02*
X117102632Y-76017257D01*
X114245489Y-73302971D02*
X114102632Y-73160114D01*
X114102632Y-73160114D02*
X113816918Y-73017257D01*
X113816918Y-73017257D02*
X113102632Y-73017257D01*
X113102632Y-73017257D02*
X112816918Y-73160114D01*
X112816918Y-73160114D02*
X112674060Y-73302971D01*
X112674060Y-73302971D02*
X112531203Y-73588685D01*
X112531203Y-73588685D02*
X112531203Y-73874400D01*
X112531203Y-73874400D02*
X112674060Y-74302971D01*
X112674060Y-74302971D02*
X114388346Y-76017257D01*
X114388346Y-76017257D02*
X112531203Y-76017257D01*
X111531203Y-73017257D02*
X110816917Y-76017257D01*
X110816917Y-76017257D02*
X110245489Y-73874400D01*
X110245489Y-73874400D02*
X109674060Y-76017257D01*
X109674060Y-76017257D02*
X108959775Y-73017257D01*
X107816918Y-76017257D02*
X107816918Y-74017257D01*
X107816918Y-73017257D02*
X107959775Y-73160114D01*
X107959775Y-73160114D02*
X107816918Y-73302971D01*
X107816918Y-73302971D02*
X107674061Y-73160114D01*
X107674061Y-73160114D02*
X107816918Y-73017257D01*
X107816918Y-73017257D02*
X107816918Y-73302971D01*
X106388347Y-76017257D02*
X106388347Y-74017257D01*
X106388347Y-73017257D02*
X106531204Y-73160114D01*
X106531204Y-73160114D02*
X106388347Y-73302971D01*
X106388347Y-73302971D02*
X106245490Y-73160114D01*
X106245490Y-73160114D02*
X106388347Y-73017257D01*
X106388347Y-73017257D02*
X106388347Y-73302971D01*
D11*
X124200877Y-78563561D02*
X124200877Y-79211180D01*
X124200877Y-79211180D02*
X124238972Y-79287371D01*
X124238972Y-79287371D02*
X124277068Y-79325466D01*
X124277068Y-79325466D02*
X124353258Y-79363561D01*
X124353258Y-79363561D02*
X124467544Y-79363561D01*
X124467544Y-79363561D02*
X124543734Y-79325466D01*
X124200877Y-79058800D02*
X124277068Y-79096895D01*
X124277068Y-79096895D02*
X124429449Y-79096895D01*
X124429449Y-79096895D02*
X124505639Y-79058800D01*
X124505639Y-79058800D02*
X124543734Y-79020704D01*
X124543734Y-79020704D02*
X124581830Y-78944514D01*
X124581830Y-78944514D02*
X124581830Y-78715942D01*
X124581830Y-78715942D02*
X124543734Y-78639752D01*
X124543734Y-78639752D02*
X124505639Y-78601657D01*
X124505639Y-78601657D02*
X124429449Y-78563561D01*
X124429449Y-78563561D02*
X124277068Y-78563561D01*
X124277068Y-78563561D02*
X124200877Y-78601657D01*
X123819924Y-79096895D02*
X123819924Y-78563561D01*
X123819924Y-78296895D02*
X123858020Y-78334990D01*
X123858020Y-78334990D02*
X123819924Y-78373085D01*
X123819924Y-78373085D02*
X123781829Y-78334990D01*
X123781829Y-78334990D02*
X123819924Y-78296895D01*
X123819924Y-78296895D02*
X123819924Y-78373085D01*
X123553258Y-78563561D02*
X123248496Y-78563561D01*
X123438972Y-78296895D02*
X123438972Y-78982609D01*
X123438972Y-78982609D02*
X123400877Y-79058800D01*
X123400877Y-79058800D02*
X123324687Y-79096895D01*
X123324687Y-79096895D02*
X123248496Y-79096895D01*
X122981829Y-79096895D02*
X122981829Y-78296895D01*
X122638972Y-79096895D02*
X122638972Y-78677847D01*
X122638972Y-78677847D02*
X122677067Y-78601657D01*
X122677067Y-78601657D02*
X122753258Y-78563561D01*
X122753258Y-78563561D02*
X122867544Y-78563561D01*
X122867544Y-78563561D02*
X122943734Y-78601657D01*
X122943734Y-78601657D02*
X122981829Y-78639752D01*
X121915162Y-78563561D02*
X121915162Y-79096895D01*
X122258019Y-78563561D02*
X122258019Y-78982609D01*
X122258019Y-78982609D02*
X122219924Y-79058800D01*
X122219924Y-79058800D02*
X122143734Y-79096895D01*
X122143734Y-79096895D02*
X122029448Y-79096895D01*
X122029448Y-79096895D02*
X121953257Y-79058800D01*
X121953257Y-79058800D02*
X121915162Y-79020704D01*
X121534209Y-79096895D02*
X121534209Y-78296895D01*
X121534209Y-78601657D02*
X121458019Y-78563561D01*
X121458019Y-78563561D02*
X121305638Y-78563561D01*
X121305638Y-78563561D02*
X121229447Y-78601657D01*
X121229447Y-78601657D02*
X121191352Y-78639752D01*
X121191352Y-78639752D02*
X121153257Y-78715942D01*
X121153257Y-78715942D02*
X121153257Y-78944514D01*
X121153257Y-78944514D02*
X121191352Y-79020704D01*
X121191352Y-79020704D02*
X121229447Y-79058800D01*
X121229447Y-79058800D02*
X121305638Y-79096895D01*
X121305638Y-79096895D02*
X121458019Y-79096895D01*
X121458019Y-79096895D02*
X121534209Y-79058800D01*
X120810399Y-79020704D02*
X120772304Y-79058800D01*
X120772304Y-79058800D02*
X120810399Y-79096895D01*
X120810399Y-79096895D02*
X120848495Y-79058800D01*
X120848495Y-79058800D02*
X120810399Y-79020704D01*
X120810399Y-79020704D02*
X120810399Y-79096895D01*
X120086590Y-79058800D02*
X120162781Y-79096895D01*
X120162781Y-79096895D02*
X120315162Y-79096895D01*
X120315162Y-79096895D02*
X120391352Y-79058800D01*
X120391352Y-79058800D02*
X120429447Y-79020704D01*
X120429447Y-79020704D02*
X120467543Y-78944514D01*
X120467543Y-78944514D02*
X120467543Y-78715942D01*
X120467543Y-78715942D02*
X120429447Y-78639752D01*
X120429447Y-78639752D02*
X120391352Y-78601657D01*
X120391352Y-78601657D02*
X120315162Y-78563561D01*
X120315162Y-78563561D02*
X120162781Y-78563561D01*
X120162781Y-78563561D02*
X120086590Y-78601657D01*
X119629448Y-79096895D02*
X119705638Y-79058800D01*
X119705638Y-79058800D02*
X119743733Y-79020704D01*
X119743733Y-79020704D02*
X119781829Y-78944514D01*
X119781829Y-78944514D02*
X119781829Y-78715942D01*
X119781829Y-78715942D02*
X119743733Y-78639752D01*
X119743733Y-78639752D02*
X119705638Y-78601657D01*
X119705638Y-78601657D02*
X119629448Y-78563561D01*
X119629448Y-78563561D02*
X119515162Y-78563561D01*
X119515162Y-78563561D02*
X119438971Y-78601657D01*
X119438971Y-78601657D02*
X119400876Y-78639752D01*
X119400876Y-78639752D02*
X119362781Y-78715942D01*
X119362781Y-78715942D02*
X119362781Y-78944514D01*
X119362781Y-78944514D02*
X119400876Y-79020704D01*
X119400876Y-79020704D02*
X119438971Y-79058800D01*
X119438971Y-79058800D02*
X119515162Y-79096895D01*
X119515162Y-79096895D02*
X119629448Y-79096895D01*
X119019923Y-79096895D02*
X119019923Y-78563561D01*
X119019923Y-78639752D02*
X118981828Y-78601657D01*
X118981828Y-78601657D02*
X118905638Y-78563561D01*
X118905638Y-78563561D02*
X118791352Y-78563561D01*
X118791352Y-78563561D02*
X118715161Y-78601657D01*
X118715161Y-78601657D02*
X118677066Y-78677847D01*
X118677066Y-78677847D02*
X118677066Y-79096895D01*
X118677066Y-78677847D02*
X118638971Y-78601657D01*
X118638971Y-78601657D02*
X118562780Y-78563561D01*
X118562780Y-78563561D02*
X118448495Y-78563561D01*
X118448495Y-78563561D02*
X118372304Y-78601657D01*
X118372304Y-78601657D02*
X118334209Y-78677847D01*
X118334209Y-78677847D02*
X118334209Y-79096895D01*
X117381828Y-78258800D02*
X118067542Y-79287371D01*
X117115161Y-78563561D02*
X117115161Y-79363561D01*
X117115161Y-78601657D02*
X117038971Y-78563561D01*
X117038971Y-78563561D02*
X116886590Y-78563561D01*
X116886590Y-78563561D02*
X116810399Y-78601657D01*
X116810399Y-78601657D02*
X116772304Y-78639752D01*
X116772304Y-78639752D02*
X116734209Y-78715942D01*
X116734209Y-78715942D02*
X116734209Y-78944514D01*
X116734209Y-78944514D02*
X116772304Y-79020704D01*
X116772304Y-79020704D02*
X116810399Y-79058800D01*
X116810399Y-79058800D02*
X116886590Y-79096895D01*
X116886590Y-79096895D02*
X117038971Y-79096895D01*
X117038971Y-79096895D02*
X117115161Y-79058800D01*
X116391351Y-79096895D02*
X116391351Y-78563561D01*
X116391351Y-78715942D02*
X116353256Y-78639752D01*
X116353256Y-78639752D02*
X116315161Y-78601657D01*
X116315161Y-78601657D02*
X116238970Y-78563561D01*
X116238970Y-78563561D02*
X116162780Y-78563561D01*
X115781828Y-79096895D02*
X115858018Y-79058800D01*
X115858018Y-79058800D02*
X115896113Y-79020704D01*
X115896113Y-79020704D02*
X115934209Y-78944514D01*
X115934209Y-78944514D02*
X115934209Y-78715942D01*
X115934209Y-78715942D02*
X115896113Y-78639752D01*
X115896113Y-78639752D02*
X115858018Y-78601657D01*
X115858018Y-78601657D02*
X115781828Y-78563561D01*
X115781828Y-78563561D02*
X115667542Y-78563561D01*
X115667542Y-78563561D02*
X115591351Y-78601657D01*
X115591351Y-78601657D02*
X115553256Y-78639752D01*
X115553256Y-78639752D02*
X115515161Y-78715942D01*
X115515161Y-78715942D02*
X115515161Y-78944514D01*
X115515161Y-78944514D02*
X115553256Y-79020704D01*
X115553256Y-79020704D02*
X115591351Y-79058800D01*
X115591351Y-79058800D02*
X115667542Y-79096895D01*
X115667542Y-79096895D02*
X115781828Y-79096895D01*
X115172303Y-79096895D02*
X115172303Y-78296895D01*
X115172303Y-78601657D02*
X115096113Y-78563561D01*
X115096113Y-78563561D02*
X114943732Y-78563561D01*
X114943732Y-78563561D02*
X114867541Y-78601657D01*
X114867541Y-78601657D02*
X114829446Y-78639752D01*
X114829446Y-78639752D02*
X114791351Y-78715942D01*
X114791351Y-78715942D02*
X114791351Y-78944514D01*
X114791351Y-78944514D02*
X114829446Y-79020704D01*
X114829446Y-79020704D02*
X114867541Y-79058800D01*
X114867541Y-79058800D02*
X114943732Y-79096895D01*
X114943732Y-79096895D02*
X115096113Y-79096895D01*
X115096113Y-79096895D02*
X115172303Y-79058800D01*
X114334208Y-79096895D02*
X114410398Y-79058800D01*
X114410398Y-79058800D02*
X114448493Y-79020704D01*
X114448493Y-79020704D02*
X114486589Y-78944514D01*
X114486589Y-78944514D02*
X114486589Y-78715942D01*
X114486589Y-78715942D02*
X114448493Y-78639752D01*
X114448493Y-78639752D02*
X114410398Y-78601657D01*
X114410398Y-78601657D02*
X114334208Y-78563561D01*
X114334208Y-78563561D02*
X114219922Y-78563561D01*
X114219922Y-78563561D02*
X114143731Y-78601657D01*
X114143731Y-78601657D02*
X114105636Y-78639752D01*
X114105636Y-78639752D02*
X114067541Y-78715942D01*
X114067541Y-78715942D02*
X114067541Y-78944514D01*
X114067541Y-78944514D02*
X114105636Y-79020704D01*
X114105636Y-79020704D02*
X114143731Y-79058800D01*
X114143731Y-79058800D02*
X114219922Y-79096895D01*
X114219922Y-79096895D02*
X114334208Y-79096895D01*
X113838969Y-78563561D02*
X113534207Y-78563561D01*
X113724683Y-78296895D02*
X113724683Y-78982609D01*
X113724683Y-78982609D02*
X113686588Y-79058800D01*
X113686588Y-79058800D02*
X113610398Y-79096895D01*
X113610398Y-79096895D02*
X113534207Y-79096895D01*
X112962778Y-79058800D02*
X113038969Y-79096895D01*
X113038969Y-79096895D02*
X113191350Y-79096895D01*
X113191350Y-79096895D02*
X113267540Y-79058800D01*
X113267540Y-79058800D02*
X113305636Y-78982609D01*
X113305636Y-78982609D02*
X113305636Y-78677847D01*
X113305636Y-78677847D02*
X113267540Y-78601657D01*
X113267540Y-78601657D02*
X113191350Y-78563561D01*
X113191350Y-78563561D02*
X113038969Y-78563561D01*
X113038969Y-78563561D02*
X112962778Y-78601657D01*
X112962778Y-78601657D02*
X112924683Y-78677847D01*
X112924683Y-78677847D02*
X112924683Y-78754038D01*
X112924683Y-78754038D02*
X113305636Y-78830228D01*
X112581826Y-79096895D02*
X112581826Y-78563561D01*
X112581826Y-78715942D02*
X112543731Y-78639752D01*
X112543731Y-78639752D02*
X112505636Y-78601657D01*
X112505636Y-78601657D02*
X112429445Y-78563561D01*
X112429445Y-78563561D02*
X112353255Y-78563561D01*
X112086588Y-79096895D02*
X112086588Y-78563561D01*
X112086588Y-78715942D02*
X112048493Y-78639752D01*
X112048493Y-78639752D02*
X112010398Y-78601657D01*
X112010398Y-78601657D02*
X111934207Y-78563561D01*
X111934207Y-78563561D02*
X111858017Y-78563561D01*
X111477065Y-79096895D02*
X111553255Y-79058800D01*
X111553255Y-79058800D02*
X111591350Y-79020704D01*
X111591350Y-79020704D02*
X111629446Y-78944514D01*
X111629446Y-78944514D02*
X111629446Y-78715942D01*
X111629446Y-78715942D02*
X111591350Y-78639752D01*
X111591350Y-78639752D02*
X111553255Y-78601657D01*
X111553255Y-78601657D02*
X111477065Y-78563561D01*
X111477065Y-78563561D02*
X111362779Y-78563561D01*
X111362779Y-78563561D02*
X111286588Y-78601657D01*
X111286588Y-78601657D02*
X111248493Y-78639752D01*
X111248493Y-78639752D02*
X111210398Y-78715942D01*
X111210398Y-78715942D02*
X111210398Y-78944514D01*
X111210398Y-78944514D02*
X111248493Y-79020704D01*
X111248493Y-79020704D02*
X111286588Y-79058800D01*
X111286588Y-79058800D02*
X111362779Y-79096895D01*
X111362779Y-79096895D02*
X111477065Y-79096895D01*
X110867540Y-79096895D02*
X110867540Y-78563561D01*
X110867540Y-78715942D02*
X110829445Y-78639752D01*
X110829445Y-78639752D02*
X110791350Y-78601657D01*
X110791350Y-78601657D02*
X110715159Y-78563561D01*
X110715159Y-78563561D02*
X110638969Y-78563561D01*
X109800874Y-78258800D02*
X110486588Y-79287371D01*
X109572303Y-79058800D02*
X109496112Y-79096895D01*
X109496112Y-79096895D02*
X109343731Y-79096895D01*
X109343731Y-79096895D02*
X109267541Y-79058800D01*
X109267541Y-79058800D02*
X109229445Y-78982609D01*
X109229445Y-78982609D02*
X109229445Y-78944514D01*
X109229445Y-78944514D02*
X109267541Y-78868323D01*
X109267541Y-78868323D02*
X109343731Y-78830228D01*
X109343731Y-78830228D02*
X109458017Y-78830228D01*
X109458017Y-78830228D02*
X109534207Y-78792133D01*
X109534207Y-78792133D02*
X109572303Y-78715942D01*
X109572303Y-78715942D02*
X109572303Y-78677847D01*
X109572303Y-78677847D02*
X109534207Y-78601657D01*
X109534207Y-78601657D02*
X109458017Y-78563561D01*
X109458017Y-78563561D02*
X109343731Y-78563561D01*
X109343731Y-78563561D02*
X109267541Y-78601657D01*
X108886588Y-79096895D02*
X108886588Y-78563561D01*
X108886588Y-78639752D02*
X108848493Y-78601657D01*
X108848493Y-78601657D02*
X108772303Y-78563561D01*
X108772303Y-78563561D02*
X108658017Y-78563561D01*
X108658017Y-78563561D02*
X108581826Y-78601657D01*
X108581826Y-78601657D02*
X108543731Y-78677847D01*
X108543731Y-78677847D02*
X108543731Y-79096895D01*
X108543731Y-78677847D02*
X108505636Y-78601657D01*
X108505636Y-78601657D02*
X108429445Y-78563561D01*
X108429445Y-78563561D02*
X108315160Y-78563561D01*
X108315160Y-78563561D02*
X108238969Y-78601657D01*
X108238969Y-78601657D02*
X108200874Y-78677847D01*
X108200874Y-78677847D02*
X108200874Y-79096895D01*
X107477064Y-79096895D02*
X107477064Y-78296895D01*
X107477064Y-79058800D02*
X107553255Y-79096895D01*
X107553255Y-79096895D02*
X107705636Y-79096895D01*
X107705636Y-79096895D02*
X107781826Y-79058800D01*
X107781826Y-79058800D02*
X107819921Y-79020704D01*
X107819921Y-79020704D02*
X107858017Y-78944514D01*
X107858017Y-78944514D02*
X107858017Y-78715942D01*
X107858017Y-78715942D02*
X107819921Y-78639752D01*
X107819921Y-78639752D02*
X107781826Y-78601657D01*
X107781826Y-78601657D02*
X107705636Y-78563561D01*
X107705636Y-78563561D02*
X107553255Y-78563561D01*
X107553255Y-78563561D02*
X107477064Y-78601657D01*
X107134207Y-78373085D02*
X107096111Y-78334990D01*
X107096111Y-78334990D02*
X107019921Y-78296895D01*
X107019921Y-78296895D02*
X106829445Y-78296895D01*
X106829445Y-78296895D02*
X106753254Y-78334990D01*
X106753254Y-78334990D02*
X106715159Y-78373085D01*
X106715159Y-78373085D02*
X106677064Y-78449276D01*
X106677064Y-78449276D02*
X106677064Y-78525466D01*
X106677064Y-78525466D02*
X106715159Y-78639752D01*
X106715159Y-78639752D02*
X107172302Y-79096895D01*
X107172302Y-79096895D02*
X106677064Y-79096895D01*
X106410397Y-78563561D02*
X106258016Y-79096895D01*
X106258016Y-79096895D02*
X106105635Y-78715942D01*
X106105635Y-78715942D02*
X105953254Y-79096895D01*
X105953254Y-79096895D02*
X105800873Y-78563561D01*
X105496111Y-79096895D02*
X105496111Y-78563561D01*
X105496111Y-78296895D02*
X105534207Y-78334990D01*
X105534207Y-78334990D02*
X105496111Y-78373085D01*
X105496111Y-78373085D02*
X105458016Y-78334990D01*
X105458016Y-78334990D02*
X105496111Y-78296895D01*
X105496111Y-78296895D02*
X105496111Y-78373085D01*
X105115159Y-79096895D02*
X105115159Y-78563561D01*
X105115159Y-78296895D02*
X105153255Y-78334990D01*
X105153255Y-78334990D02*
X105115159Y-78373085D01*
X105115159Y-78373085D02*
X105077064Y-78334990D01*
X105077064Y-78334990D02*
X105115159Y-78296895D01*
X105115159Y-78296895D02*
X105115159Y-78373085D01*
M02*
