%TF.GenerationSoftware,KiCad,Pcbnew,7.0.9*%
%TF.CreationDate,2023-12-15T19:35:31+03:00*%
%TF.ProjectId,SMD2WII,534d4432-5749-4492-9e6b-696361645f70,rev?*%
%TF.SameCoordinates,Original*%
%TF.FileFunction,Copper,L2,Bot*%
%TF.FilePolarity,Positive*%
%FSLAX46Y46*%
G04 Gerber Fmt 4.6, Leading zero omitted, Abs format (unit mm)*
G04 Created by KiCad (PCBNEW 7.0.9) date 2023-12-15 19:35:31*
%MOMM*%
%LPD*%
G01*
G04 APERTURE LIST*
G04 Aperture macros list*
%AMFreePoly0*
4,1,5,1.500000,-1.250000,-1.500000,-1.250000,-1.500000,1.250000,1.500000,1.250000,1.500000,-1.250000,1.500000,-1.250000,$1*%
G04 Aperture macros list end*
%TA.AperFunction,ComponentPad*%
%ADD10R,1.600000X1.600000*%
%TD*%
%TA.AperFunction,ComponentPad*%
%ADD11C,1.600000*%
%TD*%
%TA.AperFunction,ComponentPad*%
%ADD12R,5.000000X5.000000*%
%TD*%
%TA.AperFunction,ComponentPad*%
%ADD13C,2.000000*%
%TD*%
%TA.AperFunction,ComponentPad*%
%ADD14FreePoly0,180.000000*%
%TD*%
%TA.AperFunction,ComponentPad*%
%ADD15C,1.500000*%
%TD*%
%TA.AperFunction,ComponentPad*%
%ADD16R,1.700000X1.700000*%
%TD*%
%TA.AperFunction,ComponentPad*%
%ADD17O,1.700000X1.700000*%
%TD*%
%TA.AperFunction,ViaPad*%
%ADD18C,1.000000*%
%TD*%
%TA.AperFunction,ViaPad*%
%ADD19C,0.800000*%
%TD*%
%TA.AperFunction,Conductor*%
%ADD20C,1.000000*%
%TD*%
%TA.AperFunction,Conductor*%
%ADD21C,0.500000*%
%TD*%
G04 APERTURE END LIST*
D10*
%TO.P,C1,1*%
%TO.N,VCC*%
X104344888Y-95500000D03*
D11*
%TO.P,C1,2*%
%TO.N,GND*%
X106844888Y-95500000D03*
%TD*%
D12*
%TO.P,J2,0*%
%TO.N,N/C*%
X126160000Y-63110331D03*
X101160000Y-63110331D03*
D13*
%TO.P,J2,1,1*%
%TO.N,/SMD_D0*%
X119200000Y-64530331D03*
%TO.P,J2,2,2*%
%TO.N,/SMD_D1*%
X116430000Y-64530331D03*
%TO.P,J2,3,3*%
%TO.N,/SMD_D2*%
X113660000Y-64530331D03*
%TO.P,J2,4,4*%
%TO.N,/SMD_D3*%
X110890000Y-64530331D03*
%TO.P,J2,5,5*%
%TO.N,VCC*%
X108120000Y-64530331D03*
%TO.P,J2,6,6*%
%TO.N,/SMD_D4*%
X117815000Y-61690331D03*
%TO.P,J2,7,7*%
%TO.N,/SMD_SELECT*%
X115045000Y-61690331D03*
%TO.P,J2,8,8*%
%TO.N,GND*%
X112275000Y-61690331D03*
%TO.P,J2,9,9*%
%TO.N,/SMD_D5*%
X109505000Y-61690331D03*
%TD*%
D14*
%TO.P,J1,*%
%TO.N,*%
X119650000Y-107000000D03*
X107650000Y-107000000D03*
D15*
%TO.P,J1,1,VCC*%
%TO.N,VCC*%
X115450000Y-103250000D03*
%TO.P,J1,2,DTC*%
%TO.N,/DTC*%
X113650000Y-103250000D03*
%TO.P,J1,3,SDA*%
%TO.N,/SDA*%
X111850000Y-103250000D03*
%TO.P,J1,4,SCL*%
%TO.N,/SCL*%
X115450000Y-105250000D03*
%TO.P,J1,5*%
%TO.N,unconnected-(J1-Pad5)*%
X113650000Y-105250000D03*
%TO.P,J1,6,GND*%
%TO.N,GND*%
X111850000Y-105250000D03*
%TD*%
D16*
%TO.P,J3,1,Pin_1*%
%TO.N,GND*%
X101050000Y-72770000D03*
D17*
%TO.P,J3,2,Pin_2*%
%TO.N,RESET*%
X101050000Y-75310000D03*
%TO.P,J3,3,Pin_3*%
%TO.N,/MOSI*%
X101050000Y-77850000D03*
%TO.P,J3,4,Pin_4*%
%TO.N,/MISO*%
X101050000Y-80390000D03*
%TO.P,J3,5,Pin_5*%
%TO.N,/SCK*%
X101050000Y-82930000D03*
%TO.P,J3,6,Pin_6*%
%TO.N,VCC*%
X101050000Y-85470000D03*
%TD*%
D18*
%TO.N,VCC*%
X124850000Y-88900000D03*
X106900000Y-85470000D03*
%TO.N,GND*%
X113850000Y-70850000D03*
X123600000Y-70050000D03*
X109850000Y-92850000D03*
D19*
%TO.N,/DTC*%
X124900000Y-97700000D03*
X121650000Y-97700000D03*
%TO.N,/SMD_D4*%
X118000000Y-67650000D03*
X121150000Y-67600000D03*
%TO.N,/SMD_SELECT*%
X122500000Y-68700000D03*
X115100000Y-68700000D03*
%TO.N,RESET*%
X115650000Y-78350000D03*
%TD*%
D20*
%TO.N,VCC*%
X117400000Y-88900000D02*
X120900000Y-88900000D01*
X106900000Y-85500000D02*
X110300000Y-88900000D01*
X117200000Y-74900000D02*
X110800000Y-74900000D01*
X120900000Y-88900000D02*
X120900000Y-78600000D01*
X106900000Y-85470000D02*
X106900000Y-85500000D01*
X120900000Y-88900000D02*
X124850000Y-88900000D01*
X115450000Y-90850000D02*
X117400000Y-88900000D01*
X115450000Y-103050000D02*
X115450000Y-91050000D01*
X120900000Y-78600000D02*
X117200000Y-74900000D01*
X110800000Y-74900000D02*
X108120000Y-72220000D01*
X108120000Y-72220000D02*
X108120000Y-64530331D01*
X113500000Y-88900000D02*
X115450000Y-90850000D01*
X110300000Y-88900000D02*
X113500000Y-88900000D01*
D21*
%TO.N,/DTC*%
X121750000Y-97700000D02*
X124900000Y-97700000D01*
%TO.N,/SMD_D4*%
X121150000Y-67600000D02*
X118050000Y-67600000D01*
%TO.N,/SMD_SELECT*%
X122500000Y-68700000D02*
X115100000Y-68700000D01*
%TO.N,RESET*%
X102930000Y-75310000D02*
X101050000Y-75310000D01*
X105970000Y-78350000D02*
X102930000Y-75310000D01*
X115650000Y-78350000D02*
X105970000Y-78350000D01*
%TD*%
%TA.AperFunction,Conductor*%
%TO.N,GND*%
G36*
X129142539Y-53920185D02*
G01*
X129188294Y-53972989D01*
X129199500Y-54024500D01*
X129199500Y-60131280D01*
X129179815Y-60198319D01*
X129127011Y-60244074D01*
X129057853Y-60254018D01*
X129001189Y-60230547D01*
X128906204Y-60159442D01*
X128769203Y-60108342D01*
X128708654Y-60101831D01*
X128708638Y-60101831D01*
X123611362Y-60101831D01*
X123611345Y-60101831D01*
X123550797Y-60108342D01*
X123550795Y-60108342D01*
X123413795Y-60159442D01*
X123296739Y-60247070D01*
X123209111Y-60364126D01*
X123158011Y-60501126D01*
X123158011Y-60501128D01*
X123151500Y-60561676D01*
X123151500Y-65658985D01*
X123158011Y-65719533D01*
X123158011Y-65719535D01*
X123209111Y-65856535D01*
X123296739Y-65973592D01*
X123413796Y-66061220D01*
X123550799Y-66112320D01*
X123578050Y-66115249D01*
X123611345Y-66118830D01*
X123611362Y-66118831D01*
X128708638Y-66118831D01*
X128708654Y-66118830D01*
X128735692Y-66115922D01*
X128769201Y-66112320D01*
X128906204Y-66061220D01*
X129001191Y-65990113D01*
X129066653Y-65965697D01*
X129134926Y-65980548D01*
X129184332Y-66029953D01*
X129199500Y-66089381D01*
X129199500Y-108175500D01*
X129179815Y-108242539D01*
X129127011Y-108288294D01*
X129075500Y-108299500D01*
X121787729Y-108299500D01*
X121720690Y-108279815D01*
X121674935Y-108227011D01*
X121663729Y-108175500D01*
X121663729Y-105750000D01*
X121658500Y-105676888D01*
X121637469Y-105605265D01*
X121617304Y-105536589D01*
X121574106Y-105469372D01*
X121538251Y-105413580D01*
X121478436Y-105361750D01*
X121427743Y-105317824D01*
X121427741Y-105317823D01*
X121294734Y-105257080D01*
X121182323Y-105240918D01*
X121150000Y-105236271D01*
X118150000Y-105236271D01*
X118076888Y-105241499D01*
X117936586Y-105282697D01*
X117813580Y-105361748D01*
X117717824Y-105472257D01*
X117717823Y-105472258D01*
X117657080Y-105605265D01*
X117636271Y-105750000D01*
X117636271Y-108175500D01*
X117616586Y-108242539D01*
X117563782Y-108288294D01*
X117512271Y-108299500D01*
X109787729Y-108299500D01*
X109720690Y-108279815D01*
X109674935Y-108227011D01*
X109663729Y-108175500D01*
X109663729Y-105750000D01*
X109658500Y-105676888D01*
X109637469Y-105605265D01*
X109617304Y-105536589D01*
X109574106Y-105469372D01*
X109538251Y-105413580D01*
X109478436Y-105361750D01*
X109427743Y-105317824D01*
X109427741Y-105317823D01*
X109294734Y-105257080D01*
X109182323Y-105240918D01*
X109150000Y-105236271D01*
X106150000Y-105236271D01*
X106076888Y-105241499D01*
X105936586Y-105282697D01*
X105813580Y-105361748D01*
X105717824Y-105472257D01*
X105717823Y-105472258D01*
X105657080Y-105605265D01*
X105636271Y-105750000D01*
X105636271Y-108175500D01*
X105616586Y-108242539D01*
X105563782Y-108288294D01*
X105512271Y-108299500D01*
X98224500Y-108299500D01*
X98157461Y-108279815D01*
X98111706Y-108227011D01*
X98100500Y-108175500D01*
X98100500Y-96348654D01*
X103036388Y-96348654D01*
X103042899Y-96409202D01*
X103042899Y-96409204D01*
X103093999Y-96546204D01*
X103181627Y-96663261D01*
X103298684Y-96750889D01*
X103435687Y-96801989D01*
X103462938Y-96804918D01*
X103496233Y-96808499D01*
X103496250Y-96808500D01*
X105193526Y-96808500D01*
X105193542Y-96808499D01*
X105220580Y-96805591D01*
X105254089Y-96801989D01*
X105391092Y-96750889D01*
X105508149Y-96663261D01*
X105595777Y-96546204D01*
X105646877Y-96409201D01*
X105650479Y-96375692D01*
X105653387Y-96348654D01*
X105653565Y-96345331D01*
X105653743Y-96345340D01*
X105653744Y-96345335D01*
X105653847Y-96345346D01*
X105655016Y-96345408D01*
X105673073Y-96283915D01*
X105725877Y-96238160D01*
X105758854Y-96232480D01*
X106446934Y-95544399D01*
X106459723Y-95625148D01*
X106517247Y-95738045D01*
X106606843Y-95827641D01*
X106719740Y-95885165D01*
X106800487Y-95897953D01*
X106119414Y-96579025D01*
X106119414Y-96579026D01*
X106192400Y-96630131D01*
X106192404Y-96630133D01*
X106398561Y-96726265D01*
X106398570Y-96726269D01*
X106618277Y-96785139D01*
X106618288Y-96785141D01*
X106844886Y-96804966D01*
X106844890Y-96804966D01*
X107071487Y-96785141D01*
X107071498Y-96785139D01*
X107291205Y-96726269D01*
X107291219Y-96726264D01*
X107497366Y-96630136D01*
X107570360Y-96579025D01*
X106889289Y-95897953D01*
X106970036Y-95885165D01*
X107082933Y-95827641D01*
X107172529Y-95738045D01*
X107230053Y-95625148D01*
X107242841Y-95544400D01*
X107923913Y-96225472D01*
X107975024Y-96152478D01*
X108071152Y-95946331D01*
X108071157Y-95946317D01*
X108130027Y-95726610D01*
X108130029Y-95726599D01*
X108149854Y-95500002D01*
X108149854Y-95499997D01*
X108130029Y-95273400D01*
X108130027Y-95273389D01*
X108071157Y-95053682D01*
X108071153Y-95053673D01*
X107975021Y-94847516D01*
X107975019Y-94847512D01*
X107923914Y-94774526D01*
X107923913Y-94774526D01*
X107242841Y-95455598D01*
X107230053Y-95374852D01*
X107172529Y-95261955D01*
X107082933Y-95172359D01*
X106970036Y-95114835D01*
X106889288Y-95102046D01*
X107570360Y-94420974D01*
X107570359Y-94420973D01*
X107497371Y-94369866D01*
X107497369Y-94369865D01*
X107291214Y-94273734D01*
X107291205Y-94273730D01*
X107071498Y-94214860D01*
X107071487Y-94214858D01*
X106844890Y-94195034D01*
X106844886Y-94195034D01*
X106618288Y-94214858D01*
X106618277Y-94214860D01*
X106398570Y-94273730D01*
X106398561Y-94273734D01*
X106192401Y-94369868D01*
X106119415Y-94420972D01*
X106119414Y-94420973D01*
X106800488Y-95102046D01*
X106719740Y-95114835D01*
X106606843Y-95172359D01*
X106517247Y-95261955D01*
X106459723Y-95374852D01*
X106446934Y-95455599D01*
X105757797Y-94766462D01*
X105719694Y-94758804D01*
X105669511Y-94710188D01*
X105654853Y-94654600D01*
X105653847Y-94654653D01*
X105653744Y-94654665D01*
X105653743Y-94654659D01*
X105653565Y-94654669D01*
X105653387Y-94651345D01*
X105650045Y-94620270D01*
X105646877Y-94590799D01*
X105595777Y-94453796D01*
X105508149Y-94336739D01*
X105391092Y-94249111D01*
X105254091Y-94198011D01*
X105193542Y-94191500D01*
X105193526Y-94191500D01*
X103496250Y-94191500D01*
X103496233Y-94191500D01*
X103435685Y-94198011D01*
X103435683Y-94198011D01*
X103298683Y-94249111D01*
X103181627Y-94336739D01*
X103093999Y-94453795D01*
X103042899Y-94590795D01*
X103042899Y-94590797D01*
X103036388Y-94651345D01*
X103036388Y-96348654D01*
X98100500Y-96348654D01*
X98100500Y-85470005D01*
X99686844Y-85470005D01*
X99705434Y-85694359D01*
X99705436Y-85694371D01*
X99760703Y-85912614D01*
X99851140Y-86118792D01*
X99974276Y-86307265D01*
X99974284Y-86307276D01*
X100126756Y-86472902D01*
X100126760Y-86472906D01*
X100304424Y-86611189D01*
X100304425Y-86611189D01*
X100304427Y-86611191D01*
X100431135Y-86679761D01*
X100502426Y-86718342D01*
X100715365Y-86791444D01*
X100937431Y-86828500D01*
X101162569Y-86828500D01*
X101384635Y-86791444D01*
X101597574Y-86718342D01*
X101795576Y-86611189D01*
X101973240Y-86472906D01*
X102125722Y-86307268D01*
X102248860Y-86118791D01*
X102339296Y-85912616D01*
X102394564Y-85694368D01*
X102410670Y-85500000D01*
X102410670Y-85499999D01*
X105886620Y-85499999D01*
X105906091Y-85697703D01*
X105963759Y-85887805D01*
X106057401Y-86062998D01*
X106057405Y-86063005D01*
X106183430Y-86216567D01*
X106219566Y-86246222D01*
X106224067Y-86250301D01*
X109549696Y-89575930D01*
X109553776Y-89580432D01*
X109583432Y-89616568D01*
X109736994Y-89742594D01*
X109737001Y-89742598D01*
X109912192Y-89836239D01*
X109912196Y-89836241D01*
X110102299Y-89893909D01*
X110300000Y-89913380D01*
X110333482Y-89910082D01*
X110346518Y-89908799D01*
X110352598Y-89908500D01*
X113030904Y-89908500D01*
X113097943Y-89928185D01*
X113118585Y-89944819D01*
X114405181Y-91231415D01*
X114438666Y-91292738D01*
X114441500Y-91319096D01*
X114441500Y-102035840D01*
X114421815Y-102102879D01*
X114369011Y-102148634D01*
X114299853Y-102158578D01*
X114265096Y-102148222D01*
X114082082Y-102062882D01*
X114082077Y-102062880D01*
X114082076Y-102062880D01*
X113955699Y-102029017D01*
X113869372Y-102005885D01*
X113869365Y-102005884D01*
X113650002Y-101986693D01*
X113649998Y-101986693D01*
X113430634Y-102005884D01*
X113430627Y-102005885D01*
X113217920Y-102062881D01*
X113018346Y-102155944D01*
X113018342Y-102155946D01*
X112837967Y-102282247D01*
X112837960Y-102282252D01*
X112837681Y-102282532D01*
X112837527Y-102282615D01*
X112833819Y-102285728D01*
X112833193Y-102284982D01*
X112776358Y-102316017D01*
X112706666Y-102311033D01*
X112666571Y-102285264D01*
X112666182Y-102285729D01*
X112662546Y-102282678D01*
X112662319Y-102282532D01*
X112662038Y-102282251D01*
X112641500Y-102267870D01*
X112481654Y-102155944D01*
X112367855Y-102102879D01*
X112282081Y-102062882D01*
X112282079Y-102062881D01*
X112282076Y-102062880D01*
X112130777Y-102022339D01*
X112069372Y-102005885D01*
X112069365Y-102005884D01*
X111850002Y-101986693D01*
X111849998Y-101986693D01*
X111630634Y-102005884D01*
X111630627Y-102005885D01*
X111417920Y-102062881D01*
X111218346Y-102155944D01*
X111218342Y-102155946D01*
X111037967Y-102282247D01*
X111037960Y-102282252D01*
X110882252Y-102437960D01*
X110882247Y-102437967D01*
X110755946Y-102618342D01*
X110755944Y-102618346D01*
X110662881Y-102817920D01*
X110605885Y-103030627D01*
X110605884Y-103030634D01*
X110586693Y-103249997D01*
X110586693Y-103250000D01*
X110605885Y-103469371D01*
X110662880Y-103682076D01*
X110755944Y-103881654D01*
X110882251Y-104062038D01*
X111037962Y-104217749D01*
X111218346Y-104344056D01*
X111347047Y-104404069D01*
X111382323Y-104428770D01*
X111953553Y-105000000D01*
X111625376Y-105000000D01*
X111552455Y-105014505D01*
X111469760Y-105069760D01*
X111414505Y-105152455D01*
X111411916Y-105165468D01*
X110806875Y-104560427D01*
X110806875Y-104560428D01*
X110763333Y-104622612D01*
X110763332Y-104622614D01*
X110670898Y-104820840D01*
X110670894Y-104820849D01*
X110614289Y-105032105D01*
X110614287Y-105032115D01*
X110595225Y-105249999D01*
X110595225Y-105250000D01*
X110614287Y-105467884D01*
X110614289Y-105467894D01*
X110670894Y-105679150D01*
X110670898Y-105679159D01*
X110763335Y-105877391D01*
X110806873Y-105939571D01*
X110806875Y-105939572D01*
X111411916Y-105334530D01*
X111414505Y-105347545D01*
X111469760Y-105430240D01*
X111552455Y-105485495D01*
X111625376Y-105500000D01*
X111953551Y-105500000D01*
X111160426Y-106293124D01*
X111222611Y-106336666D01*
X111222613Y-106336667D01*
X111420840Y-106429101D01*
X111420849Y-106429105D01*
X111632105Y-106485710D01*
X111632115Y-106485712D01*
X111849999Y-106504775D01*
X111850001Y-106504775D01*
X112067884Y-106485712D01*
X112067894Y-106485710D01*
X112279150Y-106429105D01*
X112279159Y-106429101D01*
X112477387Y-106336666D01*
X112656554Y-106211212D01*
X112660698Y-106207735D01*
X112661461Y-106208644D01*
X112717632Y-106177973D01*
X112787324Y-106182957D01*
X112831671Y-106211458D01*
X112837962Y-106217749D01*
X113018346Y-106344056D01*
X113217924Y-106437120D01*
X113430629Y-106494115D01*
X113587322Y-106507823D01*
X113649998Y-106513307D01*
X113650000Y-106513307D01*
X113650002Y-106513307D01*
X113704842Y-106508509D01*
X113869371Y-106494115D01*
X114082076Y-106437120D01*
X114281654Y-106344056D01*
X114462038Y-106217749D01*
X114462319Y-106217468D01*
X114462471Y-106217384D01*
X114466182Y-106214271D01*
X114466807Y-106215016D01*
X114523642Y-106183983D01*
X114593334Y-106188967D01*
X114633428Y-106214735D01*
X114633818Y-106214271D01*
X114637453Y-106217321D01*
X114637681Y-106217468D01*
X114637962Y-106217749D01*
X114818346Y-106344056D01*
X115017924Y-106437120D01*
X115230629Y-106494115D01*
X115387322Y-106507823D01*
X115449998Y-106513307D01*
X115450000Y-106513307D01*
X115450002Y-106513307D01*
X115504842Y-106508509D01*
X115669371Y-106494115D01*
X115882076Y-106437120D01*
X116081654Y-106344056D01*
X116262038Y-106217749D01*
X116417749Y-106062038D01*
X116544056Y-105881654D01*
X116637120Y-105682076D01*
X116694115Y-105469371D01*
X116709516Y-105293333D01*
X116713307Y-105250002D01*
X116713307Y-105249997D01*
X116694115Y-105030634D01*
X116694115Y-105030629D01*
X116637120Y-104817924D01*
X116544056Y-104618347D01*
X116544054Y-104618344D01*
X116544053Y-104618342D01*
X116457068Y-104494115D01*
X116417749Y-104437962D01*
X116317468Y-104337681D01*
X116283983Y-104276358D01*
X116288967Y-104206666D01*
X116317468Y-104162319D01*
X116350000Y-104129787D01*
X116417749Y-104062038D01*
X116544056Y-103881654D01*
X116637120Y-103682076D01*
X116694115Y-103469371D01*
X116713307Y-103250000D01*
X116694115Y-103030629D01*
X116637120Y-102817924D01*
X116544056Y-102618347D01*
X116480925Y-102528186D01*
X116458598Y-102461980D01*
X116458500Y-102457063D01*
X116458500Y-97700000D01*
X120736496Y-97700000D01*
X120756458Y-97889928D01*
X120756459Y-97889931D01*
X120815470Y-98071549D01*
X120815473Y-98071556D01*
X120910960Y-98236944D01*
X121038747Y-98378866D01*
X121193248Y-98491118D01*
X121367712Y-98568794D01*
X121554513Y-98608500D01*
X121745487Y-98608500D01*
X121932288Y-98568794D01*
X122106752Y-98491118D01*
X122119051Y-98482181D01*
X122184858Y-98458702D01*
X122191937Y-98458500D01*
X124358063Y-98458500D01*
X124425102Y-98478185D01*
X124430949Y-98482182D01*
X124443249Y-98491119D01*
X124510220Y-98520935D01*
X124617712Y-98568794D01*
X124804513Y-98608500D01*
X124995487Y-98608500D01*
X125182288Y-98568794D01*
X125356752Y-98491118D01*
X125511253Y-98378866D01*
X125639040Y-98236944D01*
X125734527Y-98071556D01*
X125793542Y-97889928D01*
X125813504Y-97700000D01*
X125793542Y-97510072D01*
X125734527Y-97328444D01*
X125639040Y-97163056D01*
X125511253Y-97021134D01*
X125356752Y-96908882D01*
X125182288Y-96831206D01*
X125182286Y-96831205D01*
X124995487Y-96791500D01*
X124804513Y-96791500D01*
X124617714Y-96831205D01*
X124443249Y-96908880D01*
X124430949Y-96917818D01*
X124365142Y-96941298D01*
X124358063Y-96941500D01*
X122191937Y-96941500D01*
X122124898Y-96921815D01*
X122119051Y-96917818D01*
X122106750Y-96908880D01*
X121972807Y-96849246D01*
X121932288Y-96831206D01*
X121932286Y-96831205D01*
X121745487Y-96791500D01*
X121554513Y-96791500D01*
X121367714Y-96831205D01*
X121367712Y-96831206D01*
X121193253Y-96908880D01*
X121193246Y-96908883D01*
X121038745Y-97021135D01*
X120910959Y-97163057D01*
X120815473Y-97328443D01*
X120815470Y-97328450D01*
X120756459Y-97510068D01*
X120756458Y-97510072D01*
X120736496Y-97700000D01*
X116458500Y-97700000D01*
X116458500Y-91319096D01*
X116478185Y-91252057D01*
X116494819Y-91231415D01*
X117781415Y-89944819D01*
X117842738Y-89911334D01*
X117869096Y-89908500D01*
X120847404Y-89908500D01*
X120853485Y-89908799D01*
X120866077Y-89910038D01*
X120900000Y-89913380D01*
X120933922Y-89910038D01*
X120946515Y-89908799D01*
X120952596Y-89908500D01*
X124797404Y-89908500D01*
X124803485Y-89908799D01*
X124817051Y-89910134D01*
X124850000Y-89913380D01*
X125047701Y-89893908D01*
X125237804Y-89836241D01*
X125413004Y-89742595D01*
X125566568Y-89616568D01*
X125692595Y-89463004D01*
X125786241Y-89287804D01*
X125843908Y-89097701D01*
X125863380Y-88900000D01*
X125843908Y-88702299D01*
X125786241Y-88512196D01*
X125786239Y-88512193D01*
X125786239Y-88512191D01*
X125692598Y-88337001D01*
X125692594Y-88336994D01*
X125566568Y-88183431D01*
X125413005Y-88057405D01*
X125412998Y-88057401D01*
X125237808Y-87963760D01*
X125142752Y-87934925D01*
X125047701Y-87906092D01*
X125047699Y-87906091D01*
X125047701Y-87906091D01*
X124867725Y-87888365D01*
X124850000Y-87886620D01*
X124849999Y-87886620D01*
X124803485Y-87891201D01*
X124797404Y-87891500D01*
X122032500Y-87891500D01*
X121965461Y-87871815D01*
X121919706Y-87819011D01*
X121908500Y-87767500D01*
X121908500Y-78652595D01*
X121908799Y-78646514D01*
X121909780Y-78636546D01*
X121913380Y-78600000D01*
X121893908Y-78402299D01*
X121836241Y-78212196D01*
X121792830Y-78130979D01*
X121742595Y-78036996D01*
X121742594Y-78036994D01*
X121616568Y-77883432D01*
X121580432Y-77853776D01*
X121575930Y-77849696D01*
X117950301Y-74224067D01*
X117946222Y-74219566D01*
X117916567Y-74183430D01*
X117763005Y-74057405D01*
X117762998Y-74057401D01*
X117587805Y-73963759D01*
X117397703Y-73906091D01*
X117265900Y-73893110D01*
X117200000Y-73886620D01*
X117199999Y-73886620D01*
X117153482Y-73891201D01*
X117147402Y-73891500D01*
X111269096Y-73891500D01*
X111202057Y-73871815D01*
X111181415Y-73855181D01*
X109164819Y-71838585D01*
X109131334Y-71777262D01*
X109128500Y-71750904D01*
X109128500Y-68700000D01*
X114186496Y-68700000D01*
X114206458Y-68889928D01*
X114206459Y-68889931D01*
X114265470Y-69071549D01*
X114265473Y-69071556D01*
X114360960Y-69236944D01*
X114488747Y-69378866D01*
X114643248Y-69491118D01*
X114817712Y-69568794D01*
X115004513Y-69608500D01*
X115195487Y-69608500D01*
X115382288Y-69568794D01*
X115556752Y-69491118D01*
X115569051Y-69482181D01*
X115634858Y-69458702D01*
X115641937Y-69458500D01*
X121958063Y-69458500D01*
X122025102Y-69478185D01*
X122030949Y-69482182D01*
X122043249Y-69491119D01*
X122110220Y-69520935D01*
X122217712Y-69568794D01*
X122404513Y-69608500D01*
X122595487Y-69608500D01*
X122782288Y-69568794D01*
X122956752Y-69491118D01*
X123111253Y-69378866D01*
X123239040Y-69236944D01*
X123334527Y-69071556D01*
X123393542Y-68889928D01*
X123413504Y-68700000D01*
X123393542Y-68510072D01*
X123334527Y-68328444D01*
X123239040Y-68163056D01*
X123111253Y-68021134D01*
X122956752Y-67908882D01*
X122782288Y-67831206D01*
X122782286Y-67831205D01*
X122595487Y-67791500D01*
X122404513Y-67791500D01*
X122217715Y-67831204D01*
X122214487Y-67832254D01*
X122212515Y-67832310D01*
X122211355Y-67832557D01*
X122211309Y-67832344D01*
X122144645Y-67834248D01*
X122084813Y-67798166D01*
X122053987Y-67735464D01*
X122052850Y-67701365D01*
X122063504Y-67600000D01*
X122043542Y-67410072D01*
X121984527Y-67228444D01*
X121889040Y-67063056D01*
X121761253Y-66921134D01*
X121606752Y-66808882D01*
X121432288Y-66731206D01*
X121432286Y-66731205D01*
X121245487Y-66691500D01*
X121054513Y-66691500D01*
X120867714Y-66731205D01*
X120693249Y-66808880D01*
X120680949Y-66817818D01*
X120615142Y-66841298D01*
X120608063Y-66841500D01*
X118444068Y-66841500D01*
X118393633Y-66830780D01*
X118282287Y-66781205D01*
X118095487Y-66741500D01*
X117904513Y-66741500D01*
X117717714Y-66781205D01*
X117717712Y-66781206D01*
X117606367Y-66830780D01*
X117543246Y-66858883D01*
X117388745Y-66971135D01*
X117260959Y-67113057D01*
X117165473Y-67278443D01*
X117165470Y-67278450D01*
X117122705Y-67410068D01*
X117106458Y-67460072D01*
X117086496Y-67650000D01*
X117102738Y-67804540D01*
X117090170Y-67873268D01*
X117042438Y-67924292D01*
X116979418Y-67941500D01*
X115641937Y-67941500D01*
X115574898Y-67921815D01*
X115569051Y-67917818D01*
X115556750Y-67908880D01*
X115385322Y-67832557D01*
X115382288Y-67831206D01*
X115382286Y-67831205D01*
X115195487Y-67791500D01*
X115004513Y-67791500D01*
X114817714Y-67831205D01*
X114798122Y-67839928D01*
X114643253Y-67908880D01*
X114643246Y-67908883D01*
X114488745Y-68021135D01*
X114360959Y-68163057D01*
X114265473Y-68328443D01*
X114265470Y-68328450D01*
X114206459Y-68510068D01*
X114206458Y-68510072D01*
X114186496Y-68700000D01*
X109128500Y-68700000D01*
X109128500Y-65709964D01*
X109148185Y-65642925D01*
X109171971Y-65615672D01*
X109189959Y-65600309D01*
X109189960Y-65600307D01*
X109189969Y-65600300D01*
X109344176Y-65419747D01*
X109399273Y-65329838D01*
X109451085Y-65282963D01*
X109520014Y-65271540D01*
X109584177Y-65299197D01*
X109610727Y-65329838D01*
X109665820Y-65419741D01*
X109665821Y-65419744D01*
X109665824Y-65419747D01*
X109820031Y-65600300D01*
X109906531Y-65674178D01*
X110000586Y-65754509D01*
X110000589Y-65754510D01*
X110203037Y-65878571D01*
X110203040Y-65878573D01*
X110422403Y-65969435D01*
X110422404Y-65969435D01*
X110422406Y-65969436D01*
X110653289Y-66024866D01*
X110890000Y-66043496D01*
X111126711Y-66024866D01*
X111357594Y-65969436D01*
X111357596Y-65969435D01*
X111357597Y-65969435D01*
X111576959Y-65878573D01*
X111576960Y-65878572D01*
X111576963Y-65878571D01*
X111779416Y-65754507D01*
X111959969Y-65600300D01*
X112114176Y-65419747D01*
X112169273Y-65329838D01*
X112221085Y-65282963D01*
X112290014Y-65271540D01*
X112354177Y-65299197D01*
X112380727Y-65329838D01*
X112435820Y-65419741D01*
X112435821Y-65419744D01*
X112435824Y-65419747D01*
X112590031Y-65600300D01*
X112676531Y-65674178D01*
X112770586Y-65754509D01*
X112770589Y-65754510D01*
X112973037Y-65878571D01*
X112973040Y-65878573D01*
X113192403Y-65969435D01*
X113192404Y-65969435D01*
X113192406Y-65969436D01*
X113423289Y-66024866D01*
X113660000Y-66043496D01*
X113896711Y-66024866D01*
X114127594Y-65969436D01*
X114127596Y-65969435D01*
X114127597Y-65969435D01*
X114346959Y-65878573D01*
X114346960Y-65878572D01*
X114346963Y-65878571D01*
X114549416Y-65754507D01*
X114729969Y-65600300D01*
X114884176Y-65419747D01*
X114939273Y-65329838D01*
X114991085Y-65282963D01*
X115060014Y-65271540D01*
X115124177Y-65299197D01*
X115150727Y-65329838D01*
X115205820Y-65419741D01*
X115205821Y-65419744D01*
X115205824Y-65419747D01*
X115360031Y-65600300D01*
X115446531Y-65674178D01*
X115540586Y-65754509D01*
X115540589Y-65754510D01*
X115743037Y-65878571D01*
X115743040Y-65878573D01*
X115962403Y-65969435D01*
X115962404Y-65969435D01*
X115962406Y-65969436D01*
X116193289Y-66024866D01*
X116430000Y-66043496D01*
X116666711Y-66024866D01*
X116897594Y-65969436D01*
X116897596Y-65969435D01*
X116897597Y-65969435D01*
X117116959Y-65878573D01*
X117116960Y-65878572D01*
X117116963Y-65878571D01*
X117319416Y-65754507D01*
X117499969Y-65600300D01*
X117654176Y-65419747D01*
X117709273Y-65329838D01*
X117761085Y-65282963D01*
X117830014Y-65271540D01*
X117894177Y-65299197D01*
X117920727Y-65329838D01*
X117975820Y-65419741D01*
X117975821Y-65419744D01*
X117975824Y-65419747D01*
X118130031Y-65600300D01*
X118216531Y-65674178D01*
X118310586Y-65754509D01*
X118310589Y-65754510D01*
X118513037Y-65878571D01*
X118513040Y-65878573D01*
X118732403Y-65969435D01*
X118732404Y-65969435D01*
X118732406Y-65969436D01*
X118963289Y-66024866D01*
X119200000Y-66043496D01*
X119436711Y-66024866D01*
X119667594Y-65969436D01*
X119667596Y-65969435D01*
X119667597Y-65969435D01*
X119886959Y-65878573D01*
X119886960Y-65878572D01*
X119886963Y-65878571D01*
X120089416Y-65754507D01*
X120269969Y-65600300D01*
X120424176Y-65419747D01*
X120548240Y-65217294D01*
X120585001Y-65128546D01*
X120639104Y-64997928D01*
X120639104Y-64997927D01*
X120639105Y-64997925D01*
X120694535Y-64767042D01*
X120713165Y-64530331D01*
X120694535Y-64293620D01*
X120639105Y-64062737D01*
X120639104Y-64062734D01*
X120639104Y-64062733D01*
X120548242Y-63843371D01*
X120548240Y-63843368D01*
X120424179Y-63640920D01*
X120424178Y-63640917D01*
X120280326Y-63472489D01*
X120269969Y-63460362D01*
X120114900Y-63327920D01*
X120089413Y-63306152D01*
X120089410Y-63306151D01*
X119886962Y-63182090D01*
X119886959Y-63182088D01*
X119667596Y-63091226D01*
X119436714Y-63035796D01*
X119200000Y-63017166D01*
X118963289Y-63035796D01*
X118963285Y-63035796D01*
X118963284Y-63035797D01*
X118907880Y-63049098D01*
X118838098Y-63045607D01*
X118781281Y-63004943D01*
X118755468Y-62940016D01*
X118768854Y-62871441D01*
X118798399Y-62834237D01*
X118884969Y-62760300D01*
X119039176Y-62579747D01*
X119163240Y-62377294D01*
X119200001Y-62288546D01*
X119254104Y-62157928D01*
X119254104Y-62157927D01*
X119254105Y-62157925D01*
X119309535Y-61927042D01*
X119328165Y-61690331D01*
X119309535Y-61453620D01*
X119254105Y-61222737D01*
X119254104Y-61222734D01*
X119254104Y-61222733D01*
X119163242Y-61003371D01*
X119163240Y-61003368D01*
X119039179Y-60800920D01*
X119039178Y-60800917D01*
X119004340Y-60760128D01*
X118884969Y-60620362D01*
X118765596Y-60518407D01*
X118704413Y-60466152D01*
X118704410Y-60466151D01*
X118501962Y-60342090D01*
X118501959Y-60342088D01*
X118282596Y-60251226D01*
X118051714Y-60195796D01*
X117815000Y-60177166D01*
X117578285Y-60195796D01*
X117347404Y-60251226D01*
X117347402Y-60251226D01*
X117128040Y-60342088D01*
X117128037Y-60342090D01*
X116925589Y-60466151D01*
X116925586Y-60466152D01*
X116745031Y-60620362D01*
X116590821Y-60800917D01*
X116590820Y-60800920D01*
X116535727Y-60890823D01*
X116483915Y-60937699D01*
X116414985Y-60949121D01*
X116350823Y-60921463D01*
X116324273Y-60890823D01*
X116269179Y-60800920D01*
X116269178Y-60800917D01*
X116234340Y-60760128D01*
X116114969Y-60620362D01*
X115995596Y-60518407D01*
X115934413Y-60466152D01*
X115934410Y-60466151D01*
X115731962Y-60342090D01*
X115731959Y-60342088D01*
X115512596Y-60251226D01*
X115281714Y-60195796D01*
X115045000Y-60177166D01*
X114808285Y-60195796D01*
X114577404Y-60251226D01*
X114577402Y-60251226D01*
X114358040Y-60342088D01*
X114358037Y-60342090D01*
X114155589Y-60466151D01*
X114155586Y-60466152D01*
X113975031Y-60620362D01*
X113820821Y-60800917D01*
X113820820Y-60800920D01*
X113760985Y-60898561D01*
X113709173Y-60945437D01*
X113640243Y-60956859D01*
X113576080Y-60929201D01*
X113551450Y-60901593D01*
X113498434Y-60820447D01*
X112758076Y-61560806D01*
X112734493Y-61480487D01*
X112656761Y-61359533D01*
X112548100Y-61265379D01*
X112417315Y-61205651D01*
X112407534Y-61204244D01*
X113145057Y-60466721D01*
X113145056Y-60466720D01*
X113098229Y-60430274D01*
X112879614Y-60311966D01*
X112879603Y-60311961D01*
X112644493Y-60231247D01*
X112399293Y-60190331D01*
X112150707Y-60190331D01*
X111905506Y-60231247D01*
X111670396Y-60311961D01*
X111670390Y-60311963D01*
X111451761Y-60430280D01*
X111404942Y-60466719D01*
X111404942Y-60466721D01*
X112142466Y-61204244D01*
X112132685Y-61205651D01*
X112001900Y-61265379D01*
X111893239Y-61359533D01*
X111815507Y-61480487D01*
X111791923Y-61560806D01*
X111051564Y-60820447D01*
X110998550Y-60901592D01*
X110945403Y-60946948D01*
X110876172Y-60956372D01*
X110812836Y-60926870D01*
X110789014Y-60898560D01*
X110729179Y-60800920D01*
X110729178Y-60800917D01*
X110694340Y-60760128D01*
X110574969Y-60620362D01*
X110455596Y-60518407D01*
X110394413Y-60466152D01*
X110394410Y-60466151D01*
X110191962Y-60342090D01*
X110191959Y-60342088D01*
X109972596Y-60251226D01*
X109741714Y-60195796D01*
X109505000Y-60177166D01*
X109268285Y-60195796D01*
X109037404Y-60251226D01*
X109037402Y-60251226D01*
X108818040Y-60342088D01*
X108818037Y-60342090D01*
X108615589Y-60466151D01*
X108615586Y-60466152D01*
X108435031Y-60620362D01*
X108280821Y-60800917D01*
X108280820Y-60800920D01*
X108156759Y-61003368D01*
X108156757Y-61003371D01*
X108065895Y-61222733D01*
X108065895Y-61222735D01*
X108010465Y-61453616D01*
X107991835Y-61690331D01*
X108010465Y-61927045D01*
X108065895Y-62157926D01*
X108065895Y-62157928D01*
X108156757Y-62377290D01*
X108156759Y-62377293D01*
X108280820Y-62579741D01*
X108280821Y-62579744D01*
X108280824Y-62579747D01*
X108435031Y-62760300D01*
X108521597Y-62834234D01*
X108559790Y-62892741D01*
X108560288Y-62962609D01*
X108522935Y-63021655D01*
X108459588Y-63051133D01*
X108412118Y-63049098D01*
X108356714Y-63035796D01*
X108120000Y-63017166D01*
X107883285Y-63035796D01*
X107652404Y-63091226D01*
X107652402Y-63091226D01*
X107433040Y-63182088D01*
X107433037Y-63182090D01*
X107230589Y-63306151D01*
X107230586Y-63306152D01*
X107050031Y-63460362D01*
X106895821Y-63640917D01*
X106895820Y-63640920D01*
X106771759Y-63843368D01*
X106771757Y-63843371D01*
X106680895Y-64062733D01*
X106680895Y-64062735D01*
X106625465Y-64293616D01*
X106606835Y-64530331D01*
X106625465Y-64767045D01*
X106680895Y-64997926D01*
X106680895Y-64997928D01*
X106771757Y-65217290D01*
X106771759Y-65217293D01*
X106895820Y-65419741D01*
X106895821Y-65419744D01*
X106895824Y-65419747D01*
X107050031Y-65600300D01*
X107050034Y-65600303D01*
X107050040Y-65600309D01*
X107068029Y-65615672D01*
X107106224Y-65674178D01*
X107111500Y-65709964D01*
X107111500Y-72167401D01*
X107111201Y-72173481D01*
X107106620Y-72219999D01*
X107126091Y-72417703D01*
X107183759Y-72607805D01*
X107277401Y-72782998D01*
X107277405Y-72783005D01*
X107403430Y-72936567D01*
X107439566Y-72966222D01*
X107444067Y-72970301D01*
X110049696Y-75575930D01*
X110053776Y-75580432D01*
X110083432Y-75616568D01*
X110236994Y-75742594D01*
X110237001Y-75742598D01*
X110412191Y-75836239D01*
X110412193Y-75836239D01*
X110412196Y-75836241D01*
X110602299Y-75893908D01*
X110602298Y-75893908D01*
X110620024Y-75895653D01*
X110800000Y-75913380D01*
X110833922Y-75910038D01*
X110846515Y-75908799D01*
X110852596Y-75908500D01*
X116730904Y-75908500D01*
X116797943Y-75928185D01*
X116818585Y-75944819D01*
X119855181Y-78981415D01*
X119888666Y-79042738D01*
X119891500Y-79069096D01*
X119891500Y-87767500D01*
X119871815Y-87834539D01*
X119819011Y-87880294D01*
X119767500Y-87891500D01*
X117452596Y-87891500D01*
X117446515Y-87891201D01*
X117400000Y-87886620D01*
X117350453Y-87891500D01*
X117202300Y-87906091D01*
X117012191Y-87963760D01*
X116837001Y-88057401D01*
X116836994Y-88057405D01*
X116683431Y-88183432D01*
X116653775Y-88219567D01*
X116649687Y-88224077D01*
X115537680Y-89336084D01*
X115476357Y-89369569D01*
X115406665Y-89364585D01*
X115362318Y-89336084D01*
X114926234Y-88900000D01*
X114250301Y-88224067D01*
X114246222Y-88219566D01*
X114216567Y-88183430D01*
X114063005Y-88057405D01*
X114062998Y-88057401D01*
X113887805Y-87963759D01*
X113697703Y-87906091D01*
X113565900Y-87893110D01*
X113500000Y-87886620D01*
X113499999Y-87886620D01*
X113453482Y-87891201D01*
X113447402Y-87891500D01*
X110769096Y-87891500D01*
X110702057Y-87871815D01*
X110681415Y-87855181D01*
X107766355Y-84940121D01*
X107744676Y-84910890D01*
X107742595Y-84906996D01*
X107742593Y-84906994D01*
X107742593Y-84906993D01*
X107616568Y-84753431D01*
X107463005Y-84627405D01*
X107462998Y-84627401D01*
X107287808Y-84533760D01*
X107192752Y-84504925D01*
X107097701Y-84476092D01*
X107097699Y-84476091D01*
X107097701Y-84476091D01*
X106900000Y-84456620D01*
X106702300Y-84476091D01*
X106512191Y-84533760D01*
X106337001Y-84627401D01*
X106336994Y-84627405D01*
X106183431Y-84753431D01*
X106057405Y-84906994D01*
X106057401Y-84907001D01*
X105963760Y-85082191D01*
X105906091Y-85272300D01*
X105886620Y-85469999D01*
X105886620Y-85470000D01*
X105886816Y-85471991D01*
X105886901Y-85472854D01*
X105886901Y-85497145D01*
X105886620Y-85499999D01*
X102410670Y-85499999D01*
X102413156Y-85470005D01*
X102413156Y-85469994D01*
X102394565Y-85245640D01*
X102394563Y-85245628D01*
X102339296Y-85027385D01*
X102286491Y-84907001D01*
X102248860Y-84821209D01*
X102204578Y-84753431D01*
X102125723Y-84632734D01*
X102125715Y-84632723D01*
X101973243Y-84467097D01*
X101973238Y-84467092D01*
X101795577Y-84328812D01*
X101795578Y-84328812D01*
X101795576Y-84328811D01*
X101759070Y-84309055D01*
X101709479Y-84259836D01*
X101694371Y-84191619D01*
X101718541Y-84126064D01*
X101759070Y-84090945D01*
X101759084Y-84090936D01*
X101795576Y-84071189D01*
X101973240Y-83932906D01*
X102125722Y-83767268D01*
X102248860Y-83578791D01*
X102339296Y-83372616D01*
X102394564Y-83154368D01*
X102413156Y-82930000D01*
X102394564Y-82705632D01*
X102339296Y-82487384D01*
X102248860Y-82281209D01*
X102125722Y-82092732D01*
X102125719Y-82092729D01*
X102125715Y-82092723D01*
X101973243Y-81927097D01*
X101973238Y-81927092D01*
X101795577Y-81788812D01*
X101795578Y-81788812D01*
X101795576Y-81788811D01*
X101759070Y-81769055D01*
X101709479Y-81719836D01*
X101694371Y-81651619D01*
X101718541Y-81586064D01*
X101759070Y-81550945D01*
X101759084Y-81550936D01*
X101795576Y-81531189D01*
X101973240Y-81392906D01*
X102125722Y-81227268D01*
X102248860Y-81038791D01*
X102339296Y-80832616D01*
X102394564Y-80614368D01*
X102413156Y-80390000D01*
X102394564Y-80165632D01*
X102339296Y-79947384D01*
X102248860Y-79741209D01*
X102125722Y-79552732D01*
X102125719Y-79552729D01*
X102125715Y-79552723D01*
X101973243Y-79387097D01*
X101973238Y-79387092D01*
X101795577Y-79248812D01*
X101795578Y-79248812D01*
X101795576Y-79248811D01*
X101759070Y-79229055D01*
X101709479Y-79179836D01*
X101694371Y-79111619D01*
X101718541Y-79046064D01*
X101759070Y-79010945D01*
X101759084Y-79010936D01*
X101795576Y-78991189D01*
X101973240Y-78852906D01*
X102072614Y-78744957D01*
X102125715Y-78687276D01*
X102125716Y-78687274D01*
X102125722Y-78687268D01*
X102248860Y-78498791D01*
X102339296Y-78292616D01*
X102394564Y-78074368D01*
X102410386Y-77883432D01*
X102413156Y-77850005D01*
X102413156Y-77849994D01*
X102394565Y-77625640D01*
X102394563Y-77625628D01*
X102339296Y-77407385D01*
X102248859Y-77201207D01*
X102125723Y-77012734D01*
X102125715Y-77012723D01*
X101973243Y-76847097D01*
X101973238Y-76847092D01*
X101795577Y-76708812D01*
X101795578Y-76708812D01*
X101795576Y-76708811D01*
X101759070Y-76689055D01*
X101709479Y-76639836D01*
X101694371Y-76571619D01*
X101718541Y-76506064D01*
X101759070Y-76470945D01*
X101759084Y-76470936D01*
X101795576Y-76451189D01*
X101973240Y-76312906D01*
X102125722Y-76147268D01*
X102140482Y-76124675D01*
X102193628Y-76079321D01*
X102244289Y-76068500D01*
X102564457Y-76068500D01*
X102631496Y-76088185D01*
X102652138Y-76104819D01*
X105388196Y-78840877D01*
X105399977Y-78854509D01*
X105414531Y-78874058D01*
X105444807Y-78899463D01*
X105455005Y-78908020D01*
X105458995Y-78911676D01*
X105464899Y-78917580D01*
X105490896Y-78938136D01*
X105550360Y-78988032D01*
X105550362Y-78988033D01*
X105556396Y-78992002D01*
X105556369Y-78992042D01*
X105562921Y-78996216D01*
X105562947Y-78996175D01*
X105569099Y-78999970D01*
X105631064Y-79028864D01*
X105639447Y-79032773D01*
X105708812Y-79067609D01*
X105708813Y-79067609D01*
X105708815Y-79067610D01*
X105715594Y-79070077D01*
X105715577Y-79070122D01*
X105722925Y-79072676D01*
X105722941Y-79072631D01*
X105729790Y-79074901D01*
X105729793Y-79074901D01*
X105729794Y-79074902D01*
X105805818Y-79090599D01*
X105881344Y-79108500D01*
X105881345Y-79108500D01*
X105881349Y-79108501D01*
X105888517Y-79109339D01*
X105888511Y-79109386D01*
X105896242Y-79110176D01*
X105896247Y-79110129D01*
X105903437Y-79110758D01*
X105903441Y-79110757D01*
X105903442Y-79110758D01*
X105981045Y-79108500D01*
X115108063Y-79108500D01*
X115175102Y-79128185D01*
X115180949Y-79132182D01*
X115193249Y-79141119D01*
X115260220Y-79170935D01*
X115367712Y-79218794D01*
X115554513Y-79258500D01*
X115745487Y-79258500D01*
X115932288Y-79218794D01*
X116106752Y-79141118D01*
X116261253Y-79028866D01*
X116389040Y-78886944D01*
X116484527Y-78721556D01*
X116543542Y-78539928D01*
X116563504Y-78350000D01*
X116543542Y-78160072D01*
X116484527Y-77978444D01*
X116389040Y-77813056D01*
X116261253Y-77671134D01*
X116106752Y-77558882D01*
X115932288Y-77481206D01*
X115932286Y-77481205D01*
X115745487Y-77441500D01*
X115554513Y-77441500D01*
X115367714Y-77481205D01*
X115193249Y-77558880D01*
X115180949Y-77567818D01*
X115115142Y-77591298D01*
X115108063Y-77591500D01*
X106335543Y-77591500D01*
X106268504Y-77571815D01*
X106247862Y-77555181D01*
X103511804Y-74819123D01*
X103500022Y-74805490D01*
X103485472Y-74785946D01*
X103485471Y-74785945D01*
X103485469Y-74785942D01*
X103484595Y-74785208D01*
X103444987Y-74751972D01*
X103440998Y-74748317D01*
X103435102Y-74742421D01*
X103435101Y-74742420D01*
X103409103Y-74721863D01*
X103349640Y-74671968D01*
X103349635Y-74671965D01*
X103343605Y-74667999D01*
X103343630Y-74667959D01*
X103337069Y-74663779D01*
X103337045Y-74663820D01*
X103330904Y-74660031D01*
X103260540Y-74627220D01*
X103191185Y-74592389D01*
X103184401Y-74589920D01*
X103184416Y-74589876D01*
X103177071Y-74587322D01*
X103177057Y-74587367D01*
X103170205Y-74585096D01*
X103132177Y-74577244D01*
X103094149Y-74569392D01*
X103018656Y-74551500D01*
X103018654Y-74551500D01*
X103018646Y-74551498D01*
X103011482Y-74550661D01*
X103011487Y-74550612D01*
X103003757Y-74549822D01*
X103003753Y-74549870D01*
X102996562Y-74549240D01*
X102918920Y-74551500D01*
X102244289Y-74551500D01*
X102177250Y-74531815D01*
X102140482Y-74495324D01*
X102125722Y-74472732D01*
X101974291Y-74308236D01*
X101943370Y-74245584D01*
X101951230Y-74176158D01*
X101995376Y-74122002D01*
X102022189Y-74108073D01*
X102142086Y-74063354D01*
X102142093Y-74063350D01*
X102257187Y-73977190D01*
X102257190Y-73977187D01*
X102343350Y-73862093D01*
X102343354Y-73862086D01*
X102393596Y-73727379D01*
X102393598Y-73727372D01*
X102399999Y-73667844D01*
X102400000Y-73667827D01*
X102400000Y-73020000D01*
X101483686Y-73020000D01*
X101509493Y-72979844D01*
X101550000Y-72841889D01*
X101550000Y-72698111D01*
X101509493Y-72560156D01*
X101483686Y-72520000D01*
X102400000Y-72520000D01*
X102400000Y-71872172D01*
X102399999Y-71872155D01*
X102393598Y-71812627D01*
X102393596Y-71812620D01*
X102343354Y-71677913D01*
X102343350Y-71677906D01*
X102257190Y-71562812D01*
X102257187Y-71562809D01*
X102142093Y-71476649D01*
X102142086Y-71476645D01*
X102007379Y-71426403D01*
X102007372Y-71426401D01*
X101947844Y-71420000D01*
X101300000Y-71420000D01*
X101300000Y-72334498D01*
X101192315Y-72285320D01*
X101085763Y-72270000D01*
X101014237Y-72270000D01*
X100907685Y-72285320D01*
X100800000Y-72334498D01*
X100800000Y-71420000D01*
X100152155Y-71420000D01*
X100092627Y-71426401D01*
X100092620Y-71426403D01*
X99957913Y-71476645D01*
X99957906Y-71476649D01*
X99842812Y-71562809D01*
X99842809Y-71562812D01*
X99756649Y-71677906D01*
X99756645Y-71677913D01*
X99706403Y-71812620D01*
X99706401Y-71812627D01*
X99700000Y-71872155D01*
X99700000Y-72520000D01*
X100616314Y-72520000D01*
X100590507Y-72560156D01*
X100550000Y-72698111D01*
X100550000Y-72841889D01*
X100590507Y-72979844D01*
X100616314Y-73020000D01*
X99700000Y-73020000D01*
X99700000Y-73667844D01*
X99706401Y-73727372D01*
X99706403Y-73727379D01*
X99756645Y-73862086D01*
X99756649Y-73862093D01*
X99842809Y-73977187D01*
X99842812Y-73977190D01*
X99957906Y-74063350D01*
X99957913Y-74063354D01*
X100077810Y-74108073D01*
X100133744Y-74149944D01*
X100158161Y-74215409D01*
X100143309Y-74283682D01*
X100125706Y-74308238D01*
X99974284Y-74472723D01*
X99974276Y-74472734D01*
X99851140Y-74661207D01*
X99760703Y-74867385D01*
X99705436Y-75085628D01*
X99705434Y-75085640D01*
X99686844Y-75309994D01*
X99686844Y-75310005D01*
X99705434Y-75534359D01*
X99705436Y-75534371D01*
X99760703Y-75752614D01*
X99851140Y-75958792D01*
X99974276Y-76147265D01*
X99974284Y-76147276D01*
X100126756Y-76312902D01*
X100126760Y-76312906D01*
X100304424Y-76451189D01*
X100304429Y-76451191D01*
X100304431Y-76451193D01*
X100340930Y-76470946D01*
X100390520Y-76520165D01*
X100405628Y-76588382D01*
X100381457Y-76653937D01*
X100340930Y-76689054D01*
X100304431Y-76708806D01*
X100304422Y-76708812D01*
X100126761Y-76847092D01*
X100126756Y-76847097D01*
X99974284Y-77012723D01*
X99974276Y-77012734D01*
X99851140Y-77201207D01*
X99760703Y-77407385D01*
X99705436Y-77625628D01*
X99705434Y-77625640D01*
X99686844Y-77849994D01*
X99686844Y-77850005D01*
X99705434Y-78074359D01*
X99705436Y-78074371D01*
X99760703Y-78292614D01*
X99851140Y-78498792D01*
X99974276Y-78687265D01*
X99974284Y-78687276D01*
X100126756Y-78852902D01*
X100126761Y-78852907D01*
X100185981Y-78899000D01*
X100304424Y-78991189D01*
X100304429Y-78991191D01*
X100304431Y-78991193D01*
X100340930Y-79010946D01*
X100390520Y-79060165D01*
X100405628Y-79128382D01*
X100381457Y-79193937D01*
X100340930Y-79229054D01*
X100304431Y-79248806D01*
X100304422Y-79248812D01*
X100126761Y-79387092D01*
X100126756Y-79387097D01*
X99974284Y-79552723D01*
X99974276Y-79552734D01*
X99851140Y-79741207D01*
X99760703Y-79947385D01*
X99705436Y-80165628D01*
X99705434Y-80165640D01*
X99686844Y-80389994D01*
X99686844Y-80390005D01*
X99705434Y-80614359D01*
X99705436Y-80614371D01*
X99760703Y-80832614D01*
X99851140Y-81038792D01*
X99974276Y-81227265D01*
X99974284Y-81227276D01*
X100126756Y-81392902D01*
X100126760Y-81392906D01*
X100304424Y-81531189D01*
X100304429Y-81531191D01*
X100304431Y-81531193D01*
X100340930Y-81550946D01*
X100390520Y-81600165D01*
X100405628Y-81668382D01*
X100381457Y-81733937D01*
X100340930Y-81769054D01*
X100304431Y-81788806D01*
X100304422Y-81788812D01*
X100126761Y-81927092D01*
X100126756Y-81927097D01*
X99974284Y-82092723D01*
X99974276Y-82092734D01*
X99851140Y-82281207D01*
X99760703Y-82487385D01*
X99705436Y-82705628D01*
X99705434Y-82705640D01*
X99686844Y-82929994D01*
X99686844Y-82930005D01*
X99705434Y-83154359D01*
X99705436Y-83154371D01*
X99760703Y-83372614D01*
X99851140Y-83578792D01*
X99974276Y-83767265D01*
X99974284Y-83767276D01*
X100126756Y-83932902D01*
X100126760Y-83932906D01*
X100304424Y-84071189D01*
X100304429Y-84071191D01*
X100304431Y-84071193D01*
X100340930Y-84090946D01*
X100390520Y-84140165D01*
X100405628Y-84208382D01*
X100381457Y-84273937D01*
X100340930Y-84309054D01*
X100304431Y-84328806D01*
X100304422Y-84328812D01*
X100126761Y-84467092D01*
X100126756Y-84467097D01*
X99974284Y-84632723D01*
X99974276Y-84632734D01*
X99851140Y-84821207D01*
X99760703Y-85027385D01*
X99705436Y-85245628D01*
X99705434Y-85245640D01*
X99686844Y-85469994D01*
X99686844Y-85470005D01*
X98100500Y-85470005D01*
X98100500Y-66074409D01*
X98120185Y-66007370D01*
X98172989Y-65961615D01*
X98242147Y-65951671D01*
X98298807Y-65975140D01*
X98413796Y-66061220D01*
X98550799Y-66112320D01*
X98578050Y-66115249D01*
X98611345Y-66118830D01*
X98611362Y-66118831D01*
X103708638Y-66118831D01*
X103708654Y-66118830D01*
X103735692Y-66115922D01*
X103769201Y-66112320D01*
X103906204Y-66061220D01*
X104023261Y-65973592D01*
X104110889Y-65856535D01*
X104161989Y-65719532D01*
X104166865Y-65674178D01*
X104168499Y-65658985D01*
X104168500Y-65658968D01*
X104168500Y-60561693D01*
X104168499Y-60561676D01*
X104165157Y-60530601D01*
X104161989Y-60501130D01*
X104148942Y-60466151D01*
X104135561Y-60430274D01*
X104110889Y-60364127D01*
X104023261Y-60247070D01*
X103906204Y-60159442D01*
X103870841Y-60146252D01*
X103769203Y-60108342D01*
X103708654Y-60101831D01*
X103708638Y-60101831D01*
X98611362Y-60101831D01*
X98611345Y-60101831D01*
X98550797Y-60108342D01*
X98550795Y-60108342D01*
X98413795Y-60159442D01*
X98298811Y-60245519D01*
X98233346Y-60269936D01*
X98165073Y-60255084D01*
X98115668Y-60205679D01*
X98100500Y-60146252D01*
X98100500Y-54024500D01*
X98120185Y-53957461D01*
X98172989Y-53911706D01*
X98224500Y-53900500D01*
X129075500Y-53900500D01*
X129142539Y-53920185D01*
G37*
%TD.AperFunction*%
%TD*%
M02*
